<svg width="40" height="32" viewBox="0 0 40 32" fill="none" xmlns="http://www.w3.org/2000/svg">
<path d="M30.9998 19.2727L30.9998 12.7273C30.9998 12.5344 31.0788 12.3494 31.2194 12.213C31.3601 12.0766 31.5508 12 31.7498 12L33.2498 12C33.4487 12 33.6394 12.0766 33.7801 12.213C33.9207 12.3494 33.9998 12.5344 33.9998 12.7273L33.9998 19.2727C33.9998 19.4656 33.9207 19.6506 33.7801 19.787C33.6394 19.9234 33.4487 20 33.2498 20L31.7498 20C31.5508 20 31.3601 19.9234 31.2194 19.787C31.0788 19.6506 30.9998 19.4656 30.9998 19.2727Z" fill="#969BAB"/>
<path d="M28.6498 8H4.34976C3.99171 8 3.64833 8.14047 3.39516 8.39052C3.14199 8.64057 2.99976 8.97971 2.99976 9.33333V22.6667C2.99976 23.0203 3.14199 23.3594 3.39516 23.6095C3.64833 23.8595 3.99171 24 4.34976 24H28.6498C29.0078 24 29.3512 23.8595 29.6044 23.6095C29.8575 23.3594 29.9998 23.0203 29.9998 22.6667V9.33333C29.9998 8.97971 29.8575 8.64057 29.6044 8.39052C29.3512 8.14047 29.0078 8 28.6498 8Z" fill="#18191F"/>
</svg>
