<svg width="56" height="56" viewBox="0 0 56 56" fill="none" xmlns="http://www.w3.org/2000/svg">
<path d="M24 25.3333H14.6667C14.3131 25.3333 13.9739 25.1928 13.7239 24.9428C13.4738 24.6927 13.3334 24.3536 13.3334 24V14.6666C13.3334 14.313 13.4738 13.9739 13.7239 13.7238C13.9739 13.4738 14.3131 13.3333 14.6667 13.3333H24C24.3537 13.3333 24.6928 13.4738 24.9429 13.7238C25.1929 13.9739 25.3334 14.313 25.3334 14.6666V24C25.3334 24.3536 25.1929 24.6927 24.9429 24.9428C24.6928 25.1928 24.3537 25.3333 24 25.3333Z" fill="#18191F"/>
<path d="M24 42.6666H14.6667C14.3131 42.6666 13.9739 42.5262 13.7239 42.2761C13.4738 42.0261 13.3334 41.6869 13.3334 41.3333V32C13.3334 31.6463 13.4738 31.3072 13.7239 31.0571C13.9739 30.8071 14.3131 30.6666 14.6667 30.6666H24C24.3537 30.6666 24.6928 30.8071 24.9429 31.0571C25.1929 31.3072 25.3334 31.6463 25.3334 32V41.3333C25.3334 41.6869 25.1929 42.0261 24.9429 42.2761C24.6928 42.5262 24.3537 42.6666 24 42.6666Z" fill="#18191F"/>
<path d="M29.3334 14.6666H42.6667V17.3333H29.3334V14.6666Z" fill="#18191F"/>
<path d="M42.6667 32H29.3334V34.6667H42.6667V32Z" fill="#18191F"/>
<path d="M42.6667 38.6666H29.3334V41.3333H42.6667V38.6666Z" fill="#18191F"/>
<path d="M42.6667 21.3333H29.3334V24H42.6667V21.3333Z" fill="#18191F"/>
</svg>
