<svg width="454" height="1015" viewBox="0 0 454 1015" fill="none" xmlns="http://www.w3.org/2000/svg">
<path opacity="0.5" fill-rule="evenodd" clip-rule="evenodd" d="M-561.009 29.1895L-562.183 32.1124C-574.083 62.5105 -580.19 94.6183 -580.821 127.691C-581.455 162.306 -575.493 195.866 -563.148 227.362C-535.439 298.973 -477.292 354.727 -394.601 388.556C-221.875 459.468 -143.066 638.966 -79.508 783.728L-78.9335 785.036C-50.5774 850.426 -23.5454 912.198 7.76821 954.09C42.4252 1000.72 79.3013 1019.54 124.136 1013.17C170.991 1006.38 216.381 983.259 259.401 943.759C293.848 912.542 326.555 871.06 357.095 820.376C406.289 738.665 432.942 659.261 435.961 650.266C436.128 649.769 436.223 649.486 436.245 649.431C450.094 594.204 455.487 540.826 452.313 491.104C449.401 444.574 439.042 399.681 421.234 357.968L421.234 357.968C420.121 355.361 419.008 352.754 417.788 350.413C454.469 432.723 464.965 531.055 435.448 649.111C435.417 649.187 435.3 649.53 435.098 650.127C431.751 659.968 404.999 738.642 356.404 819.79C308.702 899.376 229.602 997.209 123.818 1012.43C79.6215 1018.74 42.6386 1000.19 8.24737 953.665C-22.9596 911.508 -50.0982 850.002 -78.5611 784.877C-110.363 711.932 -146.671 629.462 -195.596 557.663C-249.018 479.458 -310.263 425.563 -382.407 393.166C-217.458 461.924 -142.013 634.183 -81.2532 772.912L-81.0445 773.388C-80.539 774.535 -80.034 775.68 -79.5297 776.824L-78.5233 779.107C-51.851 839.619 -26.7009 896.677 2.42274 935.897C36.019 980.557 71.6732 998.58 114.486 992.632C159.428 985.996 203.221 963.779 244.324 925.978C277.441 895.769 308.869 855.934 338.289 807.269C385.618 728.269 411.611 651.367 414.189 643.739L414.189 643.738C414.314 643.369 414.384 643.162 414.399 643.125C427.66 590.131 432.837 538.826 429.82 491.019C427.065 446.403 416.969 403.159 400.063 363.043C394.021 348.89 387.234 335.055 379.437 321.432C427.97 407.269 446.221 512.418 413.602 642.805C413.571 642.882 413.455 643.222 413.254 643.812L413.254 643.812C409.984 653.404 384.247 728.902 337.599 806.683C291.815 883.028 215.751 977.143 114.275 991.622C71.7277 997.676 36.3391 979.76 3.27433 935.314C-26.7652 894.859 -52.6841 835.694 -80.0339 773.177C-110.564 703.211 -145.334 623.828 -192.615 554.849C-241.755 483.157 -297.592 432.544 -362.764 401.034C-210.701 469.495 -139.932 631.253 -82.8887 761.847C-56.4929 822.13 -31.687 878.688 -2.92164 917.704C29.1347 960.82 63.1947 978.203 104.2 972.146C147.386 966.039 189.317 944.617 228.876 908.355C260.555 879.421 290.812 840.967 318.74 794.48C364.207 718.624 389.091 645.155 391.601 637.744C391.725 637.38 391.794 637.175 391.809 637.138C396.225 619.342 399.697 601.812 402.224 584.564C399.673 601.462 396.218 618.683 391.863 636.234C391.813 636.36 391.65 636.822 391.376 637.601C389.907 641.774 385.24 655.031 377.506 674.286C365.447 704.311 345.817 748.577 318.794 793.576C274.93 866.68 202.008 956.811 104.734 970.817C63.8351 976.608 30.0408 959.332 -1.59086 916.696C-29.5557 879.163 -53.6057 824.675 -79.1715 766.752L-79.2733 766.522C-80.0689 764.719 -80.866 762.913 -81.6647 761.105L-83.4412 757.067C-112.517 690.977 -145.168 616.76 -189.526 551.769C-237.207 482.077 -291.329 433.568 -354.698 403.222C-207.364 468.079 -139.042 624.085 -84.255 749.882C-83.7816 750.952 -83.3087 752.022 -82.8364 753.09L-81.759 755.527C-57.3017 810.857 -34.2105 863.097 -7.41559 898.928C23.2076 940.234 55.78 956.711 95.4025 951.024C136.674 945.074 177.008 924.553 215.023 889.832C245.265 862.172 274.508 825.47 301.158 780.63C344.989 707.626 368.742 636.503 370.779 630.403L370.78 630.403L370.78 630.401L370.859 630.167C370.895 630.058 370.916 629.997 370.921 629.983C394.291 535.688 389.892 449.062 357.829 372.926C330.111 307.484 281.01 247.648 211.692 195.121C84.9543 98.8579 -85.4955 43.0505 -210.131 2.24966C-212.197 1.56349 -214.255 0.880635 -216.304 0.201118C-218.197 -0.426632 -220.082 -1.05155 -221.959 -1.67363L-221.966 -1.67602C-248.567 -10.4945 -273.454 -18.7448 -294.584 -26.424C-340.662 -43.0792 -386.396 -39.8474 -426.521 -16.7739C-462.336 4.01915 -491.578 39.1784 -509.08 82.7554L-510.147 85.4126C-531.442 140.735 -531.955 203.479 -510.815 257.639C-488.39 315.342 -443.826 361.396 -380.87 391.719C-539.926 321.871 -568.318 175.633 -526.5 67.7357L-525.432 65.0786C-500.521 3.05283 -447.277 -51.9682 -377.089 -58.8405C-399.353 -56.8465 -420.856 -50.0079 -441.007 -38.3297C-477.726 -17.591 -507.98 19.3213 -526.336 65.0242L-527.51 67.9469C-549.871 125.927 -550.283 191.489 -528.454 247.777C-504.926 308.578 -457.557 356.783 -391.26 388.499C-557.979 315.866 -587.651 163.077 -543.863 50.2704L-542.796 47.6132C-508.325 -38.2124 -421.55 -111.362 -310.686 -70.8465C-287.164 -62.2252 -259.197 -53.0473 -229.431 -43.2786L-229.426 -43.2773C-226.684 -42.3775 -223.927 -41.4727 -221.157 -40.5629L-218.579 -39.7161C-88.9516 2.6809 81.4209 58.7234 215.077 151.061C81.2748 58.2559 -89.2117 2.21055 -216.149 -39.5186L-216.15 -39.5188L-216.15 -39.5191L-218.366 -40.2475C-221.005 -41.1147 -223.633 -41.9774 -226.248 -42.8356L-229.208 -43.8072C-258.978 -53.5769 -286.948 -62.7559 -310.472 -71.378C-360.802 -89.7408 -410.365 -86.1952 -453.897 -60.7871C-492.957 -38.8287 -524.649 -0.642217 -543.752 46.9206L-544.926 49.8435C-568.248 110.215 -568.557 178.595 -545.881 237.383C-520.388 303.005 -468.27 354.853 -394.748 387.877C-575.118 313.695 -607.73 151.661 -561.385 32.4325L-560.211 29.5096C-524.353 -59.7703 -433.957 -135.786 -318.47 -93.7219C-291.046 -83.6333 -257.775 -72.7388 -222.537 -61.3631L-221.196 -60.9223C-90.2517 -17.8839 80.2971 38.1718 217.208 129.141C79.7853 37.4401 -91.323 -18.9914 -219.959 -61.4157L-219.96 -61.416L-222.217 -62.1602C-227.035 -63.7569 -231.819 -65.3395 -236.557 -66.9073C-266.367 -76.77 -294.395 -86.0435 -318.15 -94.519C-370.34 -113.629 -421.924 -109.661 -467.583 -83.5645C-508.081 -60.3321 -541.159 -20.2333 -561.009 29.1895ZM243.602 171.775C234.307 164.673 224.789 157.771 215.077 151.061C223.875 157.164 232.515 163.425 240.973 169.852C241.851 170.488 242.728 171.129 243.602 171.775ZM260.466 185.087C254.934 180.573 249.31 176.136 243.602 171.775C249.388 176.046 255.068 180.506 260.466 185.087ZM-302.953 -48.6092C-329.221 -58.1683 -354.066 -61.0947 -377.089 -58.8405C-353.139 -60.9854 -328.307 -57.5241 -303.326 -48.4502C-278.028 -39.2153 -247.52 -29.1224 -215.046 -18.548C-84.9899 24.1215 93.0068 82.6514 225.481 183.07C297.827 238.048 349.052 300.279 378.042 368.701C405.702 433.915 413.684 506.347 402.224 584.564C426.553 423.426 368.709 291.677 225.588 182.805C93.3793 82.4924 -84.6174 23.9625 -214.674 -18.7071C-247.148 -29.2813 -277.656 -39.3743 -302.953 -48.6092ZM300.095 780.203C325.998 737.223 344.881 694.818 356.407 666.12C362.042 652.092 365.864 641.301 367.971 635.352L367.971 635.352C369.137 632.061 369.778 630.251 369.911 630.195C413.975 452.872 362.011 311.039 210.892 196.343C84.314 100.452 -86.0291 44.3791 -210.664 3.57821C-212.206 3.06709 -213.745 2.55732 -215.28 2.0489L-219.632 0.607698C-247.135 -8.49986 -273.247 -17.147 -295.117 -25.0954C-396.84 -62.2479 -476.535 4.79664 -508.124 83.448L-509.085 85.8394C-548.502 187.701 -522.794 324.684 -376.726 392.726C-432.995 363.791 -473.112 321.075 -493.761 268.191C-513.681 216.373 -513.597 156.234 -492.997 103.409L-491.93 100.752C-475.175 59.035 -447.105 25.2568 -413.206 6.16249C-374.943 -16.1159 -331.39 -19.2977 -287.278 -3.12381C-267.182 4.14455 -243.568 11.8978 -218.273 20.2029C-214.401 21.4741 -210.489 22.7583 -206.545 24.0556L-205.325 24.4571C-86.5892 63.5126 75.7724 116.918 196.466 208.446C204.348 214.454 211.962 220.56 219.303 226.763C332.627 321.558 378.488 435.151 358.795 572.012C356.431 589.073 353.033 606.442 348.597 624.103C348.581 624.142 348.511 624.351 348.386 624.721C345.976 631.867 323.271 699.212 281.768 768.213C256.237 811.035 228.644 845.93 199.468 872.475C163.263 905.763 124.897 925.224 85.2748 930.91C47.6736 936.174 16.3231 920.497 -12.867 881.001C-38.8635 845.975 -61.1855 795.111 -84.9103 741.05L-86.0996 738.34C-137.284 620.921 -200.533 476.193 -334.649 411.828C-278.286 440.974 -229.546 486.099 -186.545 548.955C-143.191 612.346 -111.283 685.025 -83.1377 749.405L-81.9797 752.046L-81.9796 752.047L-81.9794 752.047C-57.1328 808.734 -33.8451 861.863 -6.564 898.344C23.9002 939.278 56.2069 955.648 95.1912 950.013C188.158 936.746 258.043 850.332 300.095 780.203ZM348.651 623.199C353.008 605.784 356.39 588.725 358.795 572.012C368.513 501.881 360.766 436.947 335.914 378.319C312.631 323.326 273.35 272.432 219.303 226.763C212.105 220.742 204.634 214.796 196.89 208.925C76.4618 117.504 -85.899 64.0985 -204.635 25.0429L-205.855 24.6416C-235.672 15.1345 -263.681 5.73639 -286.853 -2.64465C-383.952 -38.2487 -460.027 25.9297 -490.229 101.127L-491.19 103.518C-528.949 200.502 -504.406 331.157 -365.465 396.3C-418.793 368.706 -457.043 328.198 -476.386 277.946C-495.46 228.628 -495.273 171.308 -475.634 120.874L-474.674 118.483C-458.665 78.6258 -431.981 46.7599 -399.252 27.5044C-362.692 6.39335 -321.052 3.3683 -279.067 18.6885C-256.692 26.7493 -230.277 35.5071 -201.895 44.7463L-201.885 44.7495L-201.884 44.7497C-88.4648 81.9719 66.9376 132.972 182.304 220.655C245.354 268.813 290.156 323.22 315.33 382.703C344.797 452.242 348.94 531.05 327.337 617.107C327.321 617.146 327.252 617.352 327.129 617.716L327.128 617.717C324.791 624.633 303.192 688.553 263.549 754.415C239.244 794.952 212.823 828.467 185.084 853.738C150.53 885.22 114.027 903.886 76.3187 909.415C40.2595 914.681 10.6101 899.379 -17.5193 861.852C-42.3548 828.519 -63.572 780.237 -86.189 728.77L-87.3585 726.108L-87.4952 725.797C-136.46 614.07 -196.831 476.316 -324.445 414.978C-270.809 442.849 -224.338 486.073 -183.191 545.982C-141.988 606.094 -111.729 675.231 -84.9717 736.368L-84.5031 737.439C-60.5989 792.4 -37.5943 844.223 -11.4295 879.727C17.6016 918.85 48.3139 934.58 85.6494 929.209C174.414 916.414 241.157 833.984 281.291 767.096C305.808 726.028 323.944 685.483 334.937 658.114C338.909 648.224 341.994 640.016 344.24 634.045L344.24 634.044L344.24 634.044C346.7 627.501 348.15 623.643 348.651 623.199ZM313.838 649.948C303.273 676.254 285.99 714.674 262.486 753.988C224.164 817.901 160.564 896.348 75.735 908.564C40.314 913.778 10.9302 898.582 -16.7744 861.534C-41.7718 827.734 -63.5567 778.252 -86.3479 725.897L-86.8383 724.778C-112.32 666.627 -141.3 600.496 -180.581 543.327C-223.613 480.546 -272.611 437.422 -330.398 411.256C-330.363 411.271 -330.327 411.285 -330.292 411.299C-198.125 465.617 -137.754 603.421 -89.3621 714.195L-88.1836 716.873C-66.68 765.734 -46.4212 811.767 -22.7573 843.394C3.93888 879.111 32.1008 893.508 66.4045 888.771C147.564 877.241 208.234 802.246 244.85 741.043C282.833 678.076 303.298 616.543 305.19 610.854C305.276 610.596 305.324 610.452 305.333 610.429C325.867 528.572 322.037 453.593 293.894 387.671C269.727 331.061 227.314 279.157 167.185 233.715C57.4448 150.45 -90.31 101.907 -198.309 66.553C-202.286 65.2292 -206.227 63.9193 -210.126 62.6239L-210.308 62.5631C-232.758 55.1027 -253.762 48.1226 -271.654 41.7235C-311.78 27.1505 -351.239 30.1254 -386.096 50.069C-416.749 67.9981 -442.262 98.4833 -457.417 136.215L-458.377 138.606C-477.055 186.648 -477.345 241.15 -459.119 287.968C-439.061 339.83 -398.032 380.768 -340.263 406.989C-340.358 406.949 -340.454 406.91 -340.549 406.871C-485.47 347.431 -511.555 217.226 -474.678 121.567L-473.717 119.176C-444.903 47.4327 -372.554 -13.6136 -279.973 20.1761C-257.864 28.1302 -231.183 36.9947 -202.801 46.2339L-202.791 46.237C-89.3717 83.4591 66.0312 134.459 181.239 221.771C318.812 326.397 366.274 455.622 326.168 616.945C326.137 617.02 326.027 617.34 325.839 617.889C324.69 621.23 320.62 633.062 313.838 649.948ZM243.681 740.882C266.066 703.586 282.336 666.92 292.367 641.943C296.88 630.707 300.088 621.902 302.046 616.528L302.046 616.528L302.046 616.527C303.376 612.879 304.128 610.812 304.322 610.641C342.504 457.184 297.372 334.45 166.651 235.044C56.9112 151.779 -90.5779 103.342 -198.577 67.9883C-202.306 66.747 -206.004 65.518 -209.664 64.3016L-210.369 64.067L-210.571 64.0002C-233.023 56.5391 -254.029 49.5585 -271.922 43.1588C-359.986 11.1834 -428.874 68.9912 -456.301 137.28L-457.155 139.405C-492.033 229.278 -468.083 350.898 -334.929 408.409C-386.518 383.379 -423.206 345.375 -441.586 298.096C-458.699 253.885 -458.573 202.095 -440.855 156.444L-440.001 154.318C-425.594 118.447 -401.518 89.2359 -372.727 72.1019C-339.467 53.0599 -302.029 50.5075 -264.029 64.2268C-245.72 71.012 -223.666 78.2538 -200.487 85.8651L-200.479 85.8676L-197.756 86.7617L-194.511 87.8278L-192.402 88.5219L-192.402 88.5221C-90.3792 122.103 48.8823 167.942 152.172 246.509C209.167 289.766 249.669 338.743 272.458 392.639C299.17 455.209 302.952 526.466 283.487 604.124C283.478 604.147 283.432 604.285 283.348 604.532C281.52 609.947 261.93 667.98 226.045 727.936C191.454 785.633 133.82 856.909 56.8624 867.967C24.4732 872.547 -2.46683 858.95 -27.7299 825.042C-49.7514 795.748 -68.4679 753.264 -88.3697 708.089C-89.1892 706.229 -90.0107 704.364 -90.8346 702.496C-135.936 599.386 -192.168 471.203 -313.226 417.99C-261.307 443.158 -216.716 483.446 -177.599 540.514C-140.083 595.388 -112.308 658.384 -88.0858 714.091C-43.0327 817.045 -7.4672 898.29 66.1932 887.76C146.98 876.389 207.278 801.554 243.681 740.882ZM271.269 633.777C261.771 657.426 246.248 692.232 224.982 727.509C190.498 784.94 133.237 856.058 56.6511 866.956C-13.0736 876.907 -46.8901 799.758 -89.4515 702.125C-131.711 605.506 -183.674 487.026 -289.343 428.253C-184.181 481.896 -133.453 597.365 -92.414 691.061C-72.8028 735.967 -54.3045 778.265 -32.8094 806.956C-8.97952 839.053 16.6319 852.117 47.4791 847.535C120.129 837.216 174.727 769.657 207.506 714.935C243.002 655.751 261.8 598.191 261.748 597.553C280.143 524.094 276.568 456.931 251.394 397.448C229.877 346.531 191.498 299.95 137.797 259.25C39.5135 184.724 -92.4417 141.403 -189.134 109.659L-190.181 109.315C-214.205 101.518 -237.059 93.882 -255.872 86.9428C-291.906 73.7048 -327.27 76.4729 -358.561 94.4542C-386.394 110.739 -409.085 138.038 -422.745 172.049L-423.599 174.175C-440.356 217.434 -440.478 266.14 -424.159 308.489C-408.089 350.043 -377.06 383.804 -333.962 407.319C-451.133 351.05 -471.594 239.769 -439.526 156.978L-438.673 154.852C-412.739 90.2835 -347.471 35.3419 -264.031 65.7688C-246.353 72.3202 -225.395 79.2126 -202.952 86.5933L-199.59 87.6988C-198.686 87.9962 -197.779 88.2946 -196.87 88.5937L-194.513 89.3698L-192.276 90.1063C-90.2684 123.682 48.6577 169.411 151.904 247.944C276.039 342.236 318.733 458.746 282.583 604.07C282.389 604.242 281.667 606.234 280.4 609.73L280.399 609.732L280.399 609.733C278.543 614.853 275.517 623.199 271.269 633.777ZM206.284 714.136C226.164 680.771 240.94 647.825 249.904 625.505C256.628 608.765 260.365 597.923 260.206 597.55C294.537 459.828 254.173 349.809 136.891 260.737C38.8729 186.319 -93.0801 142.998 -189.772 111.254L-189.773 111.254L-190.821 110.91C-197.581 108.631 -204.264 106.407 -210.799 104.233L-210.831 104.223C-227.406 98.7082 -243.025 93.5118 -256.513 88.5371C-335.329 59.6588 -396.977 111.734 -421.523 172.848L-422.27 174.708C-452.513 252.958 -433.248 358.209 -322.104 411.509C-362.702 389.264 -391.71 357.538 -406.892 318.51C-422.363 278.662 -422.032 232.508 -406.342 191.906L-405.595 190.046C-392.682 157.895 -371.163 131.977 -344.768 116.966C-315.445 100.045 -281.73 97.541 -247.822 109.925C-235.127 114.583 -220.447 119.406 -204.851 124.53L-204.847 124.532C-198.637 126.572 -192.283 128.66 -185.851 130.804C-94.4872 160.71 30.4137 201.618 123.315 272.257C174.148 310.879 210.245 354.692 230.49 402.629C254.233 458.761 257.494 522.094 240.168 591.354C240.159 591.379 240.112 591.516 240.03 591.762L240.027 591.771L240.027 591.772C238.292 596.944 220.881 648.845 188.966 701.935C158 753.681 106.545 817.257 37.8304 826.996C-25.4061 836.159 -55.8836 766.831 -94.152 679.254C-132.87 590.519 -180.699 480.905 -280.972 430.755C-180.603 486.161 -131.425 598.449 -91.2551 690.169L-91.1899 690.318C-50.8545 782.737 -18.6803 855.523 47.1088 846.151C119.493 835.726 173.505 768.858 206.284 714.136ZM228.699 617.605C220.268 638.597 206.506 669.79 187.372 701.294C156.619 752.51 105.643 815.66 37.4601 825.613C-24.3659 834.507 -54.1687 766.703 -92.0333 680.557L-92.769 678.884C-131.054 591.133 -178.271 483.36 -275.96 432.033C-178.84 478.078 -132.912 582.714 -95.89 667.447L-95.8289 667.587C-59.8154 749.884 -31.351 814.93 28.1818 806.458C92.6946 797.191 141.007 737.599 170.055 689.093C200.107 639.15 216.409 590.683 218.076 585.726L218.077 585.725C218.16 585.478 218.206 585.34 218.216 585.315C234.473 520.254 231.259 460.642 209.213 407.97C189.974 362.905 156.267 321.595 108.462 285.423C21.5702 219.493 -95.3 180.984 -180.773 152.82L-181.893 152.451C-182.926 152.111 -183.956 151.772 -184.983 151.434L-188.469 150.288L-188.471 150.288L-188.471 150.288L-188.472 150.287L-188.474 150.287C-207.306 144.097 -225.081 138.255 -240.038 132.801C-311.041 106.752 -366.46 153.306 -388.445 208.043L-389.192 209.903C-403.921 248.113 -404.355 291.449 -389.731 328.797C-374.959 366.994 -346.087 397.501 -305.822 418.414C-414.893 369.135 -434.05 267.75 -404.961 193.078L-404.214 191.218C-381.056 133.558 -322.868 84.7211 -248.569 111.785C-230.818 118.297 -209.293 125.4 -186.598 132.664C-95.2343 162.57 29.6666 203.478 122.303 274.01C232.999 357.968 270.925 461.762 238.626 591.352C238.477 591.416 237.884 593.078 236.815 596.07L236.815 596.071L236.815 596.072L236.815 596.073L236.814 596.074C235.211 600.562 232.54 608.042 228.699 617.605ZM168.674 687.922C186.422 658.329 199.438 628.996 207.335 609.333C212.265 597.06 215.389 588.196 216.39 585.357C216.581 584.816 216.695 584.494 216.729 584.409C246.996 462.951 211.241 365.275 107.397 286.538C20.7102 221.015 -95.8167 182.619 -181.275 154.46L-182.533 154.045C-184.706 153.33 -186.867 152.62 -189.015 151.914L-189.119 151.88C-207.949 145.69 -225.723 139.849 -240.678 134.395C-310.353 108.88 -364.92 154.85 -386.585 208.79L-387.225 210.384C-414.033 279.336 -397.256 372.008 -299.906 419.19C-334.633 399.76 -359.436 372.216 -372.357 338.553C-385.867 303.811 -385.598 263.188 -371.828 227.368L-371.188 225.774C-350.591 174.491 -298.898 131.069 -232.784 155.463C-217.159 161.121 -198.398 167.422 -178.467 173.885L-176.539 174.518C-96.5611 200.787 12.3004 236.544 93.1831 298.11C137.854 332.097 169.545 370.746 187.512 412.831C208.499 461.993 211.399 517.775 196.212 578.637C196.371 579.009 180.883 626.79 151.357 675.721C124.227 720.986 78.9513 776.859 18.481 785.281C-37.1199 793.174 -63.6761 732.589 -97.4665 655.5L-97.5212 655.375C-131.501 577.726 -173.206 482.439 -259.981 438.03C-172.282 487.548 -129.265 585.997 -94.0278 666.652L-93.5865 667.66C-58.0718 748.802 -30.025 812.881 28.025 804.543C91.8996 795.329 139.733 736.162 168.674 687.922ZM18.4831 783.739C109.163 770.787 166.387 650.591 186.664 600.105C191.014 589.274 193.667 581.605 194.559 579.027L194.56 579.025C194.651 578.76 194.724 578.549 194.779 578.394C194.805 578.318 194.827 578.256 194.845 578.207C194.862 578.159 194.875 578.125 194.883 578.103C223.066 464.14 189.907 373.061 92.6495 299.438C11.2883 237.759 -98.2809 201.767 -178.426 175.441L-178.469 175.427C-198.666 168.858 -217.427 162.557 -233.052 156.898C-298.21 133.197 -349.051 176.036 -369.328 226.521L-369.968 228.116C-394.291 290.824 -379.935 374.697 -295.083 419.806C-323.414 402.069 -343.908 378.019 -355.038 349.211C-367.594 316.705 -367.222 278.899 -354.414 245.471L-353.773 243.877C-334.564 196.049 -286.384 155.227 -224.521 177.913C-213.997 181.915 -201.838 185.92 -188.864 190.193L-188.863 190.193L-188.863 190.193C-184.018 191.789 -179.06 193.422 -174.031 195.106C-99.5683 219.459 2.90322 253.209 78.8076 310.85C120.186 342.281 149.859 378.268 166.447 417.64C186.004 463.449 188.59 515.403 174.472 572.065C174.454 572.112 174.387 572.307 174.272 572.641C170.446 583.775 113.388 749.817 8.8315 764.742C-43.2361 772.219 -68.042 715.661 -99.3668 643.833C-129.478 575.155 -166.228 491.343 -239.508 447.853C-165.277 496.002 -127.113 583.211 -95.7658 654.845L-95.7657 654.846L-95.7061 654.982C-62.2359 731.321 -35.8391 791.527 18.4831 783.739ZM8.67468 762.828C93.1315 750.771 146.303 639.13 165.192 592.098C169.254 581.985 171.637 574.999 172.46 572.589C172.631 572.086 172.735 571.782 172.771 571.691C199.188 465.967 168.094 381.271 77.7948 312.603C2.15624 255.069 -100.05 221.425 -174.512 197.073C-176.661 196.353 -178.799 195.638 -180.922 194.928C-197.078 189.523 -212.398 184.397 -225.269 179.773C-285.802 157.62 -333.289 197.486 -352.179 244.517L-352.819 246.112C-376.104 306.305 -361.19 387.565 -275.117 428.417C-304.852 411.712 -326.268 388.107 -337.398 359.073C-349.266 328.694 -349.164 293.866 -337.05 262.936L-336.517 261.608C-318.694 217.233 -273.976 179.65 -216.471 200.895C-204.639 205.106 -190.601 209.729 -175.754 214.618L-175.588 214.673L-172.639 215.645C-171.574 215.995 -170.506 216.347 -169.435 216.7C-100.394 239.184 -5.73472 270.105 64.6984 323.697C103.208 353.05 130.599 386.269 145.915 422.661C163.775 465.012 166.313 513.244 153.265 565.707C153.246 565.755 153.18 565.946 153.068 566.272L153.065 566.279L153.064 566.283L153.064 566.283C149.383 576.987 96.6337 730.365 -0.17924 744.151C-48.3112 751.049 -71.3681 698.587 -100.467 631.973L-100.753 631.323C-130.182 564.337 -166.242 482.259 -241.543 444.273C-165.804 487.236 -128.405 572.55 -97.7942 642.378L-97.5046 643.038L-97.4382 643.189C-66.356 713.936 -41.7083 770.036 8.67468 762.828ZM143.721 584.091C126.219 627.669 76.9943 731.02 -0.867524 742.023C-47.6164 748.55 -70.3553 696.834 -98.8704 631.072C-125.982 568.918 -159.092 493.502 -223.968 452.03C-160.202 488.477 -128.647 560.676 -102.794 619.83L-102.577 620.326L-102.432 620.657C-75.7867 681.529 -54.5816 729.972 -10.0935 723.506C78.9704 710.72 127.777 569.088 130.989 559.768C131.084 559.493 131.139 559.333 131.154 559.295C153.613 469.571 126.015 394.611 49.5789 336.757C-14.9037 287.829 -101.37 259.404 -164.799 238.551L-165.743 238.241C-181.581 233.114 -196.516 228.041 -208.953 223.664C-261.833 203.968 -302.932 238.685 -319.26 279.339L-319.794 280.668C-330.947 309.206 -330.886 341.322 -320.131 369.094C-310.498 394.031 -292.755 414.598 -268.195 429.858C-343.549 391.346 -356.538 318.285 -335.19 263.683C-318.113 219.627 -273.926 181.83 -217.378 202.382C-203.878 207.187 -187.615 212.793 -170.341 218.188L-168.198 218.895C-99.4543 241.578 -6.02461 272.407 63.2609 324.972C146.708 388.419 175.63 466.996 151.139 564.853C151.072 565.021 150.902 565.478 150.634 566.198C149.633 568.894 147.258 575.285 143.721 584.091ZM-10.5161 721.485C61.2298 711.112 106.401 616.315 122.516 576.192C125.909 567.743 127.956 561.625 128.712 559.366L128.713 559.365C128.884 558.853 128.989 558.54 129.028 558.442C151.328 468.345 125.002 396.364 48.1414 338.031C-15.8114 289.317 -102.273 260.892 -165.702 240.04L-165.703 240.04L-165.704 240.039L-166.649 239.729C-167.923 239.316 -169.191 238.906 -170.454 238.498L-170.455 238.497C-184.89 233.829 -198.521 229.421 -209.859 225.151C-261.251 206.361 -301.392 240.229 -317.4 280.086L-317.934 281.415C-337.493 332.308 -325.371 400.4 -254.433 435.365C-310.588 401.522 -319.765 342.672 -302.537 298.399L-302.11 297.336C-287.169 260.136 -249.424 228.392 -200.848 245.742C-193.229 248.593 -184.492 251.47 -175.18 254.537L-175.177 254.538L-175.156 254.545L-175.148 254.547C-170.699 256.013 -166.118 257.521 -161.465 259.091C-103.638 277.996 -24.1274 304.376 35.0453 349.126C104.788 402.132 130.056 470.601 109.522 552.459C109.513 552.481 109.492 552.54 109.459 552.636C109.433 552.712 109.398 552.81 109.357 552.931C106.289 561.823 61.7917 690.79 -19.5286 702.436C-60.0846 708.323 -79.3816 664.341 -103.803 608.677L-103.943 608.36L-104.531 607.029C-128.92 551.813 -158.768 484.24 -219.95 452.148C-157.706 489.629 -126.325 560.927 -100.715 619.531L-100.569 619.864C-74.2422 679.99 -53.357 727.687 -10.5161 721.485ZM101.152 567.92C86.5313 604.323 45.1998 691.096 -20.2169 700.308C-59.1258 705.932 -78.1029 662.694 -102.206 607.777L-102.346 607.458C-125.04 555.64 -152.452 493.153 -205.729 458.23C-153.433 488.45 -127.301 547.877 -106.054 596.712C-84.8523 645.342 -66.5131 687.269 -29.55 682.057C44.2458 671.518 84.5551 554.301 87.1713 546.693L87.2522 546.458L87.2701 546.406C87.2874 546.357 87.2986 546.325 87.3039 546.312C105.647 472.215 82.9751 410.343 19.9255 362.185C-33.5103 321.591 -105.474 297.934 -158.145 280.791L-159.366 280.387L-160.527 280.003L-162.351 279.4C-173.847 275.603 -184.599 272.05 -193.702 268.67C-237.016 252.816 -271.3 281.321 -284.853 315.067L-285.28 316.13C-300.574 355.56 -292.997 407.515 -244.874 438.424C-307.744 406.22 -318.472 344.901 -300.677 299.146C-286.481 262.264 -249.374 230.572 -202.074 248.027C-194.455 250.878 -185.718 253.755 -176.405 256.822L-176.396 256.825L-176.39 256.827L-176.384 256.829C-171.932 258.295 -167.347 259.805 -162.691 261.376C-104.864 280.281 -25.5126 306.289 33.3944 350.931C103.403 404.044 127.558 469.906 107.024 551.764C106.969 552.668 104.887 558.62 101.152 567.92ZM-29.4934 679.611C29.435 671.187 66.7133 592.969 79.9466 560.021C82.5612 553.511 84.2693 548.808 85.0702 546.603L85.0725 546.596C85.3164 545.925 85.4757 545.486 85.5505 545.3C127.742 376.482 -51.3178 317.525 -158.254 282.598C-159.385 282.224 -160.509 281.853 -161.627 281.484L-162.464 281.207L-162.467 281.206L-162.469 281.205L-162.47 281.205C-173.963 277.408 -184.711 273.857 -193.81 270.478C-236.062 255.051 -269.229 283.079 -282.355 315.762L-282.782 316.825C-298.348 356.99 -289.687 410.52 -236.847 440.188C-275.556 412.149 -281.195 367.952 -268.131 334.127L-267.704 333.064C-255.538 302.772 -224.767 276.868 -185.917 291.545C-183.267 292.433 -180.485 293.373 -177.588 294.353L-177.561 294.362C-170.36 296.796 -162.45 299.47 -154.081 302.172C-106.938 317.712 -42.6274 338.913 5.17821 375.085C61.7482 417.863 82.0891 473.245 65.565 539.741C65.5523 539.773 65.5079 539.902 65.4321 540.122C62.9581 547.307 26.9582 651.854 -39.0921 661.253C-72.2262 666.151 -88.8165 628.322 -107.792 584.905C-125.511 544.275 -146.97 495.256 -187.996 466.929C-145.709 499.36 -122.797 551.536 -103.664 595.103L-103.446 595.599C-81.7682 645.347 -64.542 684.666 -29.4934 679.611ZM58.4757 552.014C46.6297 581.509 13.2979 651.437 -39.4079 658.966C-70.7866 663.335 -86.1048 628.485 -105.557 583.951L-106.063 582.803C-124.476 541.004 -146.621 490.731 -189.75 462.672C-147.015 485.871 -126.109 533.676 -109.036 572.715L-108.892 573.046C-91.9836 611.621 -77.4603 644.608 -48.1028 640.662C10.2088 632.402 41.901 540.501 44.2242 533.765L44.2269 533.757C44.3006 533.543 44.3442 533.417 44.3575 533.384C58.9563 474.754 40.9459 425.863 -8.93099 387.933C-50.8282 356.047 -107.564 337.483 -148.978 323.933L-149.485 323.767C-153.779 322.299 -157.953 320.933 -161.946 319.627L-161.953 319.624L-161.958 319.623L-161.961 319.622L-161.964 319.621L-161.97 319.619L-161.974 319.617L-161.975 319.617C-167.56 317.79 -172.789 316.079 -177.495 314.368C-212.358 301.292 -239.403 324.064 -250.182 350.902L-250.502 351.699C-262.357 382.55 -256.689 422.995 -219.808 447.483C-271.329 421.605 -280.269 371.953 -265.898 334.715L-265.578 333.918C-253.839 304.689 -224.399 279.793 -186.771 293.671C-178.047 296.88 -167.434 300.286 -156.504 303.794L-156.503 303.794L-156.503 303.794L-154.935 304.298C-59.213 335.646 100.554 388.088 63.0668 539.047C63.2258 539.419 61.5706 544.309 58.4757 552.014ZM-48.6844 638.268C-2.46693 631.528 26.8117 570.154 37.2703 544.114C38.3526 541.42 39.2331 539.101 39.9223 537.286L39.9227 537.285L39.923 537.284L39.9231 537.284L39.9233 537.284L39.9234 537.283L39.9235 537.283L39.9236 537.283L39.9238 537.282L39.9239 537.282L39.924 537.282C40.9328 534.625 41.5313 533.049 41.7526 532.954C75.0292 400.218 -65.6231 354.031 -149.897 326.358L-150.18 326.265C-160.598 323.006 -170.377 319.696 -178.455 316.76C-212.097 304.482 -238.024 326.778 -248.217 352.925C-261.078 385.678 -252.966 429.654 -207.106 452.384C-238.741 430.969 -243.72 396.173 -233.245 369.43L-232.925 368.633C-223.64 345.515 -200.216 325.609 -170.135 336.764C-164.505 338.778 -158.122 340.896 -151.178 343.199L-151.174 343.2C-149.466 343.767 -147.725 344.344 -145.953 344.934C-109.917 356.63 -60.914 372.917 -24.2099 400.619C19.0806 433.435 34.6537 476.102 21.9803 526.865C20.8586 530.426 -6.21562 612.433 -58.2832 619.91C-83.663 623.522 -96.1741 595.093 -110.746 561.981L-111.003 561.398C-125.422 528.091 -143.221 487.295 -179.059 466.829C-142 491.954 -122.668 535.984 -106.764 572.358C-89.6966 611.305 -76.1274 642.058 -48.6844 638.268ZM15.9059 535.842C6.94135 558.162 -18.4975 611.512 -58.3856 617.092C-81.9996 620.568 -93.7132 593.645 -108.289 560.019L-108.43 559.698C-121.439 530.05 -136.918 494.772 -165.366 472.574C-138.364 490.513 -124.189 522.641 -112.519 549.09L-112.368 549.432C-100.019 577.844 -89.418 602.159 -67.4528 598.947C-25.5398 592.955 -2.96248 530.077 0.259709 521.103L0.260056 521.102C0.435373 520.614 0.553364 520.286 0.613964 520.135C25.3729 420.842 -79.0655 386.611 -141.516 366.157C-147.639 364.191 -153.354 362.192 -158.307 360.459C-159.545 360.027 -160.735 359.61 -161.872 359.215C-187.807 350.033 -207.771 366.701 -215.775 386.63L-215.989 387.161C-224.395 408.725 -220.911 436.745 -197.28 454.973C-235.19 435.228 -241.596 397.857 -230.747 370.124L-230.427 369.327C-221.569 347.273 -199.21 328.481 -170.617 338.731C-164.653 340.864 -157.652 343.191 -150.168 345.678L-150.102 345.7L-149.856 345.781C-148.638 346.186 -147.408 346.595 -146.168 347.008L-145.884 347.101C-73.09 371.09 48.427 411.134 19.9613 525.745L15.9059 535.842ZM-68.0343 596.553C-34.2621 591.603 -12.8765 546.808 -5.29932 527.943C-3.74476 524.072 -2.78354 521.176 -2.41684 520.071L-2.41654 520.07C-2.3303 519.81 -2.27699 519.649 -2.25665 519.599C21.8075 422.805 -81.1955 388.841 -142.583 368.814C-148.994 366.756 -154.957 364.662 -160.223 362.812L-160.224 362.811L-161.41 362.395L-162.238 362.104C-162.563 361.99 -162.885 361.877 -163.205 361.766C-187.439 352.958 -206.286 369.149 -213.597 388.121C-222.886 411.979 -216.985 443.892 -183.783 460.314C-202.134 445.555 -205.713 422.899 -198.732 404.892L-198.518 404.361C-192.009 388.152 -175.399 374.457 -154.353 381.984C-151.401 383.17 -148.064 384.275 -144.479 385.462L-144.478 385.463C-142.256 386.199 -139.938 386.966 -137.558 387.804L-137.547 387.808C-86.3098 404.683 -1.01935 432.775 -21.3381 514.095C-21.3872 514.217 -21.4821 514.482 -21.6232 514.875L-21.626 514.883L-21.6275 514.887L-21.6282 514.889C-24.2668 522.242 -42.7604 573.781 -77.208 578.674C-95.2376 581.307 -104.089 561.089 -114.213 537.891C-123.713 516.087 -135.46 489.41 -157.884 474.797C-134.018 493.681 -120.983 523.476 -110.134 548.478L-109.908 548.989C-97.4008 577.264 -87.5952 599.433 -68.0343 596.553ZM-77.5762 575.749C-50.3989 571.853 -32.9598 535.348 -26.77 519.936L-26.7695 519.935C-25.169 515.95 -24.2087 513.559 -24.3677 513.187C-4.74223 434.359 -88.4523 406.91 -138.625 390.461C-144.844 388.272 -150.53 386.297 -155.42 384.641C-174.765 377.489 -189.778 390.282 -195.861 405.428L-196.075 405.959C-203.92 426.26 -198.322 453.812 -167.605 466.457C-137.267 478.944 -123.525 509.915 -112.317 535.177C-112.079 535.713 -111.842 536.247 -111.606 536.778L-110.998 538.141C-101.062 560.428 -93.2662 577.916 -77.5762 575.749Z" fill="url(#paint0_linear_1_9757)"/>
<defs>
<linearGradient id="paint0_linear_1_9757" x1="-274.398" y1="868.842" x2="58.1852" y2="40.7735" gradientUnits="userSpaceOnUse">
<stop stop-color="#FFD110" stop-opacity="0"/>
<stop offset="0.286458" stop-color="#109BFF"/>
<stop offset="0.614583" stop-color="#FF0469"/>
<stop offset="1" stop-color="#04DA00" stop-opacity="0"/>
</linearGradient>
</defs>
</svg>
