<svg width="1440" height="301" viewBox="0 0 1440 301" fill="none" xmlns="http://www.w3.org/2000/svg">
<g opacity="0.12">
<path fill-rule="evenodd" clip-rule="evenodd" d="M467.837 24.5153C467.729 5.03304 424.655 -16.8753 406.255 -28.1703C369.874 -50.5104 332.036 -71.1404 294.549 -92.0998C257.061 -113.059 219.473 -133.962 183.726 -156.972C160.516 -171.909 133.244 -188.733 117.502 -210.061C83.9689 -255.514 189.697 -248.765 217.084 -249.759C286.756 -252.298 366.669 -251.139 431.975 -274.809C470.96 -288.939 486.506 -312.637 478.133 -347.176C475.434 -358.408 467.445 -371.334 474.213 -382.277C481.439 -393.964 498.064 -400.708 511.862 -405.23C562.189 -421.707 620.053 -423.616 673.302 -425.684C730.72 -427.957 788.679 -427.292 845.693 -427.468C869.868 -427.542 895.116 -434.854 918.137 -440.797C948.317 -448.587 978.14 -457.337 1008.07 -465.796C1073.92 -484.364 1141.77 -503.92 1211.43 -508.636C1255.06 -511.59 1302.74 -507.596 1336.63 -481.898C1353.65 -468.995 1362.55 -449.814 1372.39 -432.775C1384.3 -412.19 1395.74 -391.407 1408.41 -371.147C1449.26 -305.893 1507.56 -242.128 1602.21 -238.924C1616.52 -238.441 1630.59 -240.015 1644.84 -240.31C1653.91 -240.492 1661.99 -238.646 1665.36 -230.652C1673.84 -210.601 1647.18 -178.949 1636.25 -163.04C1612.32 -128.218 1585.33 -94.9576 1560.05 -60.8339C1543.32 -38.2665 1514.37 -7.42675 1514.07 19.9927C1513.8 44.4236 1552.39 62.0821 1573.4 74.1157C1593.09 85.3824 1628.76 101.149 1630.92 124.068C1631.97 135.182 1623.27 144.392 1614.18 151.539C1598.25 164.039 1579.89 172.856 1565.56 187.117C1542.06 210.514 1522.43 242.706 1525.62 274.233C1527.83 296.079 1542.64 310.386 1561.47 324.061C1569.38 329.811 1575.81 333.879 1576.22 343.214C1576.9 358.037 1570 373.724 1564.32 387.468C1544 436.654 1515.13 484.214 1483.03 528.622C1466.98 550.814 1449.65 572.938 1428.37 591.87C1414.44 604.301 1395.65 619.096 1374.4 619.079C1349.79 619.079 1323.75 611.602 1299.83 606.011C1255.16 595.563 1211.03 583.484 1167.07 571.092C1065.41 542.423 964.708 511.431 864.963 478.118C794.704 454.613 722.954 431.074 656.9 399.825C644.017 393.689 631.858 386.534 620.586 378.457C608.542 369.974 593.597 366.179 578.443 363.349C484.387 345.788 381.344 359.27 286.897 367.724C262.924 369.866 238.952 372.02 214.911 373.52C194.245 374.809 169.503 378.508 149.417 372.951C109.838 362.014 144.437 321.703 159.065 305.278C210.566 247.445 277.013 198.515 338.601 148.562C367.884 124.773 397.389 101.047 425.08 75.9111C439.498 62.8434 467.931 41.5942 467.837 24.5153Z" stroke="black"/>
<path fill-rule="evenodd" clip-rule="evenodd" d="M485.584 21.231C469.799 0.615874 442.103 -14.6212 419.113 -28.9609C386.029 -49.6044 351.905 -69.1008 318.295 -89.1594C286.514 -108.128 254.666 -127.312 225.235 -148.852C207.288 -161.988 184.771 -177.697 176.271 -197.125C157.831 -239.235 257.029 -232.846 281.518 -233.948C342.399 -236.674 411.423 -237.299 467.746 -259.47C502.916 -273.316 517.365 -296.276 509.864 -328.153C507.271 -339.182 502.599 -348.598 508.514 -359.57C515.353 -372.268 531.085 -380.185 545.507 -385.773C590.683 -403.282 644.083 -407.002 693.054 -410.097C743.645 -413.294 796.357 -415.549 845.321 -413.209C864.901 -412.278 887.439 -417.565 906.816 -421.62C936.632 -427.867 966.145 -435.073 995.812 -441.775C1056.11 -455.405 1117.97 -468.535 1180.69 -470.028C1225.97 -471.107 1273.19 -465.258 1310.87 -442.649C1349.05 -419.723 1365.99 -384.183 1387.16 -350.398C1423.73 -291.988 1473.12 -220.971 1557.72 -208.631C1570.55 -206.756 1582.88 -207.773 1595.69 -207.313C1602.28 -207.08 1609.78 -206.342 1613.12 -200.873C1621.8 -186.675 1598.03 -160.716 1590.03 -149.841C1567.92 -119.787 1543.07 -91.2038 1519.9 -61.7293C1501.5 -38.3257 1478.18 -12.3211 1471.07 15.4213C1462.43 49.087 1518.85 73.0414 1538.7 96.746C1573.1 137.851 1507.92 161.272 1475.79 180.871C1438.89 203.371 1408.44 244.42 1441.51 279.233C1454.17 292.544 1469.74 300.478 1475.39 317.85C1484.22 345.019 1477.54 376.067 1470.37 402.923C1459.57 443.296 1442.47 483.232 1419.23 519.72C1402.58 545.844 1374.96 586.807 1334.51 583.735C1307.28 581.684 1279.6 574.194 1253.08 567.572C1213.38 557.662 1174.18 546.366 1135.19 534.633C1045.18 507.623 956.165 477.842 868.898 445.085C809.354 422.726 643.26 331.355 630.762 328.096C593.499 318.384 551.131 320.094 512.713 321.599C461.609 323.598 410.761 328.777 359.953 333.576C335.769 335.848 311.462 338.625 287.149 339.743C269.844 340.538 247.117 341.22 231.959 332.752C202.373 316.232 235.335 278.432 248.967 262.439C290.727 213.412 343.553 170.955 393.085 127.544C417.391 106.23 442.069 84.9505 464.134 61.9274C473.033 52.6307 495.341 33.9636 485.584 21.231Z" stroke="black"/>
<path fill-rule="evenodd" clip-rule="evenodd" d="M507.423 10.6586C464.313 -30.5946 404.811 -61.276 353.458 -95.7294C327.683 -113.027 301.746 -130.796 279.516 -151.4C267.952 -162.114 253.512 -175.662 251.284 -190.597C245.33 -230.549 334.737 -225.147 361.498 -226.664C413.236 -229.606 471.684 -231.839 518.623 -252.227C547.3 -264.69 561.423 -285.146 556.063 -312.033C553.687 -323.963 549.987 -334.097 556.063 -345.81C562.22 -357.677 575.046 -366.051 588.035 -372.328C625.36 -390.381 671.745 -396.153 713.769 -400.453C763.067 -405.462 812.736 -407.417 862.375 -406.304C905.85 -405.344 949.116 -416.143 991.565 -423.261C1047.8 -432.685 1105.05 -440.917 1162.6 -439.673C1208.04 -438.684 1253.85 -430.919 1292.7 -410.281C1332.18 -389.262 1355.91 -357.802 1377.31 -323.855C1409.66 -272.535 1449.98 -203.765 1520.95 -184.274C1531.27 -181.434 1540.89 -181.122 1551.54 -180.627C1556.71 -180.389 1563.39 -180.315 1565.95 -175.776C1572.12 -164.846 1549.31 -143.657 1542.94 -136.273C1522.62 -112.698 1500.6 -90.1851 1479.77 -66.9226C1460.33 -45.2053 1439.15 -22.5735 1427.07 2.87605C1407.85 43.4078 1469.3 67.1076 1467.58 105.731C1466.51 129.709 1439.23 146.904 1417.62 158.8C1391.02 173.427 1352.73 183.045 1339.41 209.738C1329.5 229.621 1345.06 241.192 1357.04 256.28C1377.35 281.843 1378.73 316.496 1376.62 346.086C1373.77 386.073 1362.64 426.65 1343.69 463.404C1335.1 480.066 1324.58 497.397 1309.1 510.338C1294.59 522.466 1280.86 525.574 1261.47 523.091C1202.12 515.479 1142.19 494.262 1085.27 475.311C1013.76 451.497 943.236 425.207 874.816 395.628C828.161 375.456 780.454 354.113 739.503 326.244C728.83 318.978 717.9 311.082 710.096 301.499C704.196 294.296 701.692 288.348 691.748 284.235C662.274 272.05 621.276 275.237 589.696 276.504C539.199 278.52 488.946 283.889 438.761 288.723C409.476 291.563 354.308 300.499 330.923 279.066C310.738 260.558 335.095 229.002 347.537 212.698C379.009 171.468 419.494 135.282 457.056 98.0219C474.27 80.9458 492.16 63.739 506.377 44.7541C510.009 39.9142 515.828 33.5007 516.827 27.6211C517.948 20.8838 512.716 15.7428 507.423 10.6586Z" stroke="black"/>
<path fill-rule="evenodd" clip-rule="evenodd" d="M511.13 20.2618C471.294 -16.2135 423.302 -46.1795 380.536 -80.3127C361.36 -95.6169 341.996 -111.672 327.385 -130.341C319.526 -140.381 311.181 -153.019 313.348 -165.498C319.567 -201.314 393.101 -198.079 422.809 -200.177C466.952 -203.258 517.665 -206.362 556.698 -225.674C582.267 -238.323 591.854 -257.005 587.081 -281.098C581.956 -306.942 593.414 -325.703 619.49 -340.12C652.182 -358.182 693.449 -365.544 731.408 -370.774C777.141 -377.045 823.453 -379.825 869.78 -379.08C914.835 -378.352 958.485 -384.708 1003.24 -388.841C1062.59 -394.316 1123.83 -397.016 1182.5 -385.794C1233.59 -376.021 1279.73 -354.486 1314.32 -321.183C1350.45 -286.425 1368.33 -242.633 1397.67 -204.179C1415.97 -180.194 1441.48 -148.465 1475.68 -139.142C1487.08 -136.032 1507.86 -140.228 1498.75 -124.929C1493.55 -116.18 1483.8 -108.505 1476.11 -101.353C1463.67 -89.7954 1450.82 -78.556 1438.18 -67.1574C1411.22 -42.8595 1382.36 -18.0442 1362.16 10.7279C1336.7 46.9532 1374.54 74.8328 1369.93 111.564C1367.45 131.331 1351.12 147.107 1333.85 159.5C1322.68 167.528 1310.45 174.481 1297.97 180.967C1284.93 187.744 1269.5 192.906 1258.13 201.667C1241.93 214.134 1248.96 228.892 1252 245.01C1257.35 273.334 1258.52 302.106 1255.5 330.672C1251.8 365.686 1243.12 401.701 1224.85 433.521C1217.74 445.908 1208.73 459.041 1195.35 467.347C1181.98 475.653 1168.14 475.084 1152.82 472.583C1107.36 465.192 1061.99 447.995 1018.87 431.696C964.893 411.292 911.979 388.489 861.448 362.548C826.568 344.64 791.573 325.294 762.392 301.013C753.905 293.947 745.83 286.38 739.301 277.932C734.818 272.139 732.414 264.663 725.919 260.308C705.596 246.715 664.794 250.774 640.96 251.564C593.394 253.139 546.577 260.626 499.071 262.446C473.144 263.441 432.538 265.942 413.498 247.357C395.592 229.887 411.81 202.372 422.512 185.538C443.544 152.44 471.8 122.951 497.126 92.1836C507.538 79.523 518.948 66.2768 525.693 51.8196C531.689 38.9373 521.338 29.6138 511.13 20.2618Z" stroke="black"/>
<path fill-rule="evenodd" clip-rule="evenodd" d="M520.927 20.8585C489.219 -11.2388 450.994 -39.7312 419.057 -72.3508C400.363 -91.4536 368.169 -123.568 382.626 -150.499C398.487 -180.093 453.774 -180.899 485.732 -183.283C523.768 -186.122 568.435 -189.999 600.987 -208.478C611.282 -214.319 620.052 -222.051 623.769 -232.236C627.75 -243.135 623.398 -252.672 622.832 -263.583C621.644 -286.473 637.876 -304.849 659.357 -317.469C689.715 -335.311 727.677 -343.747 763.534 -349.629C804.158 -356.262 845.457 -359.532 886.838 -359.393C926.385 -359.279 965.514 -360.017 1005.1 -360.869C1056.87 -362.004 1109.37 -360.171 1159.59 -348.595C1209.07 -337.185 1254.04 -315.8 1289.37 -284.344C1323.84 -253.649 1347.1 -216.13 1367.46 -177.913C1379.02 -156.222 1398.54 -123.806 1426.11 -112.85C1438.37 -107.973 1450.4 -108.308 1437.36 -95.6262C1420.95 -79.657 1398.83 -66.8442 1379.82 -53.1855C1352.39 -33.4753 1324.28 -13.379 1301.26 10.0553C1286.56 25.0197 1280.01 39.5413 1281.02 58.9166C1281.81 73.6766 1285.35 88.2833 1283.56 103.1C1279.36 137.877 1246.82 161.726 1218.05 183.934C1199.55 198.217 1182.65 209.111 1173.12 229.428C1161.85 253.442 1157.13 279.567 1149.6 304.5C1141.33 331.88 1131.77 360.361 1113.72 384.476C1097.65 405.947 1078.1 415.575 1048.85 409.79C1003.23 400.775 958.255 378.567 917.75 358.022C876.523 337.12 836.004 313.617 801.84 284.886C783.396 269.371 770.807 251.154 754.427 234.487C733.823 213.562 687.212 221.486 659.512 223.258C613.528 226.198 468.839 248.202 482.19 176.934C487.762 147.187 509.708 119.733 525.758 93.4833C532.41 82.5893 542.037 69.5154 543.541 57.0319C545.181 43.4357 530.46 30.5206 520.927 20.8585Z" stroke="black"/>
<path fill-rule="evenodd" clip-rule="evenodd" d="M537.669 23.584C513.438 -5.50264 484.44 -32.9819 463.648 -64.3973C450.161 -84.7426 436.916 -111.926 454.315 -133.453C473.953 -157.746 517.255 -163.409 549.073 -166.504C581.854 -169.691 620.989 -172.372 647.782 -190.792C656.306 -196.659 663.333 -204.571 664.642 -214.045C665.903 -223.133 662.342 -232.221 663.522 -241.473C666.166 -262.25 681.13 -279.369 700.424 -291.785C757.498 -328.517 842.443 -336.685 911.304 -337.645C945.772 -338.122 981.245 -335.617 1015.93 -333.822C1060.95 -331.494 1106.03 -326.495 1148.96 -314.448C1240.24 -288.843 1301.42 -232.056 1344.15 -161.393C1357.6 -139.15 1367.89 -115.085 1388.96 -97.21C1399.83 -87.9801 1397.45 -81.3517 1386.35 -72.9341C1368.98 -59.7795 1347.8 -49.7261 1328.53 -38.7469C1301.11 -23.133 1273.11 -7.2861 1248.87 11.4177C1232.16 24.3111 1220.29 36.7329 1216.69 56.0672C1214.12 69.8523 1214.72 83.8986 1213.18 97.7689C1210.24 124.118 1200.17 150.268 1182.35 172.124C1168.18 189.448 1151.32 205.192 1133.9 220.204C1111.25 239.749 1092.09 259.606 1074.88 282.802C1052.08 313.508 1020.03 370.147 966.307 355.158C907.056 338.618 851.52 296.593 813.505 255.874C800.739 242.202 790.259 225.435 773.042 215.354C747.267 200.285 721.115 200.813 690.457 200.876C644.558 200.961 544.682 209.35 543.603 151.461C543.178 128.525 554.967 106.84 560.611 84.779C566.977 60.0716 554.218 43.4068 537.669 23.584Z" stroke="black"/>
<path fill-rule="evenodd" clip-rule="evenodd" d="M555.716 26.1773C531.749 -11.732 478.004 -74.0251 518.881 -116.18C540.473 -138.458 578.665 -146.83 610.702 -151.819C636.484 -155.855 667.577 -157.37 687.057 -174.477C701.376 -187.055 695.02 -205.36 700.505 -221.105C707.314 -240.624 722.941 -256.596 742.145 -268.601C795.808 -302.151 870.423 -312.447 934.977 -314.638C1002.02 -316.908 1075.89 -306.289 1138.98 -285.861C1217.65 -260.382 1276.58 -212.137 1317.79 -151.041C1325.4 -139.763 1332.31 -128.19 1339.61 -116.776C1344.51 -109.119 1351.79 -101.712 1355.65 -93.6581C1362.09 -80.2289 1354.51 -69.2516 1342.35 -60.4994C1324.86 -47.8989 1303.37 -38.931 1283.43 -29.4749C1256.17 -16.5339 1228.29 -3.8255 1202.93 11.3575C1185.88 21.5742 1168.04 32.5798 1161.94 50.3056C1157.78 62.3953 1156.92 75.2001 1157.07 87.7212C1157.39 114.568 1155.72 136.279 1140.83 160.867C1116.34 201.234 1078.67 237.531 1038.88 267.733C1007.65 291.435 958.242 328.255 912.743 312.408C871.921 298.218 848.041 264.253 821.145 236.793C808.068 223.443 793.379 211.252 776.119 201.756C754.358 189.785 733.872 184.762 708.09 182.804C664.696 179.506 599.265 178.649 585.851 134.831C580.898 118.661 583.725 101.911 581.127 85.5303C577.733 63.871 567.808 45.2995 555.716 26.1773Z" stroke="black"/>
<path fill-rule="evenodd" clip-rule="evenodd" d="M580.638 27.5813C563.571 -13.8988 541.15 -66.1752 582.371 -103.041C602.338 -120.901 630.423 -130.884 657.604 -138.345C677.072 -143.692 707.983 -145.266 719.918 -161.705C728.684 -173.802 729.898 -190.491 737.828 -203.452C748.725 -221.271 765.232 -235.949 784.599 -247.438C835.051 -277.378 900.763 -288.947 960.69 -292.259C1090.9 -299.447 1223.39 -242.199 1293.07 -148.011C1313.84 -119.935 1340.66 -90.0519 1307.09 -61.3681C1270.43 -30.0761 1215.21 -15.416 1171.46 6.81851C1154.74 15.3077 1133.44 25.513 1124.12 40.8834C1118.51 50.1227 1118.12 61.7144 1117.87 71.8856C1117.19 97.7908 1114.64 121.088 1102.26 145.26C1083.15 182.615 1052.68 217.078 1018.15 245.307C988.033 269.922 945.086 298.85 901.35 281.105C867.816 267.467 846.548 238.522 820.493 217.186C791.497 193.423 755.637 177.41 716.257 169.586C677.949 161.994 635.932 156.875 615.743 124.622C608.818 113.559 601.582 99.2341 598.986 86.9889C594.795 66.7993 588.659 46.931 580.638 27.5813Z" stroke="black"/>
<path fill-rule="evenodd" clip-rule="evenodd" d="M608.426 27.8735C600.531 -14.0127 599.653 -57.6883 636.338 -90.7007C653.459 -106.102 675.101 -117.044 696.986 -126.957C713.088 -134.251 729.716 -140.404 741.741 -152.363C752.883 -163.435 761.352 -176.291 772.109 -187.653C786.299 -202.71 803.277 -215.745 822.392 -226.255C870.306 -252.553 928.592 -264.852 984.354 -269.119C1011.35 -271.192 1040.63 -272.272 1067.44 -266.619C1093.33 -261.165 1118.94 -252.542 1142.75 -242.486C1193.36 -221.131 1237.22 -189.857 1269.02 -150.317C1290.83 -123.196 1302.62 -96.8249 1274.38 -69.3117C1242.55 -38.299 1192.64 -21.1878 1151.5 -1.05994C1123.28 12.7449 1091.66 26.2771 1086.39 55.6139C1082.19 78.9572 1078.78 101.113 1067.93 123.178C1051.77 155.725 1028.01 185.207 998.053 209.876C970.661 232.35 936.008 251.422 896.827 239.418C865.784 229.89 841.699 208.547 814.577 193.288C784.351 176.245 751.142 166.848 716.172 159.292C684.744 152.475 655.152 141.999 634.84 119.758C630.683 115.213 626.316 110.265 623.111 105.181C619.021 98.693 619.339 92.2622 618.536 84.9905C616.444 65.8 611.996 46.831 608.426 27.8735Z" stroke="black"/>
<path fill-rule="evenodd" clip-rule="evenodd" d="M639.066 24.4498C639.74 -15.3358 651.106 -52.9365 682.236 -83.9422C695.544 -97.2059 711.436 -108.131 726.08 -120.285C737.871 -130.084 749.014 -139.188 762.572 -147.262C794.733 -166.381 820.871 -191.122 855.05 -208.147C900.675 -230.908 952.937 -243.489 1004.79 -248.519C1030.12 -250.977 1056.27 -251.836 1081.89 -249.059C1103.9 -246.675 1124.97 -238.305 1144.52 -229.741C1182.83 -212.967 1220.03 -189.125 1244.91 -158.961C1299.75 -92.4603 1191.62 -44.111 1136.12 -15.7968C1110.59 -2.77198 1071.59 12.3127 1061.14 38.1119C1053.66 56.5423 1049.11 75.2857 1039.49 93.1471C1013.63 141.115 961.146 197.533 891.204 190.022C861.276 186.813 833.998 173.777 806.059 165.025C777.29 156.012 747.597 150.988 717.696 145.474C689.75 140.324 667.477 132.995 649.427 113.347C640.799 103.964 641.562 92.7317 640.793 81.2205C639.538 62.3121 638.762 43.2956 639.066 24.4498Z" stroke="black"/>
<path fill-rule="evenodd" clip-rule="evenodd" d="M666.966 19.3538C678.202 -40.699 719.934 -106.26 781.297 -141.135C853.477 -182.16 931.674 -216.707 1017.91 -226.638C1057.9 -231.243 1101.7 -233.508 1139.42 -218.45C1168.14 -206.997 1201.49 -189.877 1217.29 -165.801C1255.95 -106.913 1169.96 -60.0333 1120.97 -32.7892C1094.59 -18.1224 1061.02 -3.83035 1041.14 17.5879C1029.6 30.0061 1023.71 46.4332 1014.4 60.0723C986.183 101.404 939.73 134.741 881.866 140.703C855.111 143.457 828.161 140.05 801.609 137.341C774.429 134.57 746.912 133.066 719.9 129.199C698.339 126.11 672.928 120.88 664.987 101.455C654.973 76.9763 662.38 43.878 666.966 19.3538Z" stroke="black"/>
<path fill-rule="evenodd" clip-rule="evenodd" d="M694.324 9.70684C710.712 -46.7529 745.414 -101.826 803.752 -135.531C834.688 -153.404 870.601 -165.742 905.08 -177.932C944.163 -191.747 984.997 -202.471 1026.7 -207.79C1078.63 -214.416 1162.73 -220.389 1189.86 -170.578C1216.79 -121.137 1148.75 -77.3781 1108.51 -52.4415C1082.71 -36.4668 1055.1 -21.8049 1030.45 -4.34133C1017.08 5.12641 1006.79 16.066 995.476 27.1705C964.215 57.9378 919.649 82.2948 874.225 95.2973C830.199 107.902 775.736 113.483 729.263 109.317C709.211 107.527 694.879 101.486 688.814 84.3122C680.411 60.4383 687.55 33.0295 694.324 9.70684Z" stroke="black"/>
<path fill-rule="evenodd" clip-rule="evenodd" d="M721.51 -5.49974C737.79 -55.2105 772.904 -100.614 824.124 -130.45C881.538 -163.896 955.469 -182.481 1023.42 -191.932C1059.54 -196.952 1137.81 -210.562 1156.22 -171.61C1174.63 -132.657 1121.41 -94.2705 1090.78 -73.1389C1053.6 -47.5309 1013.52 -22.8057 973.481 0.170838C938.697 20.1479 901.58 40.5721 863.903 55.9992C842.654 64.7509 820.518 71.8965 797.759 77.3515C780.906 81.3582 759.476 87.3344 741.807 84.3519C697.241 76.8195 713.724 18.269 721.51 -5.49974Z" stroke="black"/>
<path fill-rule="evenodd" clip-rule="evenodd" d="M755.067 -20.3858C790.787 -114.395 903.959 -160.63 1012.92 -176.745C1038.25 -180.486 1109.23 -193.974 1123.38 -165.256C1137.1 -137.413 1093.48 -104.393 1073.06 -88.7481C1009.78 -40.2706 931.598 -4.32687 857.516 31.2819C834.392 42.3966 792.687 66.5161 764.003 55.3901C732.86 43.2878 747.667 -0.892593 755.067 -20.3858Z" stroke="black"/>
<path fill-rule="evenodd" clip-rule="evenodd" d="M791.655 -38.4798C822.719 -107.71 913.071 -147.417 996.141 -160.506C1016.49 -163.709 1068.16 -173.681 1083.57 -154.362C1097.83 -136.491 1063.8 -110.595 1051.07 -100.305C1022.72 -77.3911 989.129 -58.5146 955.942 -40.3708C925.256 -23.5842 894.239 -6.3774 861.952 7.81965C844.945 15.293 813.05 31.2391 793.724 19.6998C772.918 7.28587 784.758 -23.1072 791.655 -38.4798Z" stroke="black"/>
<path fill-rule="evenodd" clip-rule="evenodd" d="M-207.146 77.7917C-208.002 33.4392 -235.996 -12.6556 -222.171 -57.8481C-210.818 -94.9646 -153.663 -98.0634 -119.375 -114.879C-92.1284 -128.239 -76.6656 -151.905 -61.9305 -174.612C-48.6911 -194.998 -36.7993 -215.996 -22.8524 -236.047C-13.824 -249.009 1.6792 -274.463 21.2587 -274.923C40.0027 -275.366 57.1903 -255.53 68.0782 -243.805C82.2744 -228.522 94.8602 -212.228 108.645 -196.7C131.877 -170.509 159.75 -151.122 191.666 -132.773C227.986 -111.896 264.906 -91.7316 302.425 -72.2804C330.05 -57.9162 357.862 -43.6599 384.415 -27.8768C401.071 -17.9734 437.831 0.607545 438 18.865C438.08 27.5766 428.277 37.2246 421.668 44.1882C410.483 55.9758 397.736 66.7532 384.948 77.298C361.13 96.9402 336.302 115.691 311.744 134.67C279.868 159.3 249.421 183.528 221.399 211.491C192.427 240.435 164.749 270.332 136.505 299.821C117.377 319.798 98.2694 342.233 70.679 354.491C36.1218 369.815 7.7565 353.657 -27.1914 353.47C-57.2546 353.305 -55.0379 294.645 -58.8582 278.334C-62.6918 261.825 -71.1408 246.456 -74.4153 229.907C-78.4983 209.249 -78.5522 188.114 -79.5561 167.235C-80.7756 141.696 -81.2607 117.383 -113.675 107.644C-132.123 102.11 -152.08 100.947 -171.174 97.6326C-183.544 95.4816 -206.876 91.8041 -207.146 77.7917Z" stroke="black"/>
<path fill-rule="evenodd" clip-rule="evenodd" d="M-192.366 69.9018C-195.518 32.7235 -214.135 -14.8621 -196.53 -53.2397C-181.489 -86.0358 -134.45 -90.2873 -102.776 -107.515C-76.628 -121.725 -64.988 -144.978 -51.9175 -167.821C-41.4314 -186.146 -31.2625 -204.647 -19.3593 -222.387C-10.5872 -235.46 2.80727 -257.53 21.0466 -260.236C37.4438 -262.668 55.0286 -243.184 64.2326 -233.271C77.6607 -218.8 89.1455 -203.084 101.008 -187.698C121.852 -160.671 143.195 -136.367 173.702 -116.513C204.344 -96.5738 237.867 -81.6649 271.748 -66.1478C298.253 -54.007 324.624 -41.5139 349.807 -27.4974C368.566 -17.0618 395.537 -3.70459 404.12 14.9045C410.915 29.6258 376.454 54.0551 366.292 62.6776C345.373 80.4057 323.207 97.0481 301 113.588C273.928 133.743 245.992 151.369 222.084 174.36C179.323 215.466 143.58 266.655 88.5584 297.206C55.3727 315.634 18.4419 320.346 -18.4686 317.589C-33.0844 316.498 -36.5932 299.122 -38.4354 288.987C-41.4989 272.152 -41.8835 255.026 -44.2385 238.122C-46.445 222.298 -51.3439 207.264 -55.2914 191.747C-59.2861 176.026 -60.4063 159.918 -63.3483 144.088C-65.1702 134.261 -66.9719 122.825 -74.941 114.924C-83.1869 106.745 -96.7905 103.317 -108.68 100.714C-131.009 95.8715 -190.14 96.1387 -192.366 69.9018Z" stroke="black"/>
<path fill-rule="evenodd" clip-rule="evenodd" d="M-173.344 54.3384C-178.644 20.2114 -186.064 -22.294 -164.473 -53.736C-146.826 -79.4447 -109.188 -84.9906 -82.3047 -101.742C-59.9448 -115.672 -51.4991 -137.827 -40.4002 -158.416C-31.2928 -175.303 -22.1382 -192.264 -11.1001 -208.335C-2.72861 -220.522 8.05978 -237.046 24.6812 -241.298C38.8924 -244.931 54.9467 -228.656 62.8253 -220.556C76.2399 -206.751 87.1768 -191.282 98.0395 -176.018C115.809 -151.042 132.16 -124.363 157.45 -104.047C182.024 -84.3321 211.216 -72.6954 240.955 -59.6111C263.734 -49.5865 286.37 -39.1758 307.832 -27.2212C324.312 -18.048 344.734 -7.17755 353.322 8.08647C360.748 21.2502 341.683 36.8321 332.157 46.1188C316.427 61.4453 298.968 75.5059 281.753 89.6233C263.173 104.853 242.596 118.903 224.617 134.507C186.811 167.345 156.606 203.703 110.009 228.861C79.8315 245.159 39.2232 259.963 3.54999 257.3C-22.1045 255.382 -20.4167 207.575 -22.8809 192.299C-26.9316 167.323 -34.7562 141.08 -47.1851 118.074C-57.8587 98.3594 -83.2229 92.2798 -106.555 87.8579C-121.171 85.0821 -136.49 83.5835 -150.627 79.2921C-166.992 74.3195 -171.123 68.6431 -173.344 54.3384Z" stroke="black"/>
<path fill-rule="evenodd" clip-rule="evenodd" d="M-155.601 38.3419C-158.756 9.48933 -158.047 -24.6294 -137.607 -49.5879C-119.695 -71.4494 -87.8021 -77.2051 -65.1192 -94.4267C-47.4161 -107.862 -40.4632 -129.769 -30.9427 -147.538C-19.3074 -169.262 -3.00294 -209.387 26.3491 -217.563C53.6537 -225.163 82.2084 -176.612 92.0938 -162.135C107.743 -139.22 120.831 -114.091 139.811 -92.9295C156.156 -74.7116 178.055 -64.6405 201.299 -53.8179C230.935 -39.9951 275.929 -23.6046 291.774 3.33511C303.585 23.409 265.179 53.2522 252.063 67.1604C238.347 81.6892 228.016 98.9108 213.86 112.927C191.522 135.045 155.325 152.853 125.439 166.442C96.3844 179.662 58.6538 194.293 25.6936 193.422C4.031 192.853 -0.0907097 164.683 -4.71243 150.923C-11.3342 131.361 -20.1384 113.832 -39.051 100.528C-58.3014 86.9838 -80.9911 80.6018 -104.843 75.0169C-117.087 72.1703 -131.053 69.95 -142.006 64.2C-154.108 57.9433 -154.385 49.4321 -155.601 38.3419Z" stroke="black"/>
<path fill-rule="evenodd" clip-rule="evenodd" d="M-133.982 21.7114C-133.807 -3.21517 -127.038 -29.7959 -106.968 -49.0233C-90.2515 -65.0386 -64.0861 -70.3921 -48.0837 -86.7643C-35.4084 -99.7261 -28.9563 -117.923 -20.4702 -132.975C-10.0916 -151.42 4.58397 -183.644 30.3925 -190.045C55.5814 -196.277 77.8608 -160.785 87.5188 -146.741C101.662 -126.148 113.112 -104.321 127.383 -83.7845C138.563 -67.6729 152.235 -57.2887 170.44 -46.9046C191.81 -34.7076 221.626 -21.1963 233.042 -1.01711C241.272 13.5932 221.35 36.9392 214.117 49.8103C209.267 58.4553 204.829 67.2362 202.391 76.6063C200.492 83.903 200.303 90.6558 194.801 96.9214C180.947 112.682 150.572 114.738 129.963 119.933C102.592 126.828 73.5504 134.662 44.9064 136.158C27.3011 137.093 18.3167 123.434 8.26804 113.826C-3.60577 102.468 -20.4163 94.2985 -35.0986 85.7272C-54.4752 74.397 -75.5625 67.3495 -97.3772 60.1322C-107.217 56.8747 -118.774 53.6796 -126.398 47.2044C-134.359 40.4912 -134.042 30.7076 -133.982 21.7114Z" stroke="black"/>
<path fill-rule="evenodd" clip-rule="evenodd" d="M-111.276 6.91358C-107.797 -14.0213 -96.9558 -34.0302 -78.6449 -48.8295C-64.6084 -60.1917 -45.9671 -66.5887 -34.7014 -80.2404C-24.2044 -92.9661 -16.8894 -107.436 -8.21939 -121.042C0.956291 -135.427 14.5883 -159.469 35.7511 -163.384C58.5588 -167.599 76.1281 -143.346 85.8566 -129.905C98.1471 -112.918 107.485 -94.642 118.474 -77.0704C126.753 -63.9734 137.313 -51.9953 149.803 -41.535C162.903 -30.5079 180.668 -19.9467 187.295 -4.78384C193.153 8.64632 182.191 24.8943 180.256 38.5119C178.187 53.0613 181.814 68.3435 170.339 80.8362C146.675 106.6 87.2859 101.822 53.3339 102.373C19.8335 102.941 -7.10024 87.1764 -34.2093 72.1782C-52.1157 62.276 -70.7637 53.8907 -89.1218 44.6646C-107.837 35.251 -114.336 25.3374 -111.276 6.91358Z" stroke="black"/>
<path fill-rule="evenodd" clip-rule="evenodd" d="M-90.1792 -5.0687C-79.8916 -35.3973 -47.7607 -51.5169 -24.7907 -74.4368C-5.9965 -93.2003 8.09579 -132.058 39.7478 -137.198C75.6834 -143.032 97.1963 -91.5457 109.69 -71.6791C123.553 -49.6462 148.243 -31.7242 158.51 -8.40064C163.907 3.84113 159.272 15.2641 156.399 27.5002C153.248 40.936 150.881 54.6731 140.006 65.4877C118.601 86.7701 76.7965 86.6223 46.6894 87.2079C15.5231 87.8163 -12.0476 73.2319 -36.8795 58.676C-63.2156 43.2615 -100.716 26.0332 -90.1792 -5.0687Z" stroke="black"/>
<path fill-rule="evenodd" clip-rule="evenodd" d="M-72.9486 -13.2929C-61.3564 -34.9012 -36.9965 -52.4681 -17.23 -69.0516C-0.731913 -82.8768 17.0165 -110.708 42.1714 -112.692C71.7362 -115.032 89.6545 -85.3128 101.287 -67.0903C112.737 -49.1842 129.235 -30.2777 135.575 -10.6251C142.186 9.84701 124.58 37.4183 107.79 51.9048C89.0633 68.0587 58.4249 74.0274 32.1353 73.383C4.60893 72.7274 -20.6479 59.3769 -41.4948 45.5291C-63.7822 30.7261 -86.4297 11.7914 -72.9486 -13.2929Z" stroke="black"/>
<path fill-rule="evenodd" clip-rule="evenodd" d="M-56.9603 -17.361C-45.8874 -35.3333 -26.6933 -50.5366 -8.99567 -64.098C4.66187 -74.5676 24.8149 -92.37 44.519 -92.806C66.1956 -93.2873 84.5666 -78.3444 93.1842 -63.0278C101.679 -47.9206 110.63 -28.9801 111.902 -12.4064C114.664 23.6853 58.4418 64.1144 16.2245 60.8246C-23.8027 57.7047 -79.0382 18.4477 -56.9603 -17.361Z" stroke="black"/>
<path fill-rule="evenodd" clip-rule="evenodd" d="M-42.1741 -19.3426C-26.8984 -42.7591 10.2067 -76.1424 44.5584 -76.9352C83.9884 -77.8413 93.8867 -40.6921 88.7472 -13.7702C83.5261 13.7066 38.066 53.4777 1.8176 48.1035C-33.5607 42.8596 -60.2779 8.42865 -42.1741 -19.3426Z" stroke="black"/>
<path fill-rule="evenodd" clip-rule="evenodd" d="M-26.5621 -23.1288C-13.6286 -42.735 13.9704 -67.2244 42.7556 -67.9656C77.0538 -68.8427 76.4068 -37.4784 68.6292 -17.9571C60.5416 2.31112 24.9224 36.9289 -5.10966 31.4629C-34.3127 26.1271 -38.9564 -4.33744 -26.5621 -23.1288Z" stroke="black"/>
<path fill-rule="evenodd" clip-rule="evenodd" d="M-12.9644 -25.3854C-4.42738 -39.3754 16.9387 -57.057 37.2504 -57.6228C62.0772 -58.3029 57.2511 -33.4262 50.8366 -21.4193C43.2121 -7.13224 17.6552 17.693 -3.79199 13.6698C-24.908 9.70937 -20.0075 -13.8586 -12.9644 -25.3854Z" stroke="black"/>
</g>
</svg>
