<svg width="135" height="41" viewBox="0 0 135 41" fill="none" xmlns="http://www.w3.org/2000/svg">
<path d="M124.249 0.30848H10.7566C10.3429 0.30848 9.9342 0.30848 9.5216 0.31048C9.17621 0.31248 8.83358 0.31829 8.48488 0.32318C7.72733 0.331081 6.97157 0.390156 6.22416 0.49989C5.4778 0.612012 4.75482 0.823395 4.07967 1.12689C3.40534 1.43295 2.7892 1.83065 2.25357 2.30555C1.71514 2.77912 1.26632 3.3265 0.924356 3.92664C0.581453 4.52559 0.343683 5.16742 0.219258 5.82996C0.0936495 6.49166 0.0260586 7.161 0.0170916 7.83196C0.00662229 8.13856 0.00551669 8.44618 0 8.75282V31.8671C0.00551669 32.1776 0.00662229 32.4784 0.0170916 32.789C0.0260614 33.4599 0.0936522 34.1292 0.219258 34.7909C0.343339 35.4538 0.581124 36.096 0.924356 36.6952C1.26616 37.2934 1.71505 37.8385 2.25357 38.3095C2.78717 38.7865 3.40371 39.1845 4.07967 39.4882C4.75481 39.7925 5.47772 40.0051 6.22416 40.119C6.9717 40.2278 7.72738 40.2869 8.48488 40.2958C8.83358 40.3026 9.17621 40.3065 9.5216 40.3065C9.93419 40.3085 10.343 40.3085 10.7566 40.3085H124.249C124.655 40.3085 125.067 40.3085 125.472 40.3065C125.816 40.3065 126.169 40.3026 126.512 40.2958C127.268 40.2874 128.023 40.2283 128.769 40.119C129.518 40.0043 130.243 39.7917 130.921 39.4882C131.597 39.1843 132.213 38.7863 132.746 38.3095C133.283 37.8367 133.733 37.2919 134.079 36.6952C134.42 36.0956 134.655 35.4534 134.777 34.7909C134.903 34.1291 134.973 33.46 134.987 32.789C134.991 32.4784 134.991 32.1776 134.991 31.8671C135 31.5038 135 31.1425 135 30.7733V9.84461C135 9.4784 135 9.11512 134.991 8.75282C134.991 8.44618 134.991 8.13856 134.987 7.83192C134.973 7.1609 134.903 6.49172 134.777 5.82992C134.655 5.16776 134.419 4.52598 134.079 3.9266C133.383 2.72368 132.278 1.7445 130.921 1.1268C130.243 0.824047 129.518 0.61272 128.769 0.4998C128.023 0.389582 127.269 0.330487 126.512 0.32304C126.169 0.31816 125.816 0.3123 125.472 0.31035C125.067 0.30835 124.655 0.30835 124.249 0.30835V0.30848Z" fill="#A6A6A6"/>
<path d="M9.43001 39.4365C9.08569 39.4365 8.74969 39.4326 8.40807 39.4258C7.70037 39.4176 6.99433 39.3631 6.29574 39.2626C5.64433 39.1633 5.0133 38.9786 4.42345 38.7146C3.839 38.4528 3.30594 38.1095 2.84469 37.6978C2.37676 37.291 1.98718 36.8192 1.6914 36.301C1.39236 35.7795 1.18541 35.2205 1.07775 34.6435C0.961494 34.0235 0.898592 33.3965 0.889592 32.7681C0.882427 32.5571 0.873047 31.8548 0.873047 31.8548V8.74939C0.873047 8.74939 0.883037 8.05784 0.889648 7.85466C0.898266 7.22721 0.960802 6.60125 1.07671 5.9822C1.18457 5.4036 1.39168 4.84298 1.69088 4.31975C1.98557 3.80196 2.37299 3.32978 2.8381 2.92151C3.30269 2.50937 3.83745 2.16428 4.42289 1.89883C5.01139 1.63566 5.64123 1.45226 6.29132 1.35477C6.99221 1.25332 7.7007 1.19847 8.41085 1.19068L9.43057 1.17847H125.57L126.602 1.19117C127.306 1.19857 128.008 1.25293 128.702 1.35379C129.359 1.4525 129.995 1.63718 130.59 1.90176C131.763 2.43672 132.718 3.28307 133.32 4.32219C133.614 4.84181 133.818 5.39786 133.924 5.97146C134.042 6.59559 134.107 7.22647 134.121 7.85906C134.124 8.14232 134.124 8.44659 134.124 8.74939C134.133 9.12447 134.133 9.48147 134.133 9.84141V30.7745C134.133 31.1378 134.133 31.4924 134.124 31.8499C134.124 32.1751 134.124 32.4731 134.12 32.7798C134.107 33.4011 134.042 34.0207 133.927 34.6337C133.821 35.2148 133.615 35.7782 133.316 36.304C133.018 36.8165 132.631 37.2843 132.169 37.69C131.707 38.1039 131.173 38.4492 130.587 38.7127C129.994 38.9788 129.358 39.1641 128.702 39.2626C128.004 39.3636 127.297 39.4181 126.59 39.4258C126.259 39.4326 125.912 39.4365 125.576 39.4365L124.35 39.4385L9.43001 39.4365Z" fill="black"/>
<path d="M32.7973 20.6092C32.8081 19.7745 33.0298 18.9561 33.4418 18.2302C33.8538 17.5042 34.4428 16.8943 35.1539 16.4571C34.7021 15.8119 34.1062 15.281 33.4134 14.9065C32.7205 14.5319 31.9499 14.3241 31.1627 14.2994C29.4835 14.1232 27.8555 15.3043 26.9998 15.3043C26.1275 15.3043 24.81 14.3169 23.3913 14.3461C22.4736 14.3758 21.5793 14.6426 20.7954 15.1207C20.0115 15.5987 19.3649 16.2717 18.9184 17.074C16.9844 20.4224 18.427 25.3435 20.2796 28.0501C21.2065 29.3754 22.2898 30.8559 23.7072 30.8034C25.0943 30.7458 25.6123 29.9189 27.2866 29.9189C28.9454 29.9189 29.4314 30.8034 30.8776 30.77C32.366 30.7458 33.3038 29.4387 34.1981 28.1008C34.8641 27.1565 35.3766 26.1128 35.7166 25.0083C34.8518 24.6426 34.1139 24.0304 33.5948 23.2481C33.0757 22.4658 32.7983 21.548 32.7973 20.6092Z" fill="white"/>
<path d="M30.0656 12.5194C30.8772 11.5452 31.277 10.293 31.1802 9.02881C29.9403 9.15903 28.7951 9.75159 27.9726 10.6884C27.5704 11.1461 27.2624 11.6785 27.0662 12.2553C26.87 12.8321 26.7893 13.4419 26.8289 14.0498C27.449 14.0562 28.0625 13.9218 28.6232 13.6567C29.1838 13.3916 29.6771 13.0028 30.0656 12.5194Z" fill="white"/>
<path d="M50.3308 27.4483H45.5974L44.4607 30.8047H42.4558L46.9392 18.3867H49.0222L53.5056 30.8047H51.4665L50.3308 27.4483ZM46.0876 25.8994H49.8396L47.99 20.4522H47.9383L46.0876 25.8994Z" fill="white"/>
<path d="M63.1883 26.2783C63.1883 29.0918 61.6824 30.8994 59.4099 30.8994C58.8343 30.9295 58.2618 30.7969 57.758 30.5168C57.2542 30.2366 56.8395 29.8203 56.5613 29.3154H56.5183V33.7998H54.6599V21.7509H56.4588V23.2568H56.493C56.7839 22.7543 57.2056 22.3401 57.7133 22.0583C58.2209 21.7765 58.7954 21.6375 59.3758 21.6562C61.6736 21.6562 63.1883 23.4726 63.1883 26.2783ZM61.2781 26.2783C61.2781 24.4453 60.3308 23.2402 58.8855 23.2402C57.4656 23.2402 56.5105 24.4707 56.5105 26.2783C56.5105 28.1025 57.4656 29.3242 58.8855 29.3242C60.3308 29.3242 61.2781 28.1279 61.2781 26.2783Z" fill="white"/>
<path d="M73.1531 26.2783C73.1531 29.0918 71.6472 30.8994 69.3748 30.8994C68.7991 30.9295 68.2266 30.7969 67.7228 30.5167C67.219 30.2366 66.8043 29.8203 66.5262 29.3154H66.4832V33.7998H64.6248V21.7509H66.4236V23.2568H66.4578C66.7487 22.7543 67.1704 22.3401 67.6781 22.0583C68.1857 21.7764 68.7603 21.6375 69.3406 21.6562C71.6385 21.6562 73.1531 23.4726 73.1531 26.2783ZM71.2429 26.2783C71.2429 24.4453 70.2957 23.2402 68.8504 23.2402C67.4304 23.2402 66.4754 24.4707 66.4754 26.2783C66.4754 28.1025 67.4304 29.3242 68.8504 29.3242C70.2957 29.3242 71.243 28.1279 71.243 26.2783H71.2429Z" fill="white"/>
<path d="M79.739 27.3448C79.8767 28.5762 81.073 29.3848 82.7078 29.3848C84.2742 29.3848 85.4012 28.5762 85.4012 27.4658C85.4012 26.502 84.7215 25.9248 83.1121 25.5293L81.5027 25.1416C79.2225 24.5908 78.1638 23.5244 78.1638 21.7939C78.1638 19.6514 80.031 18.1797 82.6824 18.1797C85.3064 18.1797 87.1053 19.6514 87.1658 21.7939H85.2898C85.1775 20.5547 84.1531 19.8066 82.656 19.8066C81.1589 19.8066 80.1345 20.5635 80.1345 21.665C80.1345 22.543 80.7888 23.0596 82.3894 23.455L83.7576 23.791C86.3054 24.3935 87.364 25.417 87.364 27.2334C87.364 29.5566 85.5134 31.0117 82.5701 31.0117C79.8162 31.0117 77.9568 29.5908 77.8367 27.3447L79.739 27.3448Z" fill="white"/>
<path d="M91.3747 19.6084V21.751H93.0964V23.2227H91.3747V28.2139C91.3747 28.9893 91.7195 29.3506 92.4763 29.3506C92.6807 29.347 92.8848 29.3327 93.0876 29.3076V30.7705C92.7474 30.8341 92.4015 30.8629 92.0554 30.8564C90.2224 30.8564 89.5076 30.1679 89.5076 28.4121V23.2227H88.1912V21.751H89.5075V19.6084H91.3747Z" fill="white"/>
<path d="M94.0935 26.2783C94.0935 23.4297 95.7712 21.6396 98.3875 21.6396C101.012 21.6396 102.682 23.4296 102.682 26.2783C102.682 29.1348 101.021 30.917 98.3875 30.917C95.7546 30.917 94.0935 29.1348 94.0935 26.2783ZM100.789 26.2783C100.789 24.3242 99.8933 23.1709 98.3874 23.1709C96.8816 23.1709 95.9871 24.333 95.9871 26.2783C95.9871 28.2402 96.8816 29.3848 98.3874 29.3848C99.8933 29.3848 100.789 28.2402 100.789 26.2783H100.789Z" fill="white"/>
<path d="M104.215 21.7511H105.987V23.2921H106.03C106.15 22.8108 106.432 22.3855 106.829 22.0876C107.225 21.7897 107.712 21.6374 108.208 21.6564C108.422 21.6556 108.636 21.6789 108.845 21.7257V23.464C108.574 23.3814 108.292 23.3434 108.01 23.3517C107.74 23.3407 107.47 23.3883 107.221 23.4912C106.971 23.5941 106.746 23.7498 106.562 23.9477C106.378 24.1456 106.239 24.381 106.155 24.6376C106.07 24.8943 106.042 25.1662 106.073 25.4347V30.8048H104.215L104.215 21.7511Z" fill="white"/>
<path d="M117.413 28.1455C117.163 29.7891 115.562 30.917 113.514 30.917C110.881 30.917 109.246 29.1523 109.246 26.3213C109.246 23.4814 110.889 21.6396 113.436 21.6396C115.941 21.6396 117.516 23.3603 117.516 26.1055V26.7422H111.122V26.8545C111.092 27.1877 111.134 27.5234 111.244 27.8392C111.354 28.155 111.531 28.4438 111.761 28.6864C111.991 28.9289 112.271 29.1197 112.58 29.246C112.89 29.3723 113.223 29.4312 113.557 29.4189C113.997 29.4601 114.437 29.3584 114.814 29.1289C115.191 28.8995 115.483 28.5546 115.648 28.1455L117.413 28.1455ZM111.131 25.4434H115.657C115.674 25.1438 115.628 24.844 115.524 24.5627C115.419 24.2815 115.257 24.025 115.049 23.8092C114.84 23.5935 114.589 23.4231 114.312 23.3089C114.034 23.1947 113.736 23.1391 113.436 23.1455C113.134 23.1437 112.834 23.2018 112.554 23.3166C112.274 23.4313 112.019 23.6004 111.805 23.814C111.59 24.0277 111.42 24.2816 111.305 24.5613C111.189 24.8409 111.13 25.1407 111.131 25.4434V25.4434Z" fill="white"/>
<path d="M45.8547 9.03949C46.2443 9.01153 46.6353 9.07039 46.9994 9.21182C47.3635 9.35325 47.6917 9.57373 47.9603 9.85736C48.2289 10.141 48.4312 10.4807 48.5526 10.852C48.674 11.2232 48.7115 11.6168 48.6623 12.0043C48.6623 13.9106 47.6321 15.0063 45.8547 15.0063H43.6995V9.03949H45.8547ZM44.6262 14.1625H45.7512C46.0296 14.1791 46.3082 14.1335 46.5668 14.0289C46.8253 13.9243 47.0573 13.7633 47.2458 13.5577C47.4343 13.3522 47.5745 13.1072 47.6564 12.8405C47.7383 12.5739 47.7596 12.2924 47.719 12.0165C47.7567 11.7417 47.7331 11.4619 47.65 11.1972C47.5669 10.9326 47.4263 10.6895 47.2382 10.4856C47.0501 10.2817 46.8193 10.1219 46.5622 10.0176C46.3051 9.91341 46.0282 9.86732 45.7512 9.8827H44.6262V14.1625Z" fill="white"/>
<path d="M49.7093 12.7529C49.681 12.457 49.7148 12.1584 49.8086 11.8763C49.9025 11.5943 50.0542 11.3349 50.2542 11.1149C50.4541 10.895 50.6978 10.7192 50.9697 10.5989C51.2415 10.4786 51.5355 10.4165 51.8328 10.4165C52.1301 10.4165 52.4241 10.4786 52.6959 10.5989C52.9678 10.7192 53.2115 10.895 53.4114 11.1149C53.6114 11.3349 53.7631 11.5943 53.857 11.8763C53.9508 12.1584 53.9846 12.457 53.9563 12.7529C53.9852 13.0491 53.9517 13.3481 53.8581 13.6306C53.7645 13.9131 53.6129 14.173 53.4129 14.3934C53.2129 14.6138 52.969 14.7899 52.6969 14.9105C52.4248 15.031 52.1304 15.0933 51.8328 15.0933C51.5352 15.0933 51.2408 15.031 50.9687 14.9105C50.6966 14.7899 50.4527 14.6138 50.2527 14.3934C50.0527 14.173 49.9011 13.9131 49.8075 13.6306C49.7139 13.3481 49.6804 13.0491 49.7093 12.7529ZM53.0423 12.7529C53.0423 11.7768 52.6038 11.206 51.8343 11.206C51.0618 11.206 50.6273 11.7768 50.6273 12.7529C50.6273 13.7368 51.0618 14.3032 51.8343 14.3032C52.6038 14.3032 53.0423 13.7329 53.0423 12.7529H53.0423Z" fill="white"/>
<path d="M59.6018 15.0063H58.6799L57.7493 11.6899H57.679L56.7522 15.0063H55.8391L54.5979 10.5034H55.4993L56.3059 13.9394H56.3723L57.2981 10.5034H58.1506L59.0764 13.9394H59.1467L59.9495 10.5034H60.8381L59.6018 15.0063Z" fill="white"/>
<path d="M61.8821 10.5035H62.7375V11.2188H62.804C62.9166 10.9619 63.1066 10.7465 63.3475 10.6027C63.5884 10.4589 63.8681 10.3938 64.1477 10.4165C64.3668 10.4001 64.5868 10.4331 64.7914 10.5132C64.996 10.5933 65.18 10.7184 65.3296 10.8792C65.4793 11.0401 65.5909 11.2325 65.6561 11.4424C65.7213 11.6522 65.7385 11.874 65.7063 12.0913V15.0063H64.8176V12.3145C64.8176 11.5909 64.5032 11.231 63.846 11.231C63.6972 11.2241 63.5487 11.2494 63.4106 11.3052C63.2726 11.3611 63.1482 11.4461 63.0461 11.5545C62.944 11.6628 62.8665 11.792 62.819 11.9332C62.7714 12.0743 62.755 12.224 62.7707 12.3721V15.0064H61.8821L61.8821 10.5035Z" fill="white"/>
<path d="M67.1223 8.74561H68.011V15.0063H67.1223V8.74561Z" fill="white"/>
<path d="M69.2463 12.753C69.2181 12.457 69.2519 12.1584 69.3458 11.8764C69.4397 11.5943 69.5914 11.3349 69.7914 11.1149C69.9914 10.895 70.2351 10.7192 70.507 10.5989C70.7788 10.4786 71.0728 10.4165 71.3701 10.4165C71.6674 10.4165 71.9614 10.4786 72.2333 10.5989C72.5052 10.7192 72.7489 10.895 72.9489 11.1149C73.1488 11.3349 73.3006 11.5943 73.3945 11.8764C73.4883 12.1584 73.5222 12.457 73.4939 12.753C73.5227 13.0492 73.4892 13.3482 73.3956 13.6307C73.302 13.9132 73.1503 14.173 72.9503 14.3935C72.7503 14.6139 72.5064 14.79 72.2342 14.9105C71.9621 15.031 71.6678 15.0933 71.3701 15.0933C71.0725 15.0933 70.7782 15.031 70.506 14.9105C70.2339 14.79 69.99 14.6139 69.79 14.3935C69.59 14.173 69.4383 13.9132 69.3446 13.6307C69.251 13.3482 69.2175 13.0492 69.2463 12.753ZM72.5793 12.753C72.5793 11.7769 72.1409 11.2061 71.3713 11.2061C70.5989 11.2061 70.1644 11.7769 70.1644 12.753C70.1644 13.7369 70.5989 14.3033 71.3713 14.3033C72.1409 14.3033 72.5794 13.7329 72.5794 12.753H72.5793Z" fill="white"/>
<path d="M74.4294 13.7329C74.4294 12.9224 75.033 12.4551 76.1042 12.3887L77.324 12.3184V11.9297C77.324 11.4541 77.0095 11.1855 76.4021 11.1855C75.906 11.1855 75.5623 11.3677 75.4636 11.686H74.6033C74.6941 10.9126 75.4216 10.4165 76.4431 10.4165C77.572 10.4165 78.2087 10.9785 78.2087 11.9297V15.0063H77.3533V14.3735H77.283C77.1402 14.6005 76.9398 14.7856 76.7022 14.9098C76.4646 15.034 76.1983 15.0929 75.9304 15.0805C75.7414 15.1002 75.5503 15.08 75.3696 15.0213C75.1888 14.9626 75.0224 14.8667 74.8809 14.7397C74.7395 14.6128 74.6263 14.4576 74.5485 14.2842C74.4708 14.1107 74.4302 13.923 74.4294 13.7329ZM77.324 13.3481V12.9717L76.2244 13.042C75.6042 13.0835 75.323 13.2944 75.323 13.6914C75.323 14.0967 75.6745 14.3325 76.158 14.3325C76.2996 14.3468 76.4427 14.3325 76.5787 14.2905C76.7147 14.2484 76.8409 14.1793 76.9497 14.0875C77.0584 13.9957 77.1476 13.8829 77.212 13.7559C77.2763 13.6288 77.3144 13.4902 77.324 13.3481Z" fill="white"/>
<path d="M79.3767 12.7529C79.3767 11.3301 80.1082 10.4287 81.2458 10.4287C81.5273 10.4158 81.8066 10.4832 82.0511 10.6231C82.2956 10.763 82.4953 10.9696 82.6267 11.2187H82.6931V8.74561H83.5818V15.0063H82.7302V14.2949H82.6599C82.5183 14.5424 82.3117 14.7464 82.0624 14.8849C81.8132 15.0234 81.5308 15.0911 81.2459 15.0806C80.1003 15.0806 79.3767 14.1792 79.3767 12.7529ZM80.2947 12.7529C80.2947 13.708 80.7449 14.2827 81.4978 14.2827C82.2468 14.2827 82.7097 13.6997 82.7097 12.7569C82.7097 11.8184 82.242 11.2271 81.4978 11.2271C80.7498 11.2271 80.2947 11.8057 80.2947 12.7529H80.2947Z" fill="white"/>
<path d="M87.2586 12.7529C87.2303 12.457 87.2641 12.1584 87.358 11.8763C87.4518 11.5943 87.6036 11.3349 87.8035 11.1149C88.0034 10.895 88.2472 10.7192 88.519 10.5989C88.7909 10.4786 89.0848 10.4165 89.3821 10.4165C89.6794 10.4165 89.9734 10.4786 90.2452 10.5989C90.5171 10.7192 90.7608 10.895 90.9607 11.1149C91.1607 11.3349 91.3124 11.5943 91.4063 11.8763C91.5001 12.1584 91.534 12.457 91.5057 12.7529C91.5345 13.0491 91.501 13.3481 91.4075 13.6306C91.3139 13.9131 91.1622 14.173 90.9622 14.3934C90.7622 14.6138 90.5183 14.7899 90.2462 14.9105C89.9741 15.031 89.6797 15.0933 89.3821 15.0933C89.0845 15.0933 88.7902 15.031 88.518 14.9105C88.2459 14.7899 88.002 14.6138 87.802 14.3934C87.602 14.173 87.4504 13.9131 87.3568 13.6306C87.2632 13.3481 87.2297 13.0491 87.2586 12.7529ZM90.5916 12.7529C90.5916 11.7768 90.1531 11.206 89.3836 11.206C88.6111 11.206 88.1766 11.7768 88.1766 12.7529C88.1766 13.7368 88.6112 14.3032 89.3836 14.3032C90.1531 14.3032 90.5916 13.7329 90.5916 12.7529Z" fill="white"/>
<path d="M92.698 10.5035H93.5535V11.2188H93.6199C93.7325 10.9619 93.9225 10.7465 94.1634 10.6027C94.4043 10.4589 94.684 10.3938 94.9636 10.4165C95.1827 10.4001 95.4027 10.4331 95.6073 10.5132C95.8119 10.5933 95.9959 10.7184 96.1456 10.8792C96.2952 11.0401 96.4068 11.2325 96.472 11.4424C96.5372 11.6522 96.5544 11.874 96.5222 12.0913V15.0063H95.6336V12.3145C95.6336 11.5909 95.3191 11.231 94.6619 11.231C94.5131 11.2241 94.3646 11.2494 94.2266 11.3052C94.0885 11.3611 93.9641 11.4461 93.862 11.5545C93.7599 11.6628 93.6824 11.792 93.6349 11.9332C93.5874 12.0743 93.5709 12.224 93.5867 12.3721V15.0064H92.698V10.5035Z" fill="white"/>
<path d="M101.544 9.38232V10.5239H102.519V11.2725H101.544V13.5879C101.544 14.0596 101.738 14.2661 102.18 14.2661C102.294 14.2658 102.407 14.2589 102.519 14.2456V14.9858C102.36 15.0144 102.198 15.0296 102.036 15.0312C101.048 15.0312 100.654 14.6836 100.654 13.8154V11.2724H99.9392V10.5239H100.654V9.38232H101.544Z" fill="white"/>
<path d="M103.733 8.74561H104.614V11.2271H104.684C104.802 10.9677 104.998 10.7511 105.243 10.6068C105.489 10.4624 105.773 10.3974 106.057 10.4204C106.275 10.4086 106.493 10.4449 106.695 10.527C106.898 10.609 107.079 10.7347 107.228 10.895C107.376 11.0554 107.487 11.2464 107.552 11.4546C107.618 11.6627 107.637 11.8828 107.608 12.0991V15.0064H106.719V12.3184C106.719 11.5991 106.384 11.2349 105.756 11.2349C105.603 11.2223 105.449 11.2433 105.306 11.2964C105.162 11.3494 105.031 11.4333 104.923 11.542C104.815 11.6507 104.732 11.7818 104.68 11.9259C104.628 12.07 104.608 12.2238 104.622 12.3765V15.0063H103.733L103.733 8.74561Z" fill="white"/>
<path d="M112.79 13.7906C112.669 14.2021 112.407 14.5581 112.051 14.7963C111.694 15.0344 111.265 15.1396 110.839 15.0933C110.542 15.1012 110.247 15.0443 109.975 14.9268C109.702 14.8093 109.458 14.6339 109.26 14.4127C109.063 14.1916 108.915 13.93 108.828 13.6462C108.742 13.3624 108.718 13.0631 108.758 12.7691C108.719 12.4742 108.743 12.1743 108.83 11.8896C108.916 11.605 109.063 11.3422 109.26 11.1191C109.457 10.896 109.699 10.7179 109.971 10.5967C110.243 10.4755 110.537 10.414 110.835 10.4166C112.088 10.4166 112.843 11.2726 112.843 12.6866V12.9967H109.664V13.0465C109.65 13.2117 109.671 13.378 109.725 13.5348C109.779 13.6915 109.865 13.8353 109.978 13.9567C110.091 14.0782 110.228 14.1747 110.38 14.2401C110.533 14.3055 110.697 14.3383 110.863 14.3365C111.076 14.362 111.291 14.3237 111.482 14.2265C111.672 14.1293 111.83 13.9776 111.934 13.7906L112.79 13.7906ZM109.664 12.3394H111.938C111.949 12.1883 111.929 12.0365 111.878 11.8938C111.827 11.7511 111.747 11.6206 111.642 11.5107C111.538 11.4009 111.412 11.3141 111.272 11.2559C111.132 11.1977 110.981 11.1695 110.83 11.1729C110.676 11.171 110.523 11.1999 110.381 11.2578C110.239 11.3157 110.109 11.4016 110.001 11.5103C109.892 11.619 109.806 11.7484 109.748 11.8908C109.691 12.0332 109.662 12.1857 109.664 12.3394H109.664Z" fill="white"/>
</svg>
