<svg width="428" height="903" viewBox="0 0 428 903" fill="none" xmlns="http://www.w3.org/2000/svg">
<path opacity="0.9" fill-rule="evenodd" clip-rule="evenodd" d="M371.588 -110.523L374.505 -109.741C404.669 -101.374 432.811 -87.58 458.541 -69.0306C485.455 -49.5954 507.765 -25.7086 524.818 1.88646C563.796 64.3519 573.096 141.038 551.453 223.931C506.437 397.222 598.757 560.971 673.211 693.032L673.884 694.226C707.719 753.608 739.542 809.892 753.651 858.018C769.47 911.435 762.684 950.552 731.996 981.274C699.82 1013.3 655.965 1034.81 600.91 1045.07C557.142 1053.53 506.502 1054.74 450.052 1049C359.068 1039.7 282.826 1014.45 274.189 1011.59C273.711 1011.43 273.441 1011.34 273.385 1011.33C223.055 990.165 179.011 963.581 142.701 932.532C108.688 903.519 80.2172 869.738 58.4718 832.073C57.1127 829.719 55.7537 827.365 54.6599 825.082C96.6822 900.586 166.062 965.228 273.598 1010.53C273.674 1010.55 274.005 1010.66 274.579 1010.85C284.053 1013.94 359.792 1038.7 450 1048.13C538.495 1057.35 659.056 1052.98 731.607 980.601C761.889 950.338 768.94 911.293 753.05 858.141C738.675 809.944 707.118 753.731 673.548 694.42C635.901 628.047 593.543 552.737 566.629 473.89C537.391 387.909 531.301 309.918 547.971 235.94C505.78 402.025 594.483 559.026 665.92 685.469L666.165 685.903C667.145 687.648 668.124 689.39 669.101 691.128L669.101 691.129L669.101 691.129C700.163 746.411 729.452 798.539 742.774 843.448C757.693 894.919 750.997 932.638 721.796 962.053C690.842 992.703 648.598 1013.51 595.949 1023.28C553.72 1031.29 505.079 1032.47 450.821 1027.03C362.99 1017.87 289.047 993.546 281.712 991.134C281.357 991.017 281.158 990.951 281.121 990.941C232.842 970.614 190.512 945.058 155.581 915.231C122.946 887.441 95.5878 854.81 74.5481 818.756C67.1702 805.977 60.4649 792.809 54.5032 778.988C92.4088 865.613 162.555 940.126 281.335 990.146C281.411 990.166 281.739 990.273 282.307 990.458C291.546 993.471 364.265 1017.18 450.769 1026.16C535.675 1034.99 651.637 1030.81 721.142 961.309C750.272 932.16 756.897 894.705 741.836 843.765C728.096 797.443 697.632 743.514 665.422 686.557C629.328 622.875 588.452 550.52 562.755 474.557C536.049 395.611 529.363 323.66 542.699 255.542C507.702 411.571 591.04 558.939 658.375 677.847C689.421 732.786 718.525 784.361 731.896 828.879C746.517 878.28 740.247 914.408 712.003 942.373C682.465 971.982 641.902 991.814 591.324 1001.29C550.899 1008.93 503.992 1010.01 452.263 1004.68C367.916 995.894 297.243 972.698 290.115 970.359C289.764 970.244 289.567 970.179 289.53 970.169C273.335 963.312 257.887 955.885 243.2 947.894C257.632 955.665 272.833 962.928 288.805 969.691C288.931 969.724 289.379 969.865 290.135 970.104C294.181 971.378 307.034 975.428 326.254 980.578C356.224 988.608 401.473 999.027 451.539 1004.2C532.854 1012.63 643.952 1008.57 710.677 942.018C738.656 913.981 744.854 878.118 730.356 829.319C717.663 786.27 689.711 736.465 659.998 683.522L659.998 683.522L659.998 683.521L659.886 683.321C658.959 681.67 658.031 680.016 657.101 678.358L655.026 674.672C621.069 614.336 582.935 546.58 558.616 475.154C532.601 398.469 526.543 329.035 539.74 262.962C504.686 413.299 585.026 555.491 649.983 669.913C650.949 671.637 651.914 673.358 652.877 675.076C681.24 725.678 708.018 773.453 720.08 814.626C734.138 861.886 728.03 896.352 700.865 923.469C672.549 951.7 633.597 970.827 585.088 980.002C546.468 987.278 501.488 988.587 451.758 983.221C370.539 974.825 302.317 952.112 296.467 950.164L296.467 950.164L296.456 950.16C296.319 950.114 296.217 950.08 296.151 950.059L296.097 950.041C296.08 950.036 296.068 950.032 296.063 950.031C210.289 913.687 146.378 860.46 106.435 792.051C72.1925 733.128 54.5566 661.031 54.1615 577.634C53.2659 425.026 108.557 262.174 148.991 143.097C149.62 141.22 150.246 139.351 150.871 137.489L151.573 135.393L152.788 131.77C161.335 106.288 169.331 82.4478 175.602 61.8197C189.346 16.8923 218.145 -16.3257 258.935 -33.8229C295.495 -49.3266 339.291 -51.5206 382.788 -39.8658L385.44 -39.1552C440.127 -23.6489 488.547 12.0667 517.922 59.4509C549.276 109.863 558.952 170.553 545.974 236.296C583.947 74.0949 488.12 -31.8488 381.293 -61.8705L378.641 -62.5812C316.728 -79.1705 243.883 -69.9971 198.219 -20.1149C212.562 -36.0457 230.183 -48.6033 250.739 -57.3391C287.778 -73.5674 333.501 -75.5291 379.119 -63.3058L382.037 -62.524C439.376 -46.3071 489.899 -8.89101 520.509 40.2458C553.602 93.2814 563.315 157.353 549.489 226.453C589.722 56.7826 489.611 -53.9045 377.89 -85.2401L375.237 -85.9508C289.571 -108.905 183.525 -84.446 150.797 23.9034C143.873 46.9059 134.817 73.6379 125.179 102.091L125.177 102.097C124.014 105.529 122.843 108.986 121.666 112.465C79.5832 236.288 24.5176 399.215 18.4199 554.869C24.2431 398.834 79.3721 235.818 120.419 114.442L120.419 114.442L121.136 112.323C122.311 108.849 123.48 105.397 124.641 101.97L124.645 101.959C134.285 73.5023 143.341 46.7666 150.267 23.7612C165.148 -25.4097 196.391 -61.384 240.932 -80.1503C280.254 -97.4724 327.782 -99.8035 375.257 -87.0827L378.174 -86.301C437.901 -69.4444 490.526 -30.3278 522.567 20.8977C558.227 78.216 568 148.029 551.017 223.425C597.923 42.3903 492.412 -75.875 374.292 -108.945L371.375 -109.727C282.26 -133.605 171.932 -108.019 137.731 4.76785C129.687 31.6077 118.895 63.3969 107.34 96.9715L106.907 98.2535C64.5577 223.457 9.39995 386.528 0.379811 543.893C9.13341 385.714 64.3251 221.996 105.817 98.9167L106.545 96.7583C107.442 94.0839 108.336 91.4211 109.226 88.7716C109.872 86.8498 110.516 84.935 111.157 83.0278L111.159 83.0191C120.75 54.4819 129.767 27.6498 136.936 4.55467C152.314 -46.4729 185.045 -83.7543 231.338 -103.757C272.465 -121.448 322.257 -123.741 371.588 -110.523ZM17.8901 588.674C17.7922 577.456 17.9767 566.181 18.4199 554.869C18.0369 565.131 17.8672 575.363 17.9288 585.55C17.9112 586.59 17.8983 587.632 17.8901 588.674ZM18.3954 609.27C18.1168 602.428 17.9502 595.561 17.8901 588.674C17.8358 595.57 17.9887 602.493 18.3954 609.27ZM163.403 42.6322C171.188 16.9856 183.241 -3.75421 198.219 -20.1149C182.792 -2.9801 171.156 18.0569 163.74 42.438C156.264 67.1561 146.448 96.3641 135.869 127.358C93.748 251.667 36.2017 421.876 36.983 581.276C37.515 668.404 55.7663 743.509 91.5618 805.122C125.66 863.865 176.618 911.67 243.2 947.894C105.614 873.818 37.8552 753.63 36.7178 581.204C35.8654 422.07 93.4117 251.862 135.533 127.552C146.111 96.5582 155.927 67.3503 163.403 42.6322ZM452.043 982.16C404.17 977.292 360.777 967.371 332.133 959.696C318.131 955.944 307.655 952.665 301.879 950.858L301.879 950.858L301.878 950.858C298.683 949.858 296.927 949.308 296.807 949.377C135.441 881.124 56.5605 759.641 55.5587 577.725C54.8573 425.453 109.883 262.529 150.318 143.452C151.258 140.648 152.196 137.856 153.128 135.079L153.197 134.873C162.041 108.534 170.438 83.5259 176.928 62.175C206.974 -37.2278 304.263 -59.7694 382.769 -38.7339L385.156 -38.0943C485.968 -9.70574 576.238 88.8475 544.365 240.04C554.554 180.229 544.879 124.877 516.201 78.6043C487.92 33.5029 441.745 -1.04261 389.373 -15.6441L386.721 -16.3548C345.081 -27.5121 303.019 -25.422 268.865 -10.4108C229.756 6.11574 202.25 37.6903 189.269 80.8322C183.278 100.43 175.634 123.005 167.446 147.187L167.446 147.189C166.193 150.889 164.928 154.626 163.653 158.396L163.259 159.563C124.881 273.11 72.4026 428.377 73.1446 573.624C73.2157 583.126 73.5177 592.479 74.0505 601.678C81.538 743.155 142.27 843.706 258.578 907.366C273.024 915.372 288.302 922.762 304.401 929.523C304.44 929.534 304.64 929.6 304.996 929.717C311.864 931.982 376.585 953.324 453.394 961.202C500.931 966.264 543.576 965.183 580.728 958.082C627.096 949.47 664.102 931.243 691.266 904.125C716.944 878.315 722.962 845.246 709.468 800.127C697.564 760.031 671.398 713.637 643.587 664.327L643.587 664.327L642.193 661.855C581.589 555.021 506.984 423.218 534.8 283.309C524.717 343.312 531.278 406.666 554.741 475.821C578.411 545.556 615.793 611.857 648.974 670.495L650.334 672.904L650.334 672.904C679.513 724.585 706.862 773.023 719.142 814.943C733.006 861.867 726.969 896.067 700.212 922.726C636.532 986.395 530.033 990.266 452.043 982.16ZM303.676 929.045C287.812 922.364 272.78 915.14 258.578 907.366C199.194 874.458 153.848 831.147 123.183 778.345C94.4026 728.836 77.9734 669.416 74.0505 601.678C73.575 592.693 73.3142 583.542 73.2676 574.226C72.4547 429.243 124.933 273.978 163.311 160.431L163.705 159.263C173.573 130.922 182.485 104.03 189.392 81.4336C217.965 -13.5314 310.972 -34.9461 386.03 -14.8344L388.416 -14.1948C484.532 12.6583 570.619 106.673 540.626 250.727C550.151 193.947 541.094 141.299 513.684 97.5443C486.834 54.5319 442.761 21.6868 392.777 7.72491L390.39 7.08532C350.606 -3.57457 310.808 -1.44644 277.203 12.575C239.97 28.4669 213.686 58.6635 201.274 99.6834C194.579 121.484 186.095 146.785 176.847 173.871L176.844 173.88C140.119 282.295 89.8005 430.84 90.6594 569.789C91.3108 645.864 107.256 711.538 138.392 765.08C174.77 827.701 232.832 876.234 311.27 909.191C311.291 909.196 311.359 909.218 311.471 909.255C311.567 909.286 311.696 909.329 311.858 909.382C318.508 911.57 379.965 931.79 453.297 939.287C498.376 943.975 539.287 942.998 574.634 936.266C618.668 927.881 653.992 910.625 679.934 884.886C704.726 860.259 710.052 828.711 697.458 785.539C686.184 747.306 661.363 703.246 634.904 656.279L634.903 656.278L633.536 653.85L633.375 653.566L633.375 653.566C575.861 551.712 504.95 426.132 531.342 292.955C521.853 350.132 528.262 410.648 550.531 476.683C572.924 542.881 608.538 605.878 640.031 661.586L640.582 662.561C668.981 712.526 695.49 759.996 707.663 800.497C720.963 845.279 715.352 877.888 689.746 903.434C628.847 964.153 527.212 967.905 452.812 960.193C407.203 955.363 365.667 945.939 338.349 938.62C328.478 935.975 320.406 933.618 314.534 931.903C308.099 930.024 304.305 928.916 303.676 929.045ZM344.229 917.738C370.485 924.773 409.899 933.629 453.581 938.226C524.657 945.616 621.427 941.982 679.617 883.948C704.001 859.781 709.257 828.498 696.785 785.927C685.247 747.302 659.831 702.115 632.792 654.504L632.216 653.483C602.279 600.472 568.234 540.186 546.993 477.156C523.603 408.013 518.726 345.609 531.918 286.223C531.908 286.263 531.897 286.304 531.887 286.344C497.485 418.977 568.437 544.589 625.551 645.457L626.927 647.903C652.028 692.516 675.676 734.547 686.315 770.898C698.346 811.93 693.18 841.815 669.805 865.4C614.254 921.014 521.817 924.388 453.801 917.25C383.645 910.144 324.672 890.428 319.219 888.605C318.972 888.522 318.835 888.477 318.812 888.47C244.21 857.11 188.904 811.021 154.539 751.498C125.028 700.381 109.626 637.979 109.377 565.708C108.669 433.618 156.47 292.353 191.509 189.171C192.802 185.299 194.085 181.463 195.354 177.671L195.358 177.66C202.554 156.152 209.287 136.028 214.675 118.625C226.59 79.462 251.581 50.909 286.938 35.6515C318.331 22.4587 356.396 20.4348 394.058 30.5262L396.445 31.1658C444.042 44.488 486.012 75.6325 511.432 116.556C539.67 161.791 547.456 216.827 534.315 276.232C534.341 276.131 534.367 276.03 534.394 275.929C572.206 130.566 487.351 35.6247 392.757 8.85699L390.37 8.2174C318.761 -10.9704 230.301 9.38847 202.936 99.8446C196.313 121.38 187.757 146.946 178.509 174.032L178.506 174.041C141.782 282.456 91.4629 431.001 92.1277 569.614C93.2019 735.346 165.002 846.12 311.819 908.201C311.894 908.221 312.203 908.321 312.733 908.492C315.957 909.533 327.373 913.221 344.229 917.738ZM454.35 916.26C412.861 911.965 375.375 903.342 350.444 896.662C339.229 893.657 330.63 891.05 325.382 889.459L325.381 889.459C321.817 888.379 319.799 887.767 319.555 887.817C179.88 828.787 111.717 723.536 110.703 566.064C109.995 433.973 157.725 292.973 192.764 189.791C194.035 185.985 195.297 182.214 196.545 178.484L196.607 178.297C203.806 156.782 210.541 136.653 215.93 119.246C242.087 33.2987 326.071 13.7304 394.233 31.9943L396.355 32.5629C485.359 57.5341 564.858 145.897 532.339 281.123C542.83 227.149 534.795 177.139 509.11 135.833C485.049 97.2631 445.253 67.5539 400.042 54.8712L397.921 54.3026C362.116 44.7088 325.855 46.3635 296.144 58.5854C262.397 73.1373 238.893 100.383 227.547 137.425C222.213 155.375 215.075 176.46 207.572 198.622L207.521 198.773L206.613 201.456L205.641 204.328L204.96 206.344C172.002 303.922 127.013 437.117 127.83 561.556C128.207 630.166 142.463 689.418 170.686 737.916C203.304 794.413 255.782 838.322 326.548 868.086C326.559 868.089 326.593 868.1 326.649 868.118C326.715 868.14 326.81 868.171 326.935 868.213L326.94 868.214L326.941 868.214C332.146 869.929 387.932 888.302 454.57 895.283C518.731 901.957 606.569 898.772 659.34 846.109C681.493 823.902 686.568 795.414 675.101 756.523C665.306 722.773 643.492 683.968 620.296 642.705L620.291 642.695C619.338 640.999 618.382 639.299 617.424 637.595C564.296 543.662 498.342 426.762 527.196 303.288C516.621 357.593 521.859 414.979 543.118 477.824C563.616 538.18 595.949 595.738 624.736 646.376C677.773 740.183 719.621 814.219 669.152 864.656C613.937 920.076 521.836 923.256 454.35 916.26ZM356.324 875.78C379.929 882.105 415.558 890.231 454.854 894.222C518.75 900.825 606.252 897.834 658.686 845.365C706.446 797.613 666.735 727.276 616.345 638.442C566.558 550.425 505.59 442.383 521.324 327.511C501.947 439.042 561.317 544.403 609.563 629.802C632.719 670.688 654.517 709.219 664.152 742.218C675.056 778.968 670.336 806.13 649.069 827.153C599.344 876.936 516.104 879.932 455.268 873.581C389.445 866.746 334.478 848.038 334.019 847.63C267.089 819.463 217.633 778.068 186.497 724.527C159.827 678.72 146.187 622.476 145.875 557.863C145.277 439.59 187.991 313.448 219.291 221.016L219.63 220.015C227.475 197.102 234.771 175.178 240.276 156.754C250.86 121.498 273.335 95.9666 305.136 82.3145C333.644 70.3387 367.641 68.6459 401.589 77.7423L403.711 78.3109C446.535 90.354 483.962 118.292 507.053 155.18C529.676 191.42 537.713 234.649 530.946 281.238C555.22 158.985 481.643 79.2488 399.687 56.1973L397.565 55.6288C333.117 38.3598 253.414 56.8012 228.731 138.311C223.582 155.639 216.808 175.679 209.553 197.138L209.551 197.143C208.649 199.812 207.739 202.503 206.825 205.214L206.102 207.353C173.149 304.916 128.269 437.79 129.085 562.177C129.967 711.654 194.758 811.453 327.026 867.362C327.27 867.312 329.215 867.905 332.627 868.945C337.623 870.469 345.765 872.951 356.324 875.78ZM455.358 872.184C418.326 868.231 384.553 860.602 362.274 854.633C345.565 850.156 335.099 846.783 334.905 846.446C209.513 793.518 148.358 699.241 147.538 558.024C146.869 440.016 189.582 313.876 220.881 221.444L221.221 220.442C223.361 213.952 225.499 207.554 227.591 201.297L227.6 201.27L227.604 201.256L227.607 201.248L227.608 201.244L227.61 201.24L227.611 201.236L227.612 201.231C232.92 185.35 237.922 170.385 241.867 157.181C265.077 80.1089 340.498 62.7944 401.499 79.1396L403.355 79.637C480.778 101.474 550.418 176.822 527.336 292.742C533.638 248.802 525.998 208.295 504.802 174.191C483.141 139.392 447.551 113.084 407.379 101.751L405.523 101.254C373.431 92.6549 341.168 94.2436 314.464 105.85C284.611 118.603 263.286 143.021 253.271 176.155C249.536 188.575 244.786 202.613 239.74 217.526L239.734 217.544C237.727 223.474 235.674 229.543 233.619 235.703C203.977 322.99 163.471 442.332 164.186 554.241C164.555 615.458 177.385 668.359 202.502 711.475C231.89 761.99 278.591 800.94 341.684 827.511C341.689 827.513 341.697 827.515 341.709 827.519C341.727 827.525 341.753 827.533 341.788 827.544C341.855 827.567 341.955 827.6 342.086 827.643C347.052 829.289 396.88 845.805 455.967 851.879C513.478 857.909 591.853 855.031 638.869 807.932C682.29 764.703 646.656 701.428 601.508 621.674C555.731 540.911 499.184 441.144 518.424 335.374C503.16 444.242 560.982 546.583 608.212 630.178L608.289 630.314C655.961 714.439 693.271 781.006 648.221 826.073C598.567 875.591 516.194 878.535 455.358 872.184ZM368.419 833.822C389.372 839.436 421.217 846.832 456.393 850.288C513.374 856.175 591.148 853.42 638.021 806.852C680.424 764.55 645.57 702.669 601.288 624.05L600.428 622.522C555.155 542.654 499.665 444.41 516.522 339.94C495.941 440.935 549.767 536.383 593.452 613.546L593.524 613.674C635.919 688.659 669.428 747.925 628.669 788.711C584.433 832.859 510.922 835.619 457.001 829.984C401.399 824.291 354.842 808.901 350.081 807.327C349.844 807.249 349.71 807.205 349.685 807.198C290.428 782.223 246.555 745.452 218.843 698.229C195.35 657.538 183.064 607.91 182.832 550.425C182.271 445.837 219.994 334.035 247.583 252.268L247.945 251.197L248.423 249.781L248.871 248.455L250.073 244.9C256.164 226.895 261.912 209.9 266.336 195.291C287.219 125.84 354.821 110.126 409.456 124.765L411.313 125.263C449.097 135.955 482.585 160.563 502.815 193.274C523.612 226.588 530.394 266.292 523.26 309.214C548.238 197.192 481.5 124.149 407.483 103.485L405.627 102.987C348.074 87.566 277.129 104.09 255.127 176.653C249.906 194.016 242.966 214.613 235.476 236.201C205.833 323.488 165.328 442.83 166.114 554.474C166.803 687.696 224.586 776.52 342.57 826.327C342.704 826.25 344.321 826.751 347.23 827.653L347.231 827.653L347.231 827.654C351.596 829.007 358.871 831.264 368.419 833.822ZM456.897 828.25C423.985 824.833 393.996 817.934 374.37 812.675C362.119 809.393 353.522 806.688 350.769 805.822C350.244 805.657 349.931 805.558 349.846 805.536C239.269 758.85 184.929 675.213 184.301 550.25C183.933 446.053 221.546 334.579 249.13 252.827L249.536 251.623C250.2 249.657 250.862 247.701 251.519 245.756L251.665 245.326C257.755 227.321 263.503 210.327 267.927 195.717C288.455 127.592 355.119 112.195 408.959 126.622L410.55 127.048C478.863 146.169 540.287 212.369 520.452 314.19C525.534 276.372 518.682 241.497 500.298 212.214C481.427 181.858 450.114 158.685 414.716 148.632L413.125 148.206C361.937 134.49 298.882 149.148 279.543 213.897C274.891 229.138 268.927 247.154 262.412 266.16L261.788 268.004L261.788 268.005C235.909 344.466 200.684 448.54 201.356 546.008C201.716 599.832 213.121 646.381 235.061 684.382C260.689 728.772 301.806 763.1 357.227 786.478C357.421 786.814 402.982 802.433 457.505 807.946C507.836 813.188 576.748 810.617 618.009 769.084C656.062 730.98 624.876 675.744 585.195 605.461L585.131 605.347C545.131 534.599 496.048 447.774 511.924 355.66C499.434 451.422 550.187 541.073 591.77 614.517L592.29 615.436C634.086 689.373 667.094 747.763 627.291 787.489C583.462 831.178 510.553 833.815 456.897 828.25ZM616.825 768.198C554.704 830.295 429.581 805.012 379.188 791.509C368.377 788.613 360.968 786.234 358.477 785.434L358.477 785.434C357.974 785.272 357.672 785.175 357.582 785.152C253.953 741.181 203.179 663.331 202.682 546.364C202.199 448.463 237.651 343.709 263.583 267.086L263.596 267.046C270.182 247.775 276.146 229.758 280.798 214.517C300.118 150.901 362.235 136.56 412.627 150.062L414.219 150.489C476.314 167.922 532.382 227.202 518.149 318.243C520.849 286.307 514.197 256.747 498.507 231.632C480.8 203.294 451.589 181.822 418.579 172.408L416.988 171.982C369.248 159.19 310.21 172.65 292.007 233.155C289.02 243.531 285.094 255.163 280.905 267.573L280.888 267.623C279.329 272.241 277.733 276.967 276.137 281.776C251.961 352.904 218.875 450.924 219.402 542.315C219.696 592.141 230.22 635.611 250.872 670.993C274.753 712.357 313.113 744.24 364.698 766.022C364.729 766.03 364.82 766.059 364.97 766.107L365.255 766.199C375.996 769.672 536.188 821.468 607.809 749.862C643.509 714.23 614.405 662.654 577.341 597.29C541.994 534.67 498.862 458.251 507.677 377.017C501.888 461.662 546.813 541.121 583.715 606.389L583.785 606.513C623.075 676.119 654.062 731.015 616.825 768.198ZM606.431 748.64C548.578 806.48 432.349 783.012 385.404 770.433C375.309 767.728 368.58 765.536 366.258 764.779C365.774 764.621 365.481 764.526 365.39 764.502C269.097 723.918 222.03 651.326 221.329 542.547C220.731 451.421 253.747 353.667 277.922 282.539C278.56 280.619 279.195 278.708 279.826 276.81L279.966 276.388L279.967 276.384L279.978 276.351C285.126 260.862 290.007 246.175 293.864 233.652C311.711 174.474 369.617 160.994 416.561 173.573L418.152 173.999C477.721 190.782 531.464 248.986 513.263 338.515C517.562 306.095 511.782 276.084 495.918 250.838C479.448 224.252 452.676 204.286 421.982 195.777L420.656 195.422C376.364 183.554 321.801 196.224 305.001 252.556C301.423 264.053 296.891 277.477 292.098 291.675L292.094 291.686L292.094 291.686C291.419 293.686 290.738 295.702 290.055 297.729C267.566 363.624 236.805 454.023 237.376 538.887C237.727 585.317 247.442 625.444 266.54 658.135C288.745 696.207 324.278 725.912 372.026 746.097C372.038 746.1 372.056 746.105 372.083 746.114C372.169 746.14 372.335 746.194 372.58 746.273L372.584 746.274C382.912 749.611 530.911 797.423 597.202 731.101C630.192 698.153 603.224 650.277 568.878 589.621L568.543 589.027C534.102 527.904 491.901 453.01 506.102 373.393C495.467 456.21 539.378 533.993 575.319 597.658L575.319 597.658L575.319 597.658L575.659 598.261L575.737 598.399C612.112 662.954 640.956 714.145 606.431 748.64ZM391.62 749.357C435.116 761.012 542.716 782.736 595.966 729.349C627.876 697.249 601.296 650.045 567.267 590.327C535.198 533.761 496.409 464.962 501.937 391.335C493.193 461.22 530.41 526.974 560.903 580.848L561.158 581.299L561.329 581.6C592.683 637.07 617.635 681.214 587.073 711.615C526.008 772.569 389.288 728.493 380.291 725.593L380.291 725.593L380.279 725.589L380.276 725.588C380.02 725.505 379.871 725.457 379.834 725.447C298.09 691.036 256.478 626.728 256.093 534.806C255.676 457.19 283.636 374.511 304.146 313.86L304.451 312.958C309.634 297.859 314.339 283.485 318.138 271.426C333.464 219.532 383.745 207.989 424.324 218.862L425.65 219.217C453.958 227.087 478.556 245.617 493.667 269.849C507.25 291.589 512.814 317.035 510.384 344.655C524.213 264.694 475.65 212.684 421.484 197.634C377.865 185.377 323.445 197.517 306.664 252.717C302.58 265.836 297.52 281.537 291.717 297.891L291.026 299.942C268.862 365.722 238.738 455.125 239.18 538.518C239.82 639.036 283.444 706.442 372.595 743.975C372.763 744.02 373.21 744.153 373.917 744.362L373.918 744.362L373.92 744.363C376.565 745.146 382.833 747.003 391.62 749.357ZM585.766 710.128C536.519 759.187 437.813 739.277 397.765 728.546C389.331 726.286 383.46 724.335 381.292 723.615C380.801 723.452 380.5 723.352 380.402 723.325C298.464 688.578 258.406 626.96 257.898 534.437C257.339 457.349 285.298 374.674 305.808 314.023L306.114 313.119L306.735 311.309L307.359 309.492C312.087 295.733 316.55 282.741 319.8 271.587C334.966 221.356 384.043 210.059 423.827 220.719L425.153 221.074C475.444 235.361 520.694 283.846 506.688 358.376C513.047 295.83 473.191 254.923 429.319 242.658L428.258 242.374C391.127 232.424 345.057 243.106 330.408 290.349C328.21 297.834 325.389 306.191 322.382 315.099L322.381 315.099L322.381 315.1L322.38 315.102L322.378 315.11C320.939 319.372 319.458 323.76 317.982 328.238C299.202 383.471 273.677 459.638 273.945 530.777C274.463 614.776 312.437 673.561 387.039 704.921C387.079 704.932 387.233 704.981 387.497 705.066C396.082 707.83 520.609 747.922 576.342 692.253C604.198 664.534 581.569 624.421 552.93 573.655L552.767 573.365L552.084 572.148L552.084 572.148C523.771 521.665 489.121 459.884 499.715 394.49C492.643 463.801 529.267 528.901 559.477 582.27L559.648 582.573C590.613 637.369 615.178 680.838 585.766 710.128ZM403.715 707.399C440.051 717.135 530.392 735.373 575.106 690.5C601.812 663.893 579.57 624.454 551.32 574.362L551.156 574.071C524.471 526.841 492.318 469.852 496.196 408.888C489.275 466.393 519.818 520.639 545.047 565.043C570.145 609.291 591.748 647.487 566.478 672.838C515.925 723.374 402.821 686.832 395.48 684.46L395.468 684.456C395.372 684.425 395.295 684.4 395.236 684.381C395.169 684.36 395.127 684.347 395.112 684.343C327.723 655.768 293.314 602.771 292.663 526.696C292.28 462.349 315.551 393.537 332.714 343.273C333.168 341.922 333.62 340.58 334.068 339.248C337.771 328.245 341.235 317.953 343.881 309.025C356.649 266.679 398.243 256.788 431.926 265.814L432.987 266.098C472.033 277.06 507.522 312.773 503.532 367.474C515.016 300.717 474.158 257.198 428.821 244.514C392.363 234.177 346.7 244.399 332.866 290.723C330.668 298.208 327.847 306.566 324.839 315.474C323.399 319.739 321.917 324.13 320.44 328.613C301.66 383.846 275.941 459.676 276.28 530.55C276.727 614.814 313.342 671.245 387.944 702.605C388.669 703.083 394.433 704.912 403.715 707.399ZM564.57 671.474C524.195 711.824 442.747 695.401 409.86 686.589C403.363 684.848 398.772 683.451 396.62 682.796L396.619 682.796L396.617 682.795C395.96 682.595 395.53 682.465 395.344 682.415C241.579 617.619 299.41 446.35 334.164 344.229L334.689 342.666C334.967 341.84 335.244 341.018 335.519 340.2L335.521 340.194C339.223 329.194 342.685 318.907 345.33 309.982C357.814 268.697 398.399 259.389 431.021 268.13L432.082 268.414C471.847 279.59 507.92 317.04 500.266 374.642C501.037 328.816 470.384 299.055 436.921 289.609L435.86 289.325C405.625 281.223 368.047 289.916 356.946 328.161C356.101 330.706 355.222 333.381 354.305 336.167L354.3 336.183L354.298 336.19L354.298 336.191C352.02 343.115 349.519 350.721 346.775 358.695C331.563 403.797 310.813 465.325 311.044 522.809C311.299 590.818 342.07 638.292 402.583 663.887C402.614 663.895 402.738 663.936 402.951 664.004C409.885 666.241 510.792 698.797 556.013 653.546C578.839 630.951 559.372 596.455 536.992 556.915C516.026 519.941 490.779 475.272 492.662 427.503C493.201 478.601 520.033 526.201 542.437 565.948L542.438 565.949L542.438 565.949L542.693 566.402C568.374 611.659 588.618 647.501 564.57 671.474ZM416.076 665.513C445.516 673.401 518.334 688.08 554.441 651.988C575.851 630.434 557.936 598.629 534.974 558.08L534.385 557.031C512.922 518.853 487.107 472.935 490.407 423.708C483.606 469.836 508.241 513.383 528.358 548.945L528.529 549.246C548.385 584.415 565.328 614.539 545.406 634.785C505.511 674.756 416.785 646.175 410.28 644.079L410.28 644.079L410.27 644.076L410.117 644.027L410.029 643.998C409.967 643.979 409.928 643.967 409.911 643.962C356.541 621.418 329.406 579.466 329.019 519.382C328.674 468.896 347.088 414.695 360.529 375.133L360.693 374.648C362.042 370.502 363.399 366.506 364.697 362.685L364.698 362.681L364.699 362.68L364.699 362.679L364.699 362.678C366.511 357.344 368.208 352.349 369.605 347.756C379.639 313.49 412.67 305.853 439.457 313.031L440.253 313.244C470.739 321.906 498.498 349.529 496.055 391.909C505.857 337.5 472.919 302.068 436.087 291.66L435.291 291.447C406.117 283.629 370.079 291.882 359.068 328.729C356.509 337.268 353.014 347.368 349.414 357.77L349.413 357.771L349.413 357.772L349.413 357.772L349.413 357.773L348.897 359.263C317.852 450.723 266.128 603.446 403.487 661.571C403.682 661.907 408.385 663.452 416.076 665.513ZM543.905 632.961C512.136 664.531 448.212 651.667 422.221 644.702C419.532 643.982 417.247 643.323 415.459 642.807L415.455 642.806L415.455 642.806L415.454 642.806C412.835 642.05 411.281 641.602 411.081 641.717C290.121 590.849 335.643 456.388 362.918 375.824L363.009 375.553C366.505 365.687 369.594 356.281 371.992 348.396C381.936 315.527 413.958 308.472 439.879 315.702C472.402 324.687 501.464 356.218 492.504 404.474C494.285 367.886 470.462 344.041 443.921 336.684L443.126 336.47C420.051 330.288 391.302 336.798 382.547 366.29C380.851 371.768 378.801 377.884 376.57 384.538C376.022 386.173 375.463 387.841 374.896 389.54C363.128 423.91 347.418 470.869 347.542 514.964C347.798 567.054 371.561 603.554 417.79 623.047C421.166 624.236 499.648 650.666 535.348 615.033C552.724 597.646 538.119 571.688 521.109 541.455L520.81 540.923C503.561 510.695 482.514 473.564 487.442 434.298C485.385 477.182 508.03 517.35 526.776 550.482C546.826 585.987 562.605 614.093 543.905 632.961ZM428.171 623.555C450.45 629.524 506.009 640.716 533.245 613.333C549.501 597.221 535.593 572.743 518.19 542.212L518.025 541.918C502.771 514.877 484.621 482.702 483.968 448.107C482.188 479.142 498.671 508.504 512.242 532.677L512.418 532.989C527.102 558.813 539.651 580.937 524.546 595.936C495.829 624.635 434.608 605.765 425.871 603.071C425.613 602.992 425.401 602.927 425.237 602.877C425.098 602.835 424.993 602.804 424.924 602.786C334.518 564.632 368.367 464.827 388.62 405.156C390.636 399.329 392.392 393.795 393.913 389L393.913 388.999C394.294 387.801 394.659 386.648 395.011 385.549C402.894 360.371 427.168 354.652 447.059 359.982L447.59 360.124C468.968 366.087 488.454 384.885 488.835 413.5C495.508 373.059 470.531 346.639 443.017 339L442.221 338.786C420.207 332.888 392.926 339.223 384.332 367.053C382.536 372.855 380.291 379.565 377.891 386.737L377.852 386.853C377.442 388.079 377.028 389.318 376.61 390.568L376.518 390.84C353.024 460.478 313.804 576.728 418.093 620.854L428.171 623.555ZM523.045 594.112C499.812 617.166 453.147 607.79 434.316 602.744C430.453 601.709 427.678 600.779 426.62 600.424L426.619 600.424L426.617 600.423L426.606 600.42C426.365 600.339 426.215 600.289 426.165 600.276C338.075 563.027 371.304 464.477 391.272 405.867C393.383 399.766 395.208 393.987 396.82 388.883L397.152 387.833L397.348 387.213L397.526 386.652L397.734 385.994C404.926 362.337 428.191 357.2 446.95 362.511C470.595 369.117 491.676 392.009 485.164 426.926C484.405 404.356 469.088 388.572 451.258 383.564L450.728 383.422C434.549 379.087 414.486 383.945 408.147 404.419C407.358 407.366 406.285 410.562 405.132 413.995C404.418 416.123 403.673 418.343 402.946 420.65L402.942 420.661C386.398 469.672 358.859 551.257 432.925 582.473C433.048 582.506 433.309 582.586 433.696 582.705L433.701 582.707C440.86 584.915 491.034 600.392 514.611 576.786C527.007 564.473 516.594 546.048 504.627 524.933C493.371 505.098 479.67 480.734 481.367 455.125C482.116 484.299 497.467 511.444 510.4 534.154L510.661 534.621C525.151 560.487 536.511 580.766 523.045 594.112ZM512.58 574.821C493.951 593.423 455.915 585.79 440.532 581.668L440.531 581.668C436.553 580.602 434.166 579.962 433.972 579.626C362.217 549.313 389.339 469.31 405.598 421.361C407.498 415.332 409.255 409.833 410.8 405.13C416.447 386.176 434.9 382.024 450.017 386.074L450.548 386.216C470.633 391.883 488.544 412.032 480.565 442.87C472.683 473.325 488.529 501.689 501.454 524.824L501.943 525.7L502.273 526.292L502.969 527.542C514.345 547.989 523.271 564.033 512.58 574.821Z" fill="url(#paint0_linear_53_10174)"/>
<defs>
<linearGradient id="paint0_linear_53_10174" x1="850.655" y1="592.535" x2="24.1212" y2="371.066" gradientUnits="userSpaceOnUse">
<stop stop-color="#04DA00" stop-opacity="0"/>
<stop offset="0.3125" stop-color="#FF0469"/>
<stop offset="0.703125" stop-color="#109BFF"/>
<stop offset="1" stop-color="#FFD110" stop-opacity="0"/>
</linearGradient>
</defs>
</svg>
