<svg width="273" height="799" viewBox="0 0 273 799" fill="none" xmlns="http://www.w3.org/2000/svg">
<path opacity="0.33" fill-rule="evenodd" clip-rule="evenodd" d="M-16.3153 903.597L-18.5815 902.989C-42.0122 896.49 -63.8716 885.775 -83.8581 871.367C-104.764 856.27 -122.094 837.715 -135.34 816.28C-165.617 767.759 -172.841 708.192 -156.03 643.803C-121.062 509.195 -192.774 381.999 -250.608 279.418L-251.131 278.491C-277.413 232.365 -302.131 188.645 -313.091 151.262C-325.379 109.769 -320.108 79.3844 -296.27 55.5206C-271.276 30.6415 -237.211 13.9342 -194.446 5.96153C-160.449 -0.60643 -121.113 -1.54874 -77.2641 2.91379C-6.58996 10.1329 52.6321 29.7503 59.3415 31.9727L59.3417 31.9728C59.7122 32.0956 59.9225 32.1652 59.9657 32.1768C99.0605 48.6141 133.273 69.2635 161.477 93.3818C187.897 115.918 210.013 142.158 226.904 171.415C227.96 173.244 229.015 175.072 229.865 176.846C197.223 118.196 143.331 67.9841 59.8001 32.7949C59.7412 32.7791 59.4843 32.6951 59.0382 32.5493C51.6791 30.1436 -7.15307 10.9118 -77.2237 3.58705C-145.964 -3.57054 -239.612 -0.178738 -295.968 56.0431C-319.49 79.55 -324.967 109.879 -312.624 151.166C-301.458 188.605 -276.945 232.269 -250.869 278.34C-221.626 329.897 -188.723 388.396 -167.818 449.642C-145.105 516.433 -140.375 577.017 -153.327 634.484C-120.549 505.47 -189.452 383.512 -244.944 285.293L-245.134 284.956C-245.896 283.6 -246.656 282.247 -247.415 280.897L-247.415 280.897L-247.415 280.896C-271.543 237.955 -294.294 197.464 -304.642 162.579C-316.23 122.599 -311.029 93.2993 -288.346 70.4508C-264.302 46.6422 -231.488 30.4829 -190.592 22.8928C-157.79 16.6669 -120.007 15.7502 -77.8615 19.9771C-9.63661 27.0955 47.8001 45.9876 53.4975 47.8616C53.7735 47.9524 53.928 48.0032 53.9566 48.0109C91.4584 63.8006 124.339 83.6515 151.473 106.82C176.823 128.407 198.074 153.754 214.417 181.76C220.148 191.686 225.356 201.914 229.987 212.65C200.543 145.362 146.056 87.4831 53.791 48.6289C53.7314 48.613 53.4767 48.5299 53.0358 48.3862L53.0356 48.3861C45.8592 46.0463 -10.627 27.6295 -77.8211 20.6504C-143.773 13.7984 -233.849 17.0433 -287.839 71.0284C-310.466 93.6709 -315.612 122.764 -303.913 162.333C-293.24 198.315 -269.577 240.206 -244.557 284.448C-216.52 333.915 -184.769 390.118 -164.808 449.123C-144.067 510.439 -138.871 566.323 -149.226 619.229C-122.052 498.038 -186.783 383.573 -239.084 291.214C-263.199 248.539 -285.806 208.476 -296.193 173.897C-307.55 135.523 -302.68 107.46 -280.74 85.7375C-257.796 62.7382 -226.288 47.3331 -187 39.9746C-155.6 34.0355 -119.163 33.1996 -78.982 37.3418C-13.4631 44.1639 41.4333 62.1817 46.9703 63.999C47.2425 64.0884 47.3954 64.1386 47.4244 64.1463C60.0002 69.4708 71.996 75.2381 83.4017 81.4429C72.1943 75.4092 60.3904 69.7694 47.9873 64.518C47.89 64.4919 47.5417 64.3822 46.9547 64.1972C43.8121 63.2071 33.8276 60.0614 18.8985 56.0612C-4.38133 49.8234 -39.5293 41.7304 -78.4192 37.7134C-141.583 31.167 -227.88 34.3203 -279.71 86.0135C-301.444 107.792 -306.258 135.649 -294.997 173.554C-285.137 206.994 -263.425 245.681 -240.344 286.806L-240.344 286.806L-239.109 289.007L-238.094 290.817L-236.483 293.68L-236.483 293.68L-236.482 293.681C-210.105 340.548 -180.484 393.179 -161.593 448.66C-141.384 508.233 -136.679 562.173 -146.935 613.501C-119.696 496.718 -182.105 386.261 -232.565 297.377L-233.263 296.13C-233.758 295.247 -234.253 294.364 -234.747 293.483L-234.775 293.433L-234.812 293.366C-256.844 254.06 -277.645 216.95 -287.014 184.968C-297.933 148.257 -293.189 121.486 -272.088 100.421C-250.093 78.4926 -219.836 63.6355 -182.156 56.5086C-152.157 50.8564 -117.218 49.8402 -78.5893 54.008C-15.5005 60.5301 37.4922 78.173 42.0367 79.686C42.2282 79.7497 42.3336 79.7848 42.3503 79.7893C108.977 108.02 158.621 149.365 189.648 202.504C216.247 248.273 229.946 304.276 230.253 369.056C230.948 487.598 188 614.097 156.591 706.592C155.624 709.482 154.662 712.35 153.709 715.191L153.64 715.397C147.002 735.189 140.792 753.705 135.921 769.726C125.245 804.624 102.875 830.427 71.1904 844.018C42.7914 856.061 8.77197 857.765 -25.0147 848.712L-27.0749 848.16C-69.5547 836.115 -107.166 808.373 -129.983 771.566C-154.341 732.403 -161.855 685.256 -151.77 634.183C-181.276 760.184 -106.838 842.484 -23.8543 865.805L-21.7941 866.357C26.2967 879.243 82.8797 872.118 118.351 833.372C107.21 845.746 93.5228 855.5 77.5564 862.285C48.7858 874.891 13.2691 876.415 -22.1658 866.92L-24.4319 866.313C-68.9719 853.716 -108.216 824.652 -131.994 786.484C-157.697 745.291 -165.242 695.528 -154.507 641.858C-185.75 773.645 -107.989 859.618 -21.2102 883.958L-19.15 884.51C47.3933 902.34 129.767 883.341 155.189 799.178C160.567 781.31 167.601 760.546 175.088 738.445L175.09 738.441C175.993 735.774 176.903 733.089 177.817 730.386C210.507 634.201 253.282 507.639 258.016 386.728C253.495 507.935 210.671 634.566 178.786 728.85L178.785 728.851L178.229 730.496C177.365 733.049 176.506 735.587 175.652 738.107L175.54 738.437L175.503 738.546L175.502 738.551C168.014 760.653 160.98 781.42 155.601 799.289C144.042 837.483 119.773 865.427 85.1745 880.004C54.6306 893.459 17.7121 895.27 -19.1648 885.389L-21.431 884.782C-67.8251 871.688 -108.703 841.303 -133.591 801.513C-161.292 756.988 -168.883 702.757 -155.689 644.188C-192.129 784.815 -110.169 876.683 -18.4159 902.371L-16.1497 902.979C53.0718 921.526 138.771 901.652 165.338 814.042C171.586 793.194 179.969 768.501 188.944 742.421L189.281 741.425C222.177 644.171 265.022 517.502 272.028 395.265C265.229 518.134 222.358 645.305 190.128 740.909L189.563 742.587C188.36 746.171 187.164 749.728 185.98 753.252C178.53 775.421 171.525 796.266 165.956 814.208C154.01 853.845 128.586 882.804 92.6264 898.341C60.6807 912.083 22.0037 913.864 -16.3153 903.597ZM258.427 360.482C258.503 369.192 258.36 377.945 258.016 386.728C258.313 378.761 258.445 370.817 258.397 362.907C258.411 362.099 258.421 361.291 258.427 360.482ZM258.035 344.482C258.251 349.797 258.38 355.131 258.427 360.482C258.469 355.125 258.351 349.747 258.035 344.482ZM145.396 784.63C139.349 804.553 129.985 820.664 118.351 833.372C130.335 820.062 139.373 803.721 145.135 784.781C150.942 765.581 158.567 742.893 166.784 718.818C199.502 622.258 244.203 490.045 243.596 366.228C243.182 298.549 229.005 240.209 201.201 192.35C174.712 146.717 135.126 109.581 83.4017 81.4429C190.282 138.983 242.918 232.343 243.802 366.283C244.464 489.894 199.764 622.107 167.045 718.667C158.828 742.742 151.203 765.43 145.396 784.63ZM-78.8101 54.832C-41.6236 58.6134 -7.91771 66.32 14.3321 72.2818C25.2089 75.1963 33.3468 77.7429 37.8333 79.147C40.3151 79.9236 41.6796 80.3506 41.7727 80.2969C167.117 133.314 228.389 227.679 229.167 368.986C229.712 487.266 186.97 613.821 155.561 706.316C154.812 708.55 154.066 710.773 153.323 712.985L153.321 712.992C146.453 733.447 139.932 752.868 134.891 769.45C111.552 846.663 35.981 864.173 -24.9999 847.833L-26.8541 847.336C-105.162 825.285 -175.281 748.732 -150.524 631.292C-158.438 677.75 -150.922 720.746 -128.646 756.688C-106.679 791.722 -70.8113 818.556 -30.1304 829.898L-28.0703 830.45C4.2743 839.116 36.9472 837.493 63.4773 825.833C93.8555 812.995 115.221 788.469 125.305 754.958C129.957 739.738 135.894 722.205 142.253 703.425L142.255 703.418C143.229 700.542 144.212 697.638 145.202 694.708L145.509 693.801L145.509 693.801C175.32 605.6 216.083 484.994 215.507 372.171C215.452 364.79 215.217 357.525 214.803 350.379C208.987 240.484 161.811 162.379 71.4669 112.929C60.2455 106.711 48.3787 100.971 35.8739 95.719C35.8435 95.7108 35.688 95.6595 35.4122 95.5686L35.4115 95.5684C30.0763 93.809 -20.1971 77.2309 -79.8601 71.1117C-116.785 67.1795 -149.911 68.0193 -178.769 73.5355C-214.787 80.2247 -243.532 94.3829 -264.632 115.447C-284.578 135.496 -289.252 161.183 -278.77 196.23C-269.524 227.376 -249.199 263.413 -227.596 301.715L-227.596 301.716L-226.513 303.636C-179.439 386.621 -121.487 489.001 -143.093 597.678C-135.262 551.069 -140.358 501.859 -158.583 448.142C-176.97 393.974 -206.007 342.473 -231.781 296.924L-232.837 295.053L-232.837 295.053L-232.838 295.053C-255.503 254.909 -276.746 217.283 -286.286 184.721C-297.054 148.272 -292.365 121.707 -271.581 100.999C-222.116 51.5424 -139.391 48.536 -78.8101 54.832ZM36.4368 96.0906C48.7594 101.28 60.435 106.891 71.4669 112.929C117.595 138.491 152.818 172.134 176.638 213.15C198.994 251.606 211.756 297.762 214.803 350.379C215.173 357.359 215.375 364.467 215.411 371.704C216.043 484.322 175.279 604.928 145.469 693.128L145.162 694.035C137.497 716.049 130.575 736.938 125.209 754.49C103.015 828.257 30.7696 844.891 -27.5331 829.269L-29.3872 828.772C-104.045 807.914 -170.914 734.889 -147.621 622.995C-155.017 667.098 -147.982 707.991 -126.692 741.976C-105.835 775.387 -71.601 800.9 -32.7743 811.745L-30.9201 812.242C-0.0176215 820.522 30.8968 818.869 56.9999 807.978C85.9213 795.633 106.338 772.178 115.98 740.315C121.18 723.38 127.77 703.728 134.954 682.688L134.956 682.681C163.483 598.468 202.569 483.082 201.902 375.15C201.396 316.058 189.01 265.043 164.824 223.454C136.567 174.811 91.4662 137.112 30.5377 111.513C30.5068 111.504 30.3528 111.454 30.0807 111.364C24.9153 109.665 -22.8229 93.9582 -79.7847 88.1346C-114.801 84.4932 -146.58 85.2522 -174.036 90.4815C-208.24 96.9942 -235.679 110.398 -255.83 130.392C-275.088 149.521 -279.225 174.027 -269.442 207.562C-260.685 237.26 -241.405 271.484 -220.852 307.967L-220.852 307.967L-219.789 309.854L-219.664 310.075C-174.991 389.189 -119.911 486.733 -140.406 590.177C-133.038 545.767 -138.016 498.763 -155.313 447.472C-172.707 396.052 -200.371 347.118 -224.833 303.846L-224.834 303.846L-224.834 303.845L-225.262 303.087C-247.321 264.276 -267.913 227.403 -277.369 195.943C-287.7 161.157 -283.342 135.827 -263.451 115.984C-216.147 68.8196 -137.2 65.9049 -79.4076 71.8953C-43.9796 75.6471 -11.7159 82.9673 9.50384 88.6531C17.1713 90.7076 23.4407 92.5383 28.0022 93.8703L28.0026 93.8704L28.0028 93.8705C33.0009 95.3299 35.9482 96.1906 36.4368 96.0906ZM4.93644 104.874C-15.4592 99.4086 -46.0748 92.53 -80.0055 88.9587C-135.215 83.2186 -210.384 86.0416 -255.584 131.121C-274.525 149.893 -278.607 174.193 -268.92 207.26C-259.957 237.263 -240.215 272.363 -219.211 309.346L-218.764 310.139C-195.51 351.316 -169.065 398.145 -152.565 447.105C-134.398 500.809 -130.609 549.279 -140.853 595.406C-140.846 595.378 -140.839 595.35 -140.831 595.322C-114.109 492.297 -169.222 394.725 -213.587 316.373L-214.656 314.474L-214.656 314.474L-214.656 314.473C-234.154 279.819 -252.523 247.171 -260.787 218.934C-270.132 187.062 -266.12 163.848 -247.962 145.528C-204.812 102.329 -133.009 99.7077 -80.1764 105.253C-25.6817 110.772 20.1267 126.087 24.3624 127.503L24.3636 127.503C24.5551 127.567 24.6613 127.603 24.6792 127.607C82.6279 151.967 125.587 187.768 152.281 234.004C175.205 273.71 187.168 322.182 187.362 378.32C187.912 480.924 150.781 590.655 123.564 670.803C122.56 673.812 121.562 676.793 120.576 679.741L120.573 679.75C114.984 696.455 109.754 712.084 105.569 725.601C96.3141 756.022 76.9019 778.201 49.4374 790.053C25.0524 800.3 -4.51546 801.873 -33.7698 794.034L-35.624 793.537C-72.5965 783.189 -105.197 758.997 -124.943 727.208C-146.876 692.074 -152.924 649.328 -142.72 603.188C-142.74 603.262 -142.759 603.337 -142.778 603.412C-172.15 716.326 -106.237 790.074 -32.7594 810.866L-30.9053 811.363C24.7192 826.267 93.4324 810.453 114.688 740.189C119.833 723.461 126.479 703.603 133.662 682.563L133.665 682.556C162.191 598.342 201.277 482.957 200.761 375.286C199.927 246.55 144.154 160.504 30.1109 112.282C30.0527 112.266 29.813 112.189 29.4014 112.056C26.8972 111.247 18.0292 108.382 4.93644 104.874ZM-80.6032 106.022C-48.3759 109.357 -19.2576 116.055 0.108004 121.244C8.81967 123.579 15.4995 125.604 19.5763 126.839C22.3445 127.679 23.9126 128.154 24.1015 128.115C132.597 173.968 185.545 255.724 186.332 378.044C186.882 480.648 149.806 590.173 122.59 670.321C121.586 673.326 120.59 676.304 119.605 679.248C114.013 695.961 108.781 711.597 104.595 725.119C84.277 791.88 19.0404 807.08 -33.9058 792.893L-35.554 792.452C-104.69 773.055 -166.443 704.418 -141.183 599.378C-149.332 641.303 -143.091 680.149 -123.139 712.235C-104.449 742.195 -73.537 765.272 -38.4186 775.124L-36.7705 775.565C-8.95823 783.017 19.2079 781.732 42.2869 772.238C68.5004 760.935 86.7574 739.771 95.5711 710.998C99.7141 697.054 105.259 680.675 111.088 663.46L111.763 661.466L112.587 659.03L113.116 657.463C138.717 581.667 173.663 478.205 173.028 381.545C172.735 328.251 161.662 282.225 139.739 244.554C114.402 200.669 73.6386 166.561 18.6698 143.441C18.6518 143.436 18.5491 143.403 18.3647 143.342C14.3214 142.01 -29.0114 127.738 -80.7741 122.316C-130.612 117.132 -198.843 119.606 -239.833 160.513C-257.042 177.763 -260.984 199.891 -252.076 230.101C-244.467 256.316 -227.523 286.459 -209.506 318.51L-209.506 318.511L-209.506 318.511C-208.764 319.831 -208.02 321.154 -207.275 322.481C-166.006 395.445 -114.775 486.249 -137.188 582.161C-128.973 539.978 -133.042 495.402 -149.556 446.586C-165.478 399.703 -190.593 354.993 -212.954 315.659C-254.152 242.793 -286.658 185.284 -247.455 146.106C-204.565 103.057 -133.024 100.587 -80.6032 106.022ZM-4.45926 137.465C-22.7947 132.552 -50.4709 126.24 -80.9949 123.14C-130.627 118.011 -198.596 120.334 -239.326 161.091C-276.424 198.183 -245.577 252.819 -206.436 321.822C-167.763 390.192 -120.404 474.116 -132.626 563.345C-117.575 476.711 -163.692 394.869 -201.168 328.534C-219.155 296.775 -236.087 266.845 -243.571 241.212C-252.041 212.666 -248.375 191.567 -231.855 175.238C-193.23 136.567 -128.572 134.24 -81.3164 139.173C-30.1868 144.483 12.5099 159.015 12.8667 159.331C64.8557 181.211 103.272 213.365 127.458 254.954C148.174 290.536 158.769 334.225 159.011 384.414C159.476 476.285 126.297 574.268 101.984 646.067L101.721 646.844C95.627 664.643 89.9598 681.673 85.6836 695.984C77.4623 723.369 60.0038 743.202 35.3024 753.806C13.1579 763.109 -13.2497 764.424 -39.6199 757.358L-41.268 756.916C-74.5323 747.561 -103.605 725.86 -121.541 697.207C-139.114 669.056 -145.357 635.477 -140.101 599.288C-158.956 694.25 -101.804 756.188 -38.1426 774.093L-36.4944 774.535C13.5676 787.949 75.4783 773.624 94.6514 710.31C98.6511 696.849 103.914 681.281 109.549 664.611L109.55 664.608L109.563 664.569C109.959 663.399 110.356 662.223 110.755 661.043C111.059 660.145 111.363 659.245 111.668 658.342L112.229 656.68C137.826 580.896 172.687 477.683 172.053 381.063C171.368 264.953 121.04 187.432 18.2982 144.004C18.1086 144.043 16.5982 143.582 13.9477 142.774C10.067 141.591 3.74229 139.662 -4.45926 137.465ZM-81.3864 140.259C-52.6209 143.329 -26.3868 149.255 -9.08142 153.892C3.89762 157.369 12.0279 159.989 12.1787 160.251C109.579 201.364 157.082 274.595 157.72 384.289C158.24 475.954 125.061 573.936 100.748 645.734L100.485 646.513C98.8202 651.561 97.1568 656.538 95.5303 661.404L95.5259 661.418L95.5236 661.425L95.5234 661.425L95.5231 661.426C91.3992 673.765 87.513 685.393 84.4475 695.652C66.4189 755.52 7.83394 768.969 -39.5499 756.272L-40.992 755.886C-101.13 738.924 -155.223 680.399 -137.297 590.358C-142.191 624.487 -136.257 655.949 -119.793 682.439C-102.968 709.47 -75.3222 729.906 -44.1181 738.708L-42.676 739.095C-17.748 745.774 7.3132 744.54 28.056 735.525C51.2453 725.619 67.8096 706.651 75.5893 680.913C78.4898 671.267 82.1789 660.364 86.098 648.781L86.0988 648.779L86.1049 648.761C87.6632 644.156 89.2579 639.443 90.8538 634.658C113.879 566.856 145.343 474.155 144.788 387.227C144.501 339.676 134.535 298.584 115.025 265.092C92.1969 225.854 55.9214 195.598 6.91222 174.959C6.89309 174.954 6.78813 174.919 6.60045 174.857L6.59976 174.856C2.7427 173.578 -35.9622 160.749 -81.8592 156.03C-126.532 151.347 -187.412 153.583 -223.933 190.168C-257.661 223.747 -229.981 272.897 -194.911 334.847C-159.354 397.58 -115.432 475.073 -130.373 557.229C-118.52 472.667 -163.433 393.174 -200.119 328.242L-200.119 328.242L-200.178 328.136C-237.209 262.79 -266.19 211.083 -231.197 176.076C-192.627 137.612 -128.642 135.325 -81.3864 140.259ZM-13.855 170.057C-30.1303 165.696 -54.8671 159.951 -82.1905 157.267C-126.452 152.694 -186.864 154.834 -223.274 191.006C-256.211 223.866 -229.138 271.933 -194.741 333.002L-194.072 334.189C-158.905 396.23 -115.8 472.545 -128.898 553.698C-112.907 475.245 -154.719 401.1 -188.653 341.161L-188.709 341.062C-221.641 282.815 -247.67 236.779 -216.009 205.097C-181.648 170.804 -124.547 168.661 -82.6622 173.038C-39.4723 177.46 -3.3083 189.415 0.389696 190.637L0.391002 190.637C0.511649 190.677 0.59762 190.706 0.647972 190.722C0.674312 190.73 0.690924 190.736 0.697645 190.737C46.727 210.137 80.8062 238.7 102.332 275.381C120.581 306.989 130.124 345.539 130.304 390.191C130.74 471.432 101.438 558.277 80.0075 621.791L79.7266 622.623C79.4223 623.524 79.1186 624.422 78.8159 625.317L78.0749 627.509L78.0732 627.514L78.0706 627.521L78.0683 627.528L78.0674 627.53C73.339 641.51 68.8762 654.705 65.441 666.049C49.2193 719.997 -3.29151 732.203 -45.7309 720.832L-47.173 720.445C-76.523 712.139 -102.535 693.025 -118.249 667.616C-134.404 641.737 -139.673 610.894 -134.129 577.552C-153.535 664.57 -101.694 721.31 -44.1989 737.362L-42.7568 737.748C1.94882 749.727 57.057 736.892 74.1472 680.527C78.2026 667.04 83.5937 651.041 89.4117 634.272C112.437 566.47 143.9 473.768 143.29 387.047C142.755 283.563 97.8708 214.567 6.22417 175.879C6.11974 175.939 4.86463 175.55 2.60547 174.849L2.60407 174.849L2.60337 174.848C-0.787344 173.797 -6.4385 172.044 -13.855 170.057ZM-82.5814 174.385C-57.0166 177.039 -33.7219 182.398 -18.4767 186.483C-8.96479 189.032 -2.28917 191.132 -0.146994 191.806L-0.14664 191.806L-0.146121 191.806L-0.145422 191.806L-0.145072 191.806L-0.144549 191.806L-0.144199 191.806C0.263671 191.935 0.506477 192.011 0.572478 192.029C86.4654 228.292 128.676 293.26 129.163 390.327C129.449 471.264 100.233 557.853 78.8062 621.357L78.4906 622.292L77.8772 624.107C77.5293 625.136 77.1825 626.161 76.8371 627.183C72.1064 641.169 67.6415 654.37 64.2049 665.718C48.2592 718.636 -3.52314 730.596 -45.3445 719.39L-46.5806 719.058C-99.6441 704.206 -147.356 652.784 -131.949 573.694C-135.897 603.069 -130.574 630.158 -116.295 652.904C-101.636 676.484 -77.3126 694.484 -49.8168 702.293L-48.5807 702.624C-8.8195 713.278 40.1595 701.892 55.1815 651.597C58.7953 639.758 63.4284 625.764 68.4883 611L68.973 609.568C89.0752 550.175 116.437 469.333 115.915 393.622C115.636 351.814 106.776 315.656 89.7342 286.138C69.8269 251.656 37.8886 224.992 -5.16091 206.833C-5.31172 206.571 -40.7022 194.439 -83.0539 190.157C-122.15 186.084 -175.679 188.081 -207.729 220.344C-237.287 249.941 -213.063 292.847 -182.24 347.441L-182.19 347.529C-151.119 402.484 -112.994 469.927 -125.325 541.477C-115.624 467.092 -155.047 397.455 -187.347 340.407L-187.751 339.693C-220.217 282.26 -245.856 236.905 -214.938 206.047C-180.894 172.111 -124.26 170.062 -82.5814 174.385ZM-206.809 221.032C-158.556 172.797 -61.363 192.436 -22.2198 202.924C-13.8217 205.174 -8.06645 207.022 -6.13189 207.643C-5.74105 207.769 -5.50616 207.844 -5.43692 207.863C75.0592 242.018 114.499 302.489 114.885 393.346C115.261 469.393 87.7223 550.763 67.5792 610.281L67.5686 610.312C62.4535 625.282 57.8204 639.276 54.2067 651.115C39.1994 700.53 -9.0511 711.67 -48.1943 701.182L-49.4304 700.851C-97.6659 687.308 -141.219 641.258 -130.159 570.536C-132.258 595.346 -127.091 618.31 -114.902 637.82C-101.149 659.833 -78.4583 676.512 -52.8167 683.824L-51.5806 684.155C-14.4976 694.092 31.3615 683.636 45.5003 636.638C47.8206 628.578 50.8702 619.544 54.1239 609.905L54.1248 609.903L54.1267 609.897L54.1308 609.885C55.344 606.291 56.5856 602.613 57.8282 598.87C76.607 543.62 102.308 467.481 101.898 396.491C101.67 357.788 93.4948 324.021 77.4534 296.537C58.9034 264.407 29.106 239.641 -10.9636 222.722C-10.9997 222.712 -11.1456 222.665 -11.3963 222.584C-19.7398 219.886 -144.172 179.653 -199.805 235.274C-227.536 262.953 -204.929 303.015 -176.138 353.788C-148.68 402.433 -115.173 461.799 -122.027 524.904C-117.524 459.149 -152.424 397.422 -181.09 346.72L-181.145 346.624C-211.664 292.556 -235.734 249.915 -206.809 221.032ZM-198.735 236.223C-153.796 191.295 -63.5126 209.525 -27.0477 219.295C-19.2063 221.397 -13.9794 223.099 -12.1755 223.687L-12.1753 223.687L-12.1712 223.689C-11.7975 223.81 -11.5717 223.884 -11.5008 223.903C63.2968 255.427 99.8568 311.815 100.401 396.311C100.866 467.095 75.22 543.028 56.4413 598.277C55.9352 599.802 55.4311 601.319 54.9301 602.826L54.8652 603.021L54.8539 603.055L54.8534 603.057L54.8532 603.058C50.8516 615.098 47.0568 626.517 44.0582 636.251C30.1955 682.219 -14.7845 692.69 -51.2494 682.919L-52.4854 682.588C-98.7554 669.552 -140.501 624.342 -126.365 554.803C-129.704 579.983 -125.214 603.293 -112.892 622.902C-100.099 643.553 -79.3029 659.062 -55.4602 665.672L-54.4301 665.948C-20.0254 675.166 22.3571 665.325 35.4066 621.568C38.1871 612.635 41.7083 602.205 45.4325 591.173L45.4885 591.007C45.9947 589.508 46.5046 587.997 47.0169 586.478C64.4855 535.293 88.3794 465.074 87.9365 399.153C87.6638 363.088 80.1174 331.919 65.2825 306.525C48.0345 276.952 20.4334 253.878 -16.6564 238.199C-16.6936 238.189 -16.839 238.142 -17.0874 238.062L-17.0896 238.061C-25.1123 235.469 -140.073 198.331 -191.566 249.847C-217.192 275.44 -196.244 312.629 -169.565 359.745L-169.305 360.206C-142.553 407.683 -109.774 465.856 -120.801 527.697C-112.544 463.37 -146.651 402.953 -174.568 353.502L-174.832 353.034L-174.893 352.927C-203.147 302.782 -225.553 263.018 -198.735 236.223ZM-31.876 235.667C-65.6627 226.614 -149.243 209.738 -190.606 251.209C-215.393 276.143 -194.747 312.81 -168.314 359.197C-143.402 403.137 -113.271 456.58 -117.568 513.775C-110.772 459.488 -139.683 408.409 -163.37 366.56L-163.568 366.209L-163.701 365.975C-188.056 322.888 -207.438 288.598 -183.698 264.983C-136.265 217.636 -30.0645 251.873 -23.0758 254.126C-22.8698 254.193 -22.7499 254.231 -22.7204 254.239C40.7759 280.969 73.0983 330.921 73.3973 402.323C73.7213 462.614 52.0032 526.836 36.0713 573.948L35.8342 574.649C31.8084 586.377 28.1542 597.543 25.2028 606.91C13.2978 647.22 -25.7589 656.186 -57.2794 647.74L-58.3095 647.464C-80.298 641.351 -99.4052 626.957 -111.143 608.135C-121.695 591.247 -126.016 571.479 -124.128 550.023C-134.872 612.137 -97.1488 652.539 -55.0738 664.229C-21.1915 673.75 21.0806 664.32 34.1153 621.442C37.2875 611.252 41.2177 599.056 45.7256 586.353L46.2624 584.76C63.4791 533.663 86.8784 464.218 86.5348 399.44C86.0378 321.36 52.152 269.002 -17.098 239.847C-17.1658 239.829 -17.2925 239.792 -17.4759 239.739C-17.6443 239.689 -17.8605 239.625 -18.1226 239.547L-18.1251 239.547C-20.1789 238.938 -25.0481 237.496 -31.876 235.667ZM-182.683 266.139C-144.429 228.031 -67.7573 243.496 -36.6488 251.832C-30.0976 253.587 -25.5374 255.103 -23.8534 255.662C-23.472 255.789 -23.2381 255.867 -23.1621 255.887C40.4851 282.878 71.6011 330.741 71.9955 402.61C72.4294 462.49 50.7122 526.71 34.7804 573.822L34.5429 574.524C34.2519 575.372 33.9618 576.216 33.6729 577.057L33.6005 577.268L33.5809 577.325L33.5751 577.342L33.575 577.342C29.9032 588.029 26.436 598.121 23.9115 606.784C12.1317 645.803 -25.9905 654.578 -56.893 646.298L-57.9231 646.022C-96.9871 634.924 -132.135 597.264 -121.258 539.373C-126.195 587.955 -95.2375 619.729 -61.1595 629.256L-60.3354 629.477C-31.4931 637.205 4.29282 628.908 15.6715 592.211C17.3787 586.397 19.5705 579.905 21.9067 572.985L21.9099 572.975L21.9108 572.973L21.9122 572.969L21.9146 572.961L21.918 572.951C23.0329 569.649 24.1806 566.249 25.324 562.78C39.9113 519.876 59.7389 460.712 59.5305 405.453C59.128 340.206 29.6306 294.543 -28.3181 270.183C-28.329 270.18 -28.3513 270.174 -28.3847 270.163C-28.4444 270.144 -28.5396 270.114 -28.6692 270.072L-28.6735 270.071C-35.3423 267.924 -132.071 236.781 -175.363 280.024C-197 301.555 -179.423 332.714 -157.177 372.147L-157.05 372.372L-156.52 373.317C-134.528 412.53 -107.614 460.517 -115.84 511.312C-110.349 457.475 -138.797 406.909 -162.262 365.455L-162.395 365.22C-186.448 322.656 -205.529 288.89 -182.683 266.139ZM-41.2715 268.258C-69.4957 260.696 -139.671 246.529 -174.403 281.385C-195.147 302.053 -177.87 332.688 -155.927 371.598L-155.799 371.824C-135.07 408.512 -110.093 452.782 -113.108 500.14C-107.729 455.469 -131.455 413.33 -151.054 378.837C-170.549 344.466 -187.33 314.797 -167.701 295.105C-128.432 255.849 -40.5761 284.235 -34.874 286.077C-34.7914 286.104 -34.7261 286.125 -34.6784 286.14C-34.63 286.155 -34.5997 286.165 -34.5879 286.168C17.7579 308.364 44.4855 349.531 44.9915 408.623C45.2886 458.606 27.2128 512.057 13.8804 551.101C13.5375 552.122 13.1964 553.135 12.8578 554.141L12.8285 554.229C9.95197 562.776 7.26165 570.769 5.20666 577.704C-4.71109 610.597 -37.0204 618.28 -63.1844 611.269L-64.0085 611.048C-94.3389 602.533 -121.907 574.791 -118.805 532.298C-127.728 584.156 -95.9902 617.961 -60.773 627.814C-32.4532 635.844 3.01634 627.904 13.7621 591.92C15.4693 586.106 17.6612 579.614 19.9974 572.694C21.1159 569.381 22.2674 565.97 23.4147 562.489C38.0019 519.585 57.9803 460.682 57.7167 405.63C57.3695 340.176 28.9278 296.342 -29.0209 271.982C-29.5838 271.611 -34.0609 270.19 -41.2715 268.258ZM-166.218 296.164C-134.856 264.822 -71.5901 277.578 -46.0441 284.423C-40.9969 285.776 -37.4311 286.86 -35.7594 287.369C-35.2475 287.525 -34.9132 287.627 -34.7684 287.665C84.6717 337.997 39.7507 471.033 12.7547 550.358C12.4098 551.384 12.0667 552.404 11.7262 553.416L11.7008 553.491C8.82507 562.036 6.13551 570.028 4.08099 576.96C-5.61595 609.03 -37.1416 616.26 -62.4816 609.47L-63.3057 609.249C-94.1941 600.568 -122.215 571.477 -116.268 526.733C-116.868 562.331 -93.0574 585.448 -67.064 592.786L-66.24 593.006C-42.7541 599.299 -13.5646 592.547 -4.94215 562.84C-4.28399 560.857 -3.59845 558.773 -2.88458 556.602C-1.11572 551.223 0.82718 545.315 2.95868 539.122C14.775 504.087 30.8931 456.295 30.7132 411.643C30.5156 358.816 6.61316 321.939 -40.3911 302.057C-40.3952 302.056 -40.4015 302.054 -40.4099 302.052C-40.4164 302.05 -40.4241 302.047 -40.433 302.045L-40.4986 302.024L-40.6773 301.966C-46.0637 300.228 -124.445 274.94 -159.572 310.09C-177.302 327.641 -162.18 354.437 -144.796 385.15C-128.51 413.871 -108.898 448.57 -110.362 485.676C-110.78 445.984 -131.623 409.008 -149.027 378.133L-149.225 377.781C-169.173 342.626 -184.898 314.786 -166.218 296.164ZM-50.8723 300.795C-73.7401 294.667 -130.303 283.265 -158.35 311.3C-174.981 328.042 -161.065 352.748 -143.229 384.245L-142.771 385.06C-126.1 414.714 -106.05 450.379 -108.61 488.614C-103.331 452.786 -122.465 418.963 -138.091 391.341L-138.223 391.107C-153.647 363.789 -166.808 340.39 -151.333 324.663C-120.344 293.615 -51.4234 315.816 -46.371 317.443L-46.3676 317.445C-46.2057 317.497 -46.1102 317.527 -46.0844 317.534C-4.62787 335.046 16.4496 367.633 16.7507 414.305C17.0183 453.521 2.71516 495.622 -7.72517 526.353L-7.85326 526.73C-8.9009 529.952 -9.95556 533.056 -10.9643 536.026L-10.9657 536.03C-12.373 540.172 -13.6908 544.051 -14.7752 547.619C-22.5697 574.236 -48.2272 580.168 -69.0349 574.593L-69.653 574.427C-93.3321 567.699 -114.894 546.244 -112.999 513.327C-120.61 555.587 -95.0253 583.108 -66.4164 591.193L-65.7983 591.358C-43.1365 597.43 -15.1428 591.02 -6.59031 562.398C-4.60229 555.765 -1.88691 547.919 0.909602 539.839L0.910069 539.838L1.31058 538.68C25.4252 467.637 65.6028 349.006 -41.0939 303.856C-41.2447 303.595 -44.8978 302.395 -50.8723 300.795ZM-150.167 326.08C-125.49 301.557 -75.8356 311.55 -55.646 316.96C-53.5587 317.519 -51.785 318.03 -50.3961 318.431L-50.3941 318.432L-50.3908 318.433L-50.3902 318.433L-50.3896 318.433C-48.3554 319.02 -47.1485 319.368 -46.9933 319.278C46.965 358.791 11.6053 463.236 -9.5809 525.817L-9.65218 526.027C-12.368 533.69 -14.7673 540.997 -16.6294 547.122C-24.3538 572.654 -49.2277 578.133 -69.3621 572.518C-94.6255 565.538 -117.2 541.045 -110.24 503.561C-111.624 531.982 -93.1186 550.504 -72.5023 556.219L-71.8842 556.385C-53.9608 561.188 -31.629 556.131 -24.8283 533.222C-23.5113 528.968 -21.9195 524.22 -20.1879 519.054L-20.1874 519.052L-20.1869 519.051L-20.1864 519.049C-19.9511 518.347 -19.7133 517.638 -19.4733 516.921C-19.2786 516.339 -19.0825 515.753 -18.8851 515.162C-9.74418 488.464 2.45854 451.988 2.36228 417.736C2.16361 377.275 -16.2949 348.923 -52.2038 333.781C-54.8268 332.857 -115.789 312.327 -143.52 340.005C-157.017 353.512 -145.673 373.674 -132.459 397.159L-132.227 397.572C-118.829 421.053 -102.479 449.896 -106.308 480.398C-104.709 447.085 -122.3 415.884 -136.862 390.147C-152.436 362.568 -164.692 340.736 -150.167 326.08ZM-60.268 333.386C-77.5734 328.749 -120.73 320.056 -141.886 341.326C-154.514 353.841 -143.71 372.855 -130.192 396.571L-130.064 396.799C-118.215 417.804 -104.116 442.799 -103.609 469.672C-102.225 445.564 -115.03 422.756 -125.571 403.978L-125.571 403.978L-125.708 403.735C-137.115 383.676 -146.862 366.49 -135.129 354.84C-112.823 332.547 -65.2679 347.205 -58.481 349.297C-58.1113 349.411 -57.8625 349.488 -57.7455 349.519C12.4794 379.156 -13.8137 456.681 -29.5455 503.032C-31.1113 507.557 -32.4747 511.855 -33.6564 515.579L-33.6569 515.581C-33.9525 516.512 -34.2366 517.408 -34.5097 518.262C-40.6333 537.82 -59.4883 542.262 -74.9396 538.122L-75.3516 538.012C-91.9579 533.38 -107.094 518.778 -107.39 496.549C-112.574 527.963 -93.1723 548.487 -71.7994 554.42L-71.1814 554.586C-54.082 559.168 -32.8908 554.247 -26.2152 532.63C-24.8198 528.122 -23.0759 522.91 -21.2119 517.34L-21.1861 517.263C-20.8661 516.306 -20.5427 515.339 -20.2168 514.364L-20.1455 514.152C-1.8957 460.059 28.5692 369.76 -52.4393 335.484L-60.268 333.386ZM-133.963 356.256C-115.916 338.348 -79.6681 345.632 -65.0409 349.552C-62.0399 350.356 -59.8846 351.078 -59.0624 351.353L-59.0605 351.354C-58.979 351.381 -58.9106 351.404 -58.8559 351.422C-58.7813 351.447 -58.7321 351.463 -58.7095 351.469C9.71643 380.402 -16.0947 456.953 -31.6056 502.48C-33.2455 507.219 -34.6634 511.709 -35.9155 515.673L-35.9179 515.681L-35.9242 515.701C-36.1638 516.459 -36.3973 517.198 -36.6251 517.917C-42.2114 536.293 -60.2828 540.283 -74.8548 536.158C-93.2214 531.026 -109.597 513.245 -104.538 486.122C-103.948 503.653 -92.0504 515.914 -78.2012 519.804L-77.7892 519.915C-65.2222 523.282 -49.6378 519.509 -44.7139 503.605C-44.1006 501.316 -43.2672 498.833 -42.372 496.167C-41.8169 494.513 -41.2381 492.789 -40.6733 490.997L-40.6705 490.989C-27.8198 452.918 -6.42827 389.545 -63.9607 365.298C-64.0564 365.272 -64.2596 365.209 -64.5618 365.116L-64.5634 365.116C-70.1241 363.401 -109.098 351.379 -127.412 369.715C-137.041 379.279 -128.952 393.592 -119.657 409.993C-110.913 425.4 -100.271 444.325 -101.589 464.217C-102.171 441.556 -114.095 420.47 -124.141 402.83L-124.344 402.467C-135.599 382.375 -144.423 366.623 -133.963 356.256ZM-125.834 371.242C-111.363 356.792 -81.8181 362.721 -69.8692 365.923L-69.8685 365.923C-66.7787 366.751 -64.9247 367.248 -64.774 367.509C-9.03623 391.055 -30.1039 453.2 -42.7334 490.445C-44.2091 495.128 -45.5744 499.399 -46.7741 503.053C-51.1607 517.776 -65.4942 521.001 -77.2372 517.854L-77.6492 517.744C-93.2512 513.343 -107.164 497.691 -100.966 473.737C-94.8434 450.08 -107.152 428.048 -117.192 410.077L-117.239 409.993L-117.828 408.938L-118.368 407.966C-127.205 392.084 -134.139 379.621 -125.834 371.242Z" fill="url(#paint0_linear_53_10148)"/>
<defs>
<linearGradient id="paint0_linear_53_10148" x1="-388.441" y1="357.481" x2="253.587" y2="529.512" gradientUnits="userSpaceOnUse">
<stop stop-color="#FFD110" stop-opacity="0"/>
<stop offset="0.286458" stop-color="#109BFF"/>
<stop offset="0.614583" stop-color="#FF0469"/>
<stop offset="1" stop-color="#04DA00" stop-opacity="0"/>
</linearGradient>
</defs>
</svg>
