<svg width="422" height="1143" viewBox="0 0 422 1143" fill="none" xmlns="http://www.w3.org/2000/svg">
<path opacity="0.9" fill-rule="evenodd" clip-rule="evenodd" d="M887.838 103.266L889.41 105.845C905.469 132.715 916.319 162.117 922.143 193.297C928.212 225.936 927.878 258.619 921.179 290.359C906.289 362.466 860.105 424.388 787.243 469.451C635.086 563.815 588.916 746.039 551.681 892.998L551.344 894.326C534.859 960.653 519.055 1023.35 496.059 1067.92C470.65 1117.5 438.747 1141.13 395.336 1142.19C349.947 1143.17 303.364 1128.47 256.434 1097.91C218.92 1073.83 181.431 1039.77 144.536 996.658C85.0956 927.151 47.3393 856.263 43.0619 848.232C42.8256 847.789 42.6914 847.537 42.6615 847.488C20.8348 797.443 7.29916 747.81 2.44316 700.283C-2.15577 655.814 0.547071 611.718 10.7974 569.452C11.4381 566.81 12.0787 564.168 12.8623 561.761C-8.82199 645.407 -3.20976 740.068 43.3649 847.059C43.4057 847.126 43.5705 847.432 43.8566 847.964C48.5768 856.743 86.3123 926.925 145.097 995.995C202.791 1063.73 293.064 1143.76 395.519 1141.43C438.318 1140.42 470.364 1117.03 495.539 1067.59C518.392 1022.79 534.339 960.327 550.967 894.235C569.517 820.218 590.824 736.48 625.75 660.841C663.917 578.434 713.324 517.782 776.436 475.74C631.297 566.839 587.164 741.681 551.622 882.492L551.5 882.976C551.005 884.915 550.512 886.851 550.019 888.783L550.019 888.784L550.019 888.784C534.356 950.23 519.586 1008.17 498.239 1049.87C473.522 1097.42 442.649 1120.1 401.216 1121.24C357.662 1122.06 312.732 1107.97 267.883 1078.71C231.788 1055.38 195.767 1022.67 160.251 981.29C103.003 914.052 66.2659 845.426 62.6219 838.619C62.4454 838.289 62.3465 838.104 62.3267 838.072C41.409 790.045 28.4049 742.34 23.7031 696.648C19.2584 654.015 21.9726 611.519 31.6224 570.906C35.1003 556.565 39.3328 542.408 44.5545 528.291C12.2172 617.145 11.5733 719.478 63.0301 837.643C63.0714 837.711 63.235 838.015 63.5182 838.54C68.1267 847.095 104.4 914.434 160.811 980.627C216.178 1045.6 302.993 1122.59 401.256 1120.25C442.454 1119.25 473.093 1096.71 497.342 1049.45C519.36 1006.44 534.523 946.387 550.511 882.936C568.329 811.938 588.669 731.363 622.486 658.651C657.631 583.083 702.439 526.392 759.094 486.291C626.101 575.074 584.733 739.243 551.421 871.769C535.982 932.956 521.459 990.368 500.419 1031.82C476.914 1077.66 447.448 1099.48 407.708 1100.24C365.898 1101.28 322.854 1087.65 279.709 1059.61C245.175 1037.25 210.481 1005.66 176.72 966.105C121.73 901.546 86.5834 835.992 83.0384 829.38C82.8641 829.055 82.7662 828.872 82.7461 828.839C75.7557 812.701 69.6997 796.667 64.5828 780.748C69.667 796.331 75.6573 812.077 82.5517 827.993C82.6192 828.104 82.8463 828.515 83.2289 829.209C85.2777 832.923 91.7868 844.724 102.144 861.713C118.295 888.205 143.857 926.969 176.526 965.258C229.565 1027.47 312.778 1101.19 406.993 1099.06C446.59 1098.08 475.822 1076.4 499.001 1031.07C519.519 991.154 533.654 935.819 548.68 876.997L548.68 876.997L548.68 876.996L548.737 876.774C549.205 874.94 549.675 873.102 550.146 871.26L551.188 867.161C568.243 800.059 587.395 724.704 619.078 656.226C653.163 582.772 696.689 528.336 751.833 489.62C622.725 574.243 582.759 732.597 550.821 860.236C550.331 862.151 549.841 864.062 549.353 865.97C534.966 922.166 521.382 975.223 501.702 1013.35C479.266 1057.25 451.063 1077.98 412.69 1078.87C372.716 1079.76 331.325 1066.73 289.883 1039.9C256.91 1018.51 223.451 988.425 191.159 950.227C138.167 888.107 104.461 824.593 101.571 819.146L101.571 819.146L101.566 819.136C101.498 819.008 101.447 818.913 101.415 818.852L101.388 818.802C101.379 818.786 101.373 818.776 101.371 818.771C64.3659 733.28 54.8357 650.655 73.1287 573.579C89.0021 507.304 125.986 442.952 183.245 382.317C287.9 271.243 440.291 191.524 551.722 133.238C553.472 132.313 555.215 131.392 556.951 130.475L558.907 129.443L562.286 127.66C586.055 115.113 608.293 103.375 627.065 92.772C668.014 69.7375 711.779 65.5666 753.376 81.0481C790.536 95.054 823.749 123.686 847.189 162.135L848.618 164.479C877.501 213.438 887.902 272.7 876.467 327.265C864.376 385.388 829.502 435.991 774.745 474.62C914.151 383.423 917.896 240.619 861.291 145.177L859.862 142.832C826.497 88.1046 767.443 44.4796 699.971 49.0744C721.345 47.4409 742.764 50.5106 763.67 58.3718C801.676 72.1834 836.124 102.314 860.708 142.638L862.28 145.217C892.592 196.52 903.342 258.463 891.592 315.15C878.949 376.371 841.768 429.447 784.081 469.921C930.277 374.877 934.194 225.684 874.953 125.914L873.524 123.569C827.358 47.8438 733.726 -7.62689 635.275 48.2127C614.391 60.0837 589.391 73.1836 562.782 87.1267L562.776 87.1298C559.566 88.8117 556.333 90.5059 553.081 92.2117C437.181 152.796 284.902 232.724 173.085 341.177C284.967 232.259 437.353 152.309 550.814 92.7822L550.814 92.782L552.795 91.7428C556.042 90.0396 559.271 88.3478 562.476 86.6684L562.486 86.6628C589.099 72.7179 614.102 59.6162 634.989 47.7438C679.688 22.4224 727.125 17.9431 772.313 35.0944C812.726 49.6896 848.735 80.7977 874.319 122.763L875.891 125.342C907.489 178.756 918.588 243.38 906.432 302.566C892.692 368.658 851.593 425.932 787.276 468.784C946.144 370.119 951.381 211.715 888.706 106.274L887.134 103.695C839.11 24.9214 741.601 -32.6881 639.022 25.3469C614.679 39.2225 584.933 54.7845 553.403 71.1126L552.204 71.7412C435.16 133.14 282.714 213.11 167.601 320.785C283.083 212.337 435.999 131.923 550.958 71.4694L552.974 70.4092C555.469 69.0927 557.953 67.7825 560.426 66.479C562.219 65.5335 564.006 64.5916 565.786 63.6535L565.794 63.6492C592.427 49.6116 617.468 36.4127 638.593 24.6436C684.934 -1.67824 734.349 -6.07735 781.658 11.3886C823.632 26.9616 861.253 59.6594 887.838 103.266ZM149.375 365.279C157.045 357.092 164.958 349.06 173.085 341.177C165.726 348.341 158.543 355.629 151.558 363.045C150.828 363.786 150.1 364.531 149.375 365.279ZM135.529 380.535C140.048 375.391 144.666 370.306 149.375 365.279C144.577 370.233 139.911 375.35 135.529 380.535ZM631.476 70.4669C654.807 57.2757 677.842 50.5814 699.971 49.0744C676.982 50.8314 654.045 58.0293 631.853 70.5584C609.386 83.2905 582.127 97.6577 553.084 112.791C436.821 173.701 277.723 257.188 168.299 373.099C108.564 436.529 69.95 503.483 53.3445 572.777C37.4906 638.824 41.3865 708.586 64.5828 780.748C16.114 632.195 50.0024 498.45 168.156 372.865C277.345 257.096 436.444 173.609 552.707 112.699C581.75 97.5662 609.009 83.1991 631.476 70.4669ZM192.097 949.655C160.806 913.098 136.245 875.976 120.809 850.656C113.263 838.278 107.943 828.677 105.009 823.383L105.009 823.382L105.009 823.382C103.386 820.454 102.494 818.844 102.36 818.811C32.6608 658.064 59.3937 515.707 184.194 383.347C288.757 272.65 441.005 192.696 552.436 134.41C555.052 133.029 557.657 131.655 560.249 130.289L560.44 130.188C585.016 117.226 608.349 104.919 627.78 93.9442C718.117 42.7298 804.088 93.5455 846.394 162.941L847.681 165.051C901.059 255.161 898.392 388.781 770.997 476.219C819.642 439.96 850.834 393.22 862.005 339.94C872.657 287.782 863.073 230.917 835.242 184.211L833.813 181.866C811.373 145.058 779.487 117.547 744.408 104.845C704.698 89.8214 663.003 93.6951 623.838 115.963C605.98 126.014 584.869 137.08 562.257 148.933L562.256 148.933C558.796 150.747 555.301 152.579 551.777 154.428L550.686 155.001C444.559 210.704 299.438 286.873 199.752 392.513C193.247 399.44 187.012 406.418 181.05 413.444C88.8476 521.01 63.4231 635.694 103.678 762.025C108.61 777.788 114.569 793.679 121.556 809.681C121.577 809.716 121.676 809.902 121.853 810.232C125.261 816.611 157.379 876.717 207.537 935.418C238.451 971.884 270.063 1000.53 301.853 1021.02C341.356 1046.78 380.717 1059.13 419.09 1058.24C455.485 1057.28 482.659 1037.5 504.025 995.53C523.077 958.294 536.151 906.66 550.046 851.78L550.046 851.78L550.742 849.029C580.596 729.886 617.544 583.008 734.217 500.937C685.516 537.41 646.549 587.792 615.813 654.036C584.827 720.842 566.134 794.624 549.689 859.962L549.012 862.643L549.012 862.643C534.47 920.184 520.841 974.114 500.804 1012.93C478.46 1056.46 450.492 1077.05 412.73 1077.88C322.706 1080.02 242.953 1009.34 192.097 949.655ZM121.361 808.835C114.489 793.052 108.594 777.452 103.678 762.025C83.404 697.231 80.4686 634.593 94.7082 575.216C108.039 519.523 137.149 465.179 181.05 413.444C186.906 406.612 193.031 399.809 199.426 393.034C298.878 287.536 443.998 211.367 550.125 155.664L551.217 155.092C577.915 141.388 602.921 128.072 623.512 116.484C709.721 67.4647 791.815 116.142 832.263 182.49L833.55 184.6C884.588 270.357 882.025 397.805 760.916 481.375C806.989 446.85 836.763 402.494 847.115 351.912C857.36 302.253 848.125 248.069 821.58 203.473L820.294 201.363C798.855 166.197 768.581 140.275 734.583 127.236C696.668 113.047 656.808 116.766 619.519 137.891C599.631 149.051 576.032 161.509 550.649 174.732L550.64 174.737C449.251 227.866 310.332 300.66 215.075 401.823C163.054 457.335 129.279 515.872 114.87 576.109C97.9896 646.536 106.525 721.727 140.557 799.704C140.569 799.723 140.603 799.785 140.659 799.889C140.707 799.978 140.771 800.099 140.851 800.249C144.155 806.421 174.685 863.463 222.588 919.489C251.981 953.988 282.267 981.51 312.496 1001.03C350.152 1025.34 387.626 1037.23 424.164 1036.5C459.101 1035.78 484.725 1016.62 505.399 976.684C523.62 941.232 536.057 892.214 549.315 839.963L549.315 839.962L550 837.261L550.08 836.945L550.08 836.944C578.733 723.539 614.061 583.715 725.058 505.534C678.738 540.37 641.618 588.593 612.171 651.754C582.701 715.119 565.009 785.29 549.364 847.342L549.09 848.428C535.167 904.188 521.6 956.838 502.464 994.552C481.189 1036.14 454.628 1055.87 418.467 1056.69C332.492 1058.62 256.34 991.206 207.811 934.286C178.133 899.319 154.572 863.838 139.851 839.69C134.531 830.964 130.315 823.689 127.248 818.395C123.887 812.596 121.905 809.176 121.361 808.835ZM158.515 828.633C172.665 851.843 195.082 885.449 223.526 918.918C269.871 973.31 342.42 1037.45 424.582 1035.6C458.907 1034.93 484.296 1015.92 504.644 976.501C522.945 940.582 535.729 890.34 549.011 837.221L549.298 836.085C564.209 777.059 581.166 709.933 609.284 649.655C640.065 583.471 679.595 534.938 730.121 501.058C730.085 501.08 730.05 501.102 730.014 501.124C613.596 573.384 578.275 713.259 550.012 825.677L549.321 828.396C536.705 878.007 524.819 924.746 507.436 958.398C487.831 996.398 463.471 1014.46 430.278 1015.41C351.696 1017.33 282.463 955.986 238.159 903.886C192.284 850.335 163.205 795.372 160.516 790.29C160.394 790.06 160.326 789.932 160.314 789.911C127.957 715.736 119.729 644.216 135.928 577.42C149.84 520.059 181.751 464.266 231.439 411.785C322.072 315.691 454.146 246.428 550.704 195.923C554.311 194.013 557.886 192.123 561.422 190.253L561.432 190.248C581.482 179.646 600.241 169.727 616.149 160.849C651.796 140.724 689.587 137.302 725.706 150.656C757.531 162.769 786.479 187.57 806.774 220.861L808.061 222.971C833.319 265.457 842.206 316.959 832.367 364.119C821.592 416.345 789.252 461.551 738.75 495.481C738.838 495.426 738.927 495.37 739.015 495.315C866.687 416.195 870.781 288.926 820.785 204.28L819.499 202.17C780.909 138.869 702.834 92.5658 620.611 139.155C600.958 150.172 577.124 162.773 551.741 175.996L551.732 176.001C450.343 229.129 311.424 301.924 216.259 402.71C102.678 523.406 78.2105 653.127 141.638 799.367C141.679 799.433 141.833 799.718 142.099 800.208C143.713 803.186 149.432 813.733 158.515 828.633ZM239.24 903.549C212.174 871.813 190.992 839.705 177.556 817.667C171.513 807.754 167.087 799.933 164.386 795.16L164.386 795.16C162.552 791.919 161.513 790.083 161.303 789.951C100.939 650.847 124.228 527.634 232.154 412.957C322.786 316.863 454.626 247.743 551.184 197.238C554.73 195.361 558.245 193.502 561.722 191.663L561.897 191.571C581.953 180.966 600.717 171.044 616.629 162.164C694.866 118.004 769.156 161.792 805.888 222.044L807.032 223.92C854.221 303.409 850.79 422.22 733.945 497.657C778.78 465.831 807.473 424.089 817.385 376.469C826.583 331.95 818.279 282.987 794.308 242.611L793.164 240.735C773.869 209.085 746.482 185.263 716.544 173.607C682.077 160.854 646.265 164.356 612.493 183.337C596.247 192.649 576.531 202.985 555.808 213.848L555.667 213.922L553.158 215.237L550.473 216.645L548.589 217.635C457.404 265.519 332.935 330.881 247.66 421.513C200.591 471.433 170.024 524.155 156.988 578.732C141.612 642.131 149.296 710.123 179.978 780.496C179.984 780.505 180.001 780.536 180.03 780.589C180.062 780.649 180.11 780.738 180.172 780.854L180.174 780.859L180.174 780.859C182.759 785.692 210.458 837.484 253.873 888.518C295.707 937.621 361.481 995.926 436.015 994.222C467.373 993.435 490.703 976.317 509.239 940.256C525.437 909.069 536.425 865.93 548.108 820.059L548.111 820.049C548.591 818.163 549.073 816.273 549.556 814.379C575.917 709.732 608.844 579.611 714.928 510.151C669.802 542.16 633.995 587.31 606.019 647.465C579.208 705.294 562.894 769.265 548.789 825.78C522.448 930.273 501.65 1012.73 430.318 1014.42C352.114 1016.43 283.258 955.179 239.24 903.549ZM196.221 806.611C208.941 827.476 229.123 857.943 254.811 887.946C296.502 936.815 361.899 995.028 436.055 993.232C503.573 991.625 523.364 913.314 548.189 814.247C572.888 716.188 603.311 595.918 693.963 523.632C602.979 590.986 573.25 708.212 549.243 803.314C537.791 848.885 526.98 891.814 511.185 922.347C493.719 956.47 471.56 972.873 441.661 973.414C371.319 975.136 309.003 919.867 269.354 873.292C226.428 822.926 199.552 771.457 199.501 770.845C170.494 704.275 163.261 640.188 177.67 579.951C189.974 528.393 218.911 478.272 263.269 431.291C344.447 345.273 462.404 283.447 548.838 238.143L549.774 237.652C571.263 226.481 591.671 215.647 608.369 206.111C640.357 187.896 674.242 184.925 706.678 196.987C735.576 207.99 761.351 230.223 779.645 260.232L780.789 262.108C803.474 300.374 811.287 346.42 802.546 389.053C793.913 430.893 769.902 467.728 732.857 496.779C834.783 425.044 836.548 316.561 793.135 243.326L791.992 241.45C757.26 184.48 686.847 142.831 612.739 184.795C597.056 193.785 578.324 203.615 558.266 214.141L558.261 214.144C555.767 215.453 553.251 216.773 550.719 218.103L548.72 219.153C457.548 267.03 333.379 332.235 248.14 422.828C145.636 531.627 123.668 648.568 180.825 780.301C181.036 780.434 182.034 782.204 183.786 785.312C186.351 789.862 190.531 797.277 196.221 806.611ZM270.383 872.343C246.307 843.929 227.126 815.103 215.12 795.41C206.116 780.64 200.867 770.976 200.959 770.599C146.724 645.767 167.513 535.333 264.361 432.555C345.305 346.68 463.26 284.854 549.694 239.55L550.631 239.059C556.658 235.839 562.621 232.683 568.452 229.597L568.477 229.584L568.49 229.577L568.498 229.573L568.501 229.571L568.505 229.569L568.509 229.567L568.513 229.565C583.313 221.733 597.26 214.352 609.226 207.518C679.206 167.749 745.743 207.259 778.616 261.181L779.617 262.822C820.586 332.051 819 434.639 722.305 502.614C757.186 475.16 779.607 440.57 787.798 401.26C796.133 361.126 788.526 317.526 767.27 281.605L766.269 279.964C748.975 251.596 724.527 230.484 697.19 220.458C666.783 209.089 634.499 212.048 604.387 229.12C593.114 235.532 579.99 242.415 566.047 249.727L566.03 249.736C560.486 252.644 554.812 255.619 549.075 258.66C467.39 301.384 355.724 359.813 279.022 441.305C237.048 485.867 209.832 533.009 198.26 581.548C184.675 638.389 191.599 698.805 218.931 761.572C218.934 761.576 218.938 761.584 218.944 761.595C218.953 761.611 218.966 761.636 218.984 761.667C219.017 761.73 219.067 761.823 219.132 761.945C221.59 766.563 246.259 812.899 284.834 858.067C322.299 902.115 381.012 954.112 447.541 952.464C508.798 951.136 526.667 880.75 549.021 791.873C571.616 701.83 599.529 590.601 686.439 527.322C600.27 595.587 571.503 709.558 548.006 802.654L547.968 802.805C524.424 896.588 505.497 970.514 441.793 972.047C371.685 973.626 310.033 918.918 270.383 872.343ZM233.927 784.588C245.219 803.109 263.165 830.436 286.24 857.209C323.42 900.788 381.613 952.459 447.673 951.098C507.553 949.739 525.025 880.9 547.223 793.44L547.654 791.741C569.997 702.694 597.623 593.297 681.911 529.315C597.326 588.212 570.424 694.438 548.799 780.431L548.763 780.573C527.707 864.1 511.065 930.118 453.421 931.514C390.941 932.945 335.829 884.218 300.691 842.932C264.375 800.445 241.296 757.182 238.937 752.758C238.819 752.537 238.753 752.413 238.739 752.39C213.082 693.425 206.7 636.537 219.227 583.236C230.301 537.573 255.653 493.176 295.151 451.409C366.913 375.322 471.362 320.43 547.751 280.285L548.752 279.759L550.075 279.064L551.314 278.414L554.638 276.671C571.47 267.841 587.357 259.507 600.639 251.985C663.677 216.127 723.45 251.4 752.893 299.695L753.893 301.336C773.863 335.148 781.121 376.066 773.193 413.701C765.258 452.163 742.77 485.581 707.99 511.724C803.366 447.879 805.463 348.961 766.149 282.931L765.148 281.29C734.133 230.416 671.382 193.422 605.387 230.761C589.628 239.725 570.392 249.845 550.075 260.301C468.39 303.025 356.724 361.454 280.257 442.803C188.829 539.703 169.361 643.865 220.389 761.326C220.54 761.363 221.364 762.841 222.847 765.502L222.848 765.502L222.848 765.503C225.073 769.495 228.782 776.148 233.927 784.588ZM301.811 841.606C280.348 816.423 263.403 790.736 252.826 773.388C246.224 762.558 241.868 754.669 240.473 752.142C240.207 751.66 240.048 751.373 240.003 751.298C192.182 641.208 210.562 543.176 296.334 452.296C367.967 376.625 472.109 321.895 548.485 281.757L549.61 281.166C551.447 280.201 553.276 279.242 555.093 278.288L555.496 278.077C572.328 269.247 588.214 260.913 601.497 253.392C663.363 218.248 722.237 253.103 751.252 300.696L752.109 302.102C788.36 363.079 787.138 453.378 702.524 513.388C732.297 489.523 751.402 459.553 758.302 425.673C765.59 390.68 758.915 352.301 740.231 320.599L739.374 319.193C711.789 273.945 656.036 241.045 597.361 274.565C583.477 282.386 566.728 291.311 548.899 300.573L547.175 301.477L547.174 301.477C475.683 338.962 378.374 389.984 311.606 460.994C274.727 500.199 250.863 541.761 240.521 584.404C228.44 634.218 234.513 687.435 258.495 742.597C258.404 742.975 280.603 785.718 316.262 827.33C349.074 865.854 400.726 911.544 459.249 909.953C513.084 908.631 528.626 847.133 548.402 768.882L548.434 768.755C568.3 689.947 592.685 593.236 667.736 537.519C592.618 598.213 567.492 698.122 546.912 779.973L546.654 780.996C525.887 863.352 509.488 928.39 453.267 929.679C391.398 931.058 336.807 882.657 301.811 841.606ZM459.003 908.494C371.193 910.575 298.075 805.938 270.919 761.393C265.093 751.836 261.371 745.002 260.12 742.705L260.12 742.704C259.867 742.24 259.716 741.961 259.667 741.883C215.002 638.551 231.97 547.168 312.321 462.166C379.524 390.973 477.466 339.616 549.107 302.051L549.144 302.031C567.208 292.626 583.957 283.702 597.841 275.881C655.721 243.167 710.576 275.649 737.733 320.193L738.59 321.6C771.505 377.065 771.182 458.659 698.06 514.733C722.051 493.48 737.633 467.496 743.606 438.491C750.345 405.762 744.018 370.065 726.621 340.474L725.764 339.067C700.037 296.867 648.017 265.872 593.094 297.105C583.772 302.554 572.904 308.263 561.308 314.355L561.262 314.379C556.947 316.646 552.531 318.966 548.057 321.345C481.479 356.145 389.896 404.261 327.216 470.773C293.048 507.039 270.67 545.765 261.203 585.623C249.946 632.041 255.711 681.587 278.018 732.947C278.034 732.974 278.08 733.058 278.156 733.197L278.298 733.46C283.676 743.385 363.882 891.41 465.13 889.002C515.556 887.845 530.079 830.433 548.355 757.548C565.98 687.835 587.492 602.76 649.925 550.047C587.329 607.317 565.017 695.829 546.69 768.532L546.655 768.67C527.063 846.161 511.612 907.275 459.003 908.494ZM464.975 887.167C383.191 889.111 315.259 791.924 289.961 750.427C284.52 741.504 281.163 735.273 280.004 733.124C279.762 732.675 279.617 732.404 279.567 732.324C237.875 636.505 253.898 551.487 328.451 472.271C390.897 405.902 482.245 357.93 548.823 323.129C550.609 322.18 552.387 321.235 554.154 320.296L554.546 320.088L554.55 320.085L554.581 320.069C568.994 312.41 582.661 305.148 594.094 298.746C647.846 268.228 699.059 298.428 724.357 339.924L725.215 341.331C756.749 394.582 755.486 473.794 680.536 526.034C706.018 505.536 722.542 479.825 728.481 450.606C734.905 419.999 729.304 387.075 712.959 359.736L712.244 358.564C688.375 319.411 640.141 290.933 589.111 320.113C578.588 325.965 566.045 332.554 552.778 339.524L552.769 339.529L552.768 339.529C550.899 340.511 549.016 341.5 547.123 342.496C485.377 374.671 400.736 418.876 342.59 480.694C310.807 514.542 290.15 550.289 281.415 587.128C271.216 630.006 276.439 676.024 297.07 723.582C297.076 723.592 297.086 723.609 297.1 723.633C297.144 723.712 297.227 723.866 297.349 724.091L297.351 724.095C302.525 733.637 376.654 870.365 470.397 868.103C517.01 867.02 530.527 813.759 547.521 746.157L547.688 745.497C564.936 677.491 586.07 594.164 651.286 546.337C586.443 598.941 564.554 685.539 546.638 756.419L546.638 756.419L546.637 756.42L546.468 757.09L546.429 757.244C528.212 829.067 513.766 886.022 464.975 887.167ZM309.002 739.461C332.443 777.91 395.332 867.881 470.712 865.982C515.958 864.768 529.292 812.261 545.868 745.557C561.688 682.487 581.085 605.926 635.891 556.449C581.34 600.998 562.906 674.271 547.803 734.305L547.676 734.808L547.592 735.143C532.01 796.927 519.61 846.095 476.512 847.011C390.255 848.993 321.711 722.752 317.201 714.444L317.2 714.444L317.194 714.433L317.193 714.43C317.065 714.194 316.99 714.056 316.97 714.023C281.549 632.712 295.804 557.454 358.954 490.656C412.209 434.19 489.496 393.641 546.191 363.894L547.035 363.452C561.205 356.1 574.528 348.942 585.599 342.836C632.5 315.851 676.857 342.191 698.725 378.061L699.44 379.233C714.499 404.462 719.517 434.847 713.733 462.813C708.564 487.921 695.032 510.178 674.215 528.492C739.399 480.159 740.137 409.005 711.318 360.736C688.204 321.767 640.438 293.003 590.204 321.377C578.195 328.054 563.699 335.927 548.215 343.759L546.299 344.767C484.867 377.084 401.374 421.007 344.151 481.672C275.254 554.867 260.318 633.756 298.946 722.438C299.036 722.587 299.269 722.992 299.636 723.631L299.636 723.631L299.637 723.633C301.012 726.026 304.267 731.694 309.002 739.461ZM476.592 845.032C407.096 846.559 349.392 764.04 327.81 728.639C323.265 721.184 320.362 715.721 319.29 713.703C319.047 713.246 318.898 712.966 318.845 712.88C283.516 631.191 297.039 558.952 360.515 491.634C413.303 435.453 490.587 394.905 547.282 365.159L548.127 364.716L549.826 363.834L551.531 362.95C564.446 356.254 576.642 349.93 586.691 344.1C632.328 318.207 675.645 343.895 697.084 379.061L697.799 380.234C724.341 425.277 723.637 491.592 662.072 535.873C709.833 494.99 709.212 437.881 685.921 398.73L685.349 397.793C665.339 364.97 624.624 340.912 581.423 364.998C574.667 368.899 566.859 373.001 558.535 377.373L558.535 377.374L558.534 377.374L558.532 377.375L558.525 377.379C554.542 379.471 550.443 381.625 546.284 383.848C494.58 410.867 423.548 448.383 374.655 500.058C317.069 561.212 303.992 629.963 336.349 704.138C336.37 704.173 336.448 704.316 336.58 704.559C340.886 712.484 403.353 827.428 482.106 825.592C521.394 824.75 532.694 780.102 546.995 723.597L547.077 723.275L547.422 721.923L547.423 721.923C561.764 665.847 579.315 597.222 632.106 557.2C579.161 602.486 560.749 674.877 545.789 734.35L545.704 734.688C530.306 795.715 518.091 844.128 476.592 845.032ZM346.709 717.439C366.29 749.558 419.094 825.096 482.421 823.471C520.109 822.64 531.224 778.747 545.342 722.998L545.424 722.674C558.699 670.076 574.751 606.643 619.624 565.193C574.935 602.039 559.611 662.377 547.232 711.925C534.865 761.269 524.146 803.821 488.363 804.733C416.902 806.428 360.253 701.935 356.577 695.153L356.57 695.142C356.522 695.053 356.484 694.982 356.455 694.928C356.421 694.866 356.399 694.828 356.391 694.814C327.333 627.632 338.997 565.531 391.018 510.019C435.142 463.181 499.467 429.433 546.574 404.895C547.834 404.231 549.087 403.571 550.33 402.917C560.603 397.508 570.212 392.449 578.287 387.813C616.748 365.973 653.678 387.515 671.83 417.29L672.402 418.227C693.099 453.104 694.143 503.441 653.51 540.28C707.886 499.886 708.342 440.194 684.28 399.731C665.025 367.092 624.921 342.982 582.943 366.966C576.188 370.866 568.379 374.969 560.055 379.341C556.07 381.435 551.967 383.59 547.805 385.815C496.101 412.834 425.16 449.972 376.501 501.504C318.682 562.802 306.245 628.911 338.602 703.087C338.796 703.933 341.706 709.233 346.709 717.439ZM487.923 802.429C430.858 803.774 383.239 735.688 365.516 706.616C362.014 700.873 359.655 696.695 358.549 694.735L358.549 694.735L358.548 694.733C358.21 694.135 357.99 693.744 357.889 693.579C291.306 540.58 451.342 456.521 546.962 406.588L548.422 405.819C549.193 405.413 549.96 405.009 550.724 404.607L550.729 404.604C560.999 399.197 570.603 394.14 578.676 389.505C616.199 368.237 651.997 389.505 669.577 418.342L670.149 419.279C691.218 454.807 691.486 506.804 646.2 543.214C678.379 510.578 676.728 467.886 659.026 437.959L658.454 437.021C642.16 410.294 608.964 390.657 574.54 410.678C572.172 411.937 569.689 413.267 567.104 414.651L567.089 414.659L567.083 414.662L567.082 414.663C560.655 418.103 553.597 421.882 546.109 425.76C503.977 447.908 446.503 478.123 407.005 519.89C360.262 569.289 349.776 624.883 375.913 685.164C375.93 685.191 375.992 685.306 376.099 685.503C379.574 691.907 430.145 785.098 494.1 783.549C526.212 782.945 535.925 744.544 547.01 700.483C557.348 659.255 569.897 609.503 604.221 576.228C569.353 613.584 555.928 666.551 544.718 710.779L544.718 710.78L544.718 710.78L544.59 711.284C531.949 761.761 521.871 801.671 487.923 802.429ZM384.558 695.651C400.423 721.674 442.999 782.545 494.038 781.336C524.406 780.509 533.386 745.128 544.746 699.934L545.043 698.768C555.852 656.325 568.852 605.278 605.208 571.924C568.456 600.619 556.238 649.136 546.261 688.757L546.176 689.093C536.281 728.249 527.758 761.744 499.368 762.651C442.912 764.053 398.414 682.143 395.152 676.139L395.152 676.138L395.147 676.129L395.07 675.987L395.026 675.906C394.995 675.85 394.975 675.814 394.966 675.799C371.893 622.655 381.201 573.568 422.38 529.811C456.967 493.033 507.694 466.509 544.721 447.148L545.175 446.911C549.012 444.84 552.751 442.885 556.327 441.015L556.331 441.013L556.332 441.012L556.333 441.012L556.334 441.011C561.326 438.401 566 435.957 570.181 433.596C601.088 415.718 630.265 432.982 644.701 456.661L645.129 457.365C661.218 484.67 662.249 523.818 631.238 552.807C675.875 520.189 676.484 471.816 657.007 438.868L656.579 438.165C640.857 412.376 609.078 393.481 575.683 412.554C567.939 416.968 558.44 421.866 548.657 426.911L548.656 426.912L548.655 426.912L548.654 426.912L548.654 426.913L547.252 427.636C461.673 472.412 318.855 547.26 378.166 684.112C378.075 684.489 380.413 688.852 384.558 695.651ZM499.54 760.295C454.763 761.224 417.372 707.804 403.365 684.828C401.916 682.452 400.717 680.398 399.778 678.791L399.777 678.788L399.776 678.787L399.776 678.786C398.402 676.433 397.586 675.036 397.362 674.982C344.912 554.699 470.641 488.788 545.973 449.296L546.227 449.164C555.564 444.436 564.29 439.759 571.467 435.706C601.345 418.777 629.39 435.767 643.162 458.886C660.502 487.831 659.78 530.706 619.998 559.451C646.534 534.197 645.744 500.5 631.611 476.862L631.182 476.158C618.747 455.761 593.446 440.636 566.759 455.941C561.752 458.735 556.047 461.748 549.842 465.024C548.317 465.83 546.762 466.651 545.179 467.489C512.945 484.246 469.172 507.395 438.835 539.396C403.077 577.274 395.091 620.089 415.1 666.097C416.724 669.288 455.29 742.571 505.717 741.414C530.292 740.819 537.632 711.954 546.182 678.334L546.332 677.743C554.706 643.962 565.093 602.564 595.755 577.544C564.675 607.164 553.349 651.862 544.055 688.778C534.068 728.311 526.094 759.542 499.54 760.295ZM422.264 673.628C434.27 693.322 466.761 739.759 505.369 738.733C528.252 738.288 535.076 710.974 543.547 676.868L543.63 676.541C551.248 646.444 560.314 610.632 583.711 585.141C561.008 606.376 552.679 639.002 545.822 665.862L545.733 666.21C538.543 695.033 532.359 719.705 511.077 720.138C470.489 721.095 439.199 665.193 434.733 657.215C434.601 656.98 434.493 656.786 434.408 656.637C434.337 656.511 434.282 656.416 434.245 656.355C395.136 566.358 488.504 517.477 544.336 488.262C549.817 485.436 554.906 482.642 559.316 480.221L559.317 480.221C560.419 479.615 561.479 479.034 562.492 478.48C585.571 465.697 607.086 478.306 617.806 495.89L618.092 496.359C629.451 515.426 630.583 542.477 611.114 563.452C643.849 538.786 644.001 502.428 629.358 477.913L628.929 477.21C617.066 457.751 592.949 443.512 567.525 457.725C562.221 460.685 555.966 463.992 549.281 467.527L549.172 467.585C548.03 468.189 546.875 468.799 545.71 469.416L545.456 469.55C480.399 503.742 371.798 560.82 416.833 664.719L422.264 673.628ZM511.249 717.783C478.525 718.438 451.219 679.451 441.071 662.805C438.99 659.391 437.623 656.803 437.101 655.816L437.101 655.816L437.1 655.813L437.095 655.804C436.976 655.578 436.902 655.439 436.875 655.395C398.819 567.65 490.871 519.249 545.766 490.607C551.504 487.647 556.813 484.724 561.5 482.142L562.465 481.611L563.035 481.298L563.551 481.014L564.155 480.682C585.685 468.521 606.068 480.856 615.982 497.645C628.537 518.742 628 549.857 599.193 570.636C614.216 553.777 614.021 531.783 604.573 515.856L604.287 515.387C595.568 501.086 577.695 490.758 558.979 501.203C556.374 502.791 553.392 504.364 550.189 506.053C548.203 507.101 546.133 508.193 544.014 509.362L544.004 509.367C498.211 533.425 421.984 573.473 454.053 647.174C454.119 647.282 454.252 647.52 454.45 647.874L454.452 647.879C458.11 654.417 483.746 700.239 517.1 699.423C534.568 699.064 539.745 678.543 545.654 655.003C551.193 632.879 558.087 605.791 576.986 588.427C557.398 610.059 549.778 640.299 543.468 665.661L543.336 666.179C535.975 694.898 530.204 717.415 511.249 717.783ZM516.986 696.598C490.666 697.208 468.403 665.438 460.113 651.84L460.113 651.839C457.969 648.323 456.683 646.213 456.774 645.836C425.755 574.383 500.59 535.192 545.443 511.706C550.979 508.653 556.045 505.886 560.408 503.548C577.574 493.725 593.795 503.453 601.942 516.816L602.228 517.285C612.856 535.246 611.916 562.189 584.863 579.003C558.143 595.608 550.04 627.071 543.431 652.735L543.181 653.706L543.012 654.362L542.653 655.747C536.777 678.396 532.168 696.168 516.986 696.598Z" fill="url(#paint0_linear_53_10643)"/>
<defs>
<linearGradient id="paint0_linear_53_10643" x1="749.458" y1="942.699" x2="304.039" y2="212.077" gradientUnits="userSpaceOnUse">
<stop stop-color="#04DA00" stop-opacity="0"/>
<stop offset="0.3125" stop-color="#FF0469"/>
<stop offset="0.703125" stop-color="#109BFF"/>
<stop offset="1" stop-color="#FFD110" stop-opacity="0"/>
</linearGradient>
</defs>
</svg>
