<svg width="65" height="28" viewBox="0 0 65 28" fill="none" xmlns="http://www.w3.org/2000/svg">
<path d="M8.25664 7.71346H6.74707L11.5274 0.0585523H13.053L14.8409 7.71346H13.3688L12.9138 5.62576H9.49794L10.2313 4.39455H12.6462L12.0145 1.51994L8.25664 7.71346Z" fill="url(#paint0_linear_53_10296)"/>
<path d="M15.5837 7.71346L17.1147 0.0585523H20.7012C22.1573 0.0585523 22.7657 0.652744 22.5266 1.84113C22.3553 2.7119 21.7576 3.33464 20.7333 3.70935C21.7076 3.89849 22.0984 4.47841 21.9057 5.4491C21.6023 6.95867 20.653 7.71346 19.0578 7.71346H15.5837ZM19.2452 6.48225C19.8733 6.48225 20.2127 6.3552 20.38 5.51869C20.6396 4.22079 18.9874 4.32496 18.0488 4.32496H17.6206L17.8026 3.40958C19.5492 3.40958 21.0278 3.34762 21.0278 1.93213C21.1134 1.50388 20.8922 1.28976 20.364 1.28976H18.287L17.2485 6.48225H19.2452Z" fill="url(#paint1_linear_53_10296)"/>
<path d="M22.4938 7.39227L22.7508 6.10753C23.461 6.39303 24.3966 6.53578 25.3638 6.53578C26.5379 6.53578 27.2034 6.14322 27.3605 5.3581C27.4747 4.78711 27.1713 4.50161 26.4504 4.50161H25.2513C23.6847 4.50161 23.0441 3.78786 23.3296 2.36038C23.6436 0.79014 24.9159 0.00502147 27.1463 0.00502147C28.0028 0.00502147 28.3779 0.00502147 29.3966 0.0489831L29.1541 1.31023C27.6647 1.21273 27.6018 1.23623 26.9001 1.23623C25.6154 1.23623 24.898 1.61095 24.7482 2.36038C24.634 2.93137 24.8873 3.21687 25.5083 3.21687H26.7074C28.374 3.21687 29.0645 3.93061 28.779 5.3581C28.4578 6.96403 27.2373 7.76699 25.1175 7.76699C24.1504 7.76699 23.2112 7.64208 22.4938 7.39227Z" fill="url(#paint2_linear_53_10296)"/>
<path d="M36.1455 0.0585523L35.8993 1.28976H33.7045L32.4198 7.71346H31.0012L32.286 1.28976H30.0912L30.3374 0.0585523H36.1455Z" fill="url(#paint3_linear_53_10296)"/>
<path d="M35.4229 7.70275L36.9538 0.0585523H40.4333C41.9964 0.0585523 42.6406 0.741962 42.3658 2.10878C42.1481 3.1901 41.3862 3.95559 40.08 4.40525L41.8466 7.71346H40.1925L38.4869 4.40525L37.4604 4.37849L37.6432 3.34762C39.3895 3.34762 40.7963 3.73569 40.8723 2.15161C40.9418 1.50426 40.726 1.30582 40.0907 1.30582H38.1476L36.8682 7.70275H35.4229Z" fill="url(#paint4_linear_53_10296)"/>
<path d="M44.0841 7.71346H42.5745L47.3548 0.0585523H48.8805L50.6684 7.71346H49.1963L48.7413 5.62576H44.7433L45.9617 4.39455H48.4736L47.842 1.51994L44.0841 7.71346Z" fill="url(#paint5_linear_53_10296)"/>
<path d="M56.8988 7.38725C56.1886 7.63706 55.4142 7.76197 54.5755 7.76197C51.8276 7.76197 50.7195 6.43262 51.2513 3.77392C51.7544 1.25797 53.38 0 56.1279 0C57.0469 0 57.0954 0.000473724 58.3082 0.0535309L58.0512 1.30521C57.9201 1.30521 56.756 1.23121 55.9887 1.23121C54.1508 1.23121 53.0624 2.07878 52.7234 3.77392C52.3558 5.61181 53.0909 6.53076 54.9288 6.53076C55.6961 6.53076 56.4384 6.38801 57.1557 6.10251L56.8988 7.38725Z" fill="url(#paint6_linear_53_10296)"/>
<path d="M65 0.0585523L64.7537 1.28976H62.5589L61.2742 7.71346H59.8556L61.1404 1.28976H58.9456L59.1919 0.0585523H65Z" fill="url(#paint7_linear_53_10296)"/>
<path d="M20.3251 13.2435L11.5935 13.1465L7.08209 13.195H11.5935L20.3251 13.2435Z" fill="url(#paint8_linear_53_10296)"/>
<path fill-rule="evenodd" clip-rule="evenodd" d="M3.58401 24.3655L2.9104 27.6023H3.97761L5.82096 19.1616H10.6719L10.9629 18.1914H5.96649L7.42177 10.624H13.2914L13.5825 9.65381H6.64562L5.854 13.4577C5.34024 13.842 4.71749 14.0558 4.07358 14.0668L1.94012 14.1032L4.00661 14.1619C4.66123 14.1805 5.24159 14.5791 5.49631 15.1764L4.95707 17.7676L4.58397 18.0749C4.31613 18.2954 3.98474 18.4245 3.63827 18.4432L2.9104 18.4825L3.58713 18.5241C3.94413 18.546 4.25661 18.7715 4.38994 19.1034L4.58041 19.5775L3.96415 22.5388C3.441 22.9473 2.79852 23.175 2.13346 23.1863L0 23.2227L2.0665 23.2814C2.74617 23.3007 3.3458 23.7298 3.58401 24.3655Z" fill="url(#paint9_linear_53_10296)"/>
<path fill-rule="evenodd" clip-rule="evenodd" d="M14.7475 9.65405H16.2028L13.5833 22.2665H12.225L14.7475 9.65405ZM19.8664 18.9855C19.6174 18.3742 19.03 17.9646 18.3662 17.9458L16.2997 17.8871L18.4332 17.8507C19.0779 17.8397 19.7013 17.6254 20.2154 17.2402L21.7327 9.65419H23.1879L21.4416 17.8038C21.1553 17.9628 20.8331 18.0463 20.5056 18.0463H20.3259L20.5919 18.0843C20.8633 18.1231 21.1215 18.2265 21.3446 18.3859L20.5684 22.2666H19.2102L19.8664 18.9855ZM11.8969 23.7354C11.6049 23.4607 11.2171 23.2938 10.7989 23.2819L8.73242 23.2232L10.8659 23.1868C11.2806 23.1797 11.6865 23.0885 12.0602 22.9218C12.1095 22.7088 12.1646 22.4904 12.2249 22.2668H13.5832C13.546 22.4691 13.4994 22.7237 13.4505 22.9979C13.2264 23.2789 12.615 23.3275 12.3218 23.3275C12.9742 23.4175 13.2471 23.5939 13.3229 23.7346C13.2648 24.0832 13.2129 24.4181 13.1807 24.6784L13.1466 25.0803C13.1466 25.5654 13.5832 26.9722 16.4938 26.5356C18.4275 26.2455 18.7415 24.6488 19.1368 22.6382L19.1368 22.6381L19.1369 22.6378L19.1374 22.6353C19.1613 22.5139 19.1854 22.391 19.2103 22.2668H20.5685C20.55 22.3673 20.5313 22.4738 20.5116 22.5853L20.5116 22.5855C20.3556 23.4713 20.1442 24.6712 19.5541 25.7109C18.8575 26.9383 17.5894 27.9423 15.5236 27.9423C12.1841 27.9423 11.4656 26.3375 11.8969 23.7354Z" fill="url(#paint10_linear_53_10296)"/>
<path fill-rule="evenodd" clip-rule="evenodd" d="M24.2058 9.65381H32.889L32.5494 11.2061H29.1439L28.721 13.2664C28.5294 13.5859 28.1982 13.599 27.7619 13.6163H27.7619C27.6651 13.6201 27.5631 13.6241 27.4564 13.6318C28.1802 13.7007 28.4387 13.9946 28.5277 14.208L26.5592 23.7975C26.3383 24.1411 25.9651 24.1559 25.4768 24.1752C25.3662 24.1795 25.2497 24.1841 25.1277 24.1929C25.9386 24.2701 26.2385 24.5944 26.3458 24.8369L25.7582 27.6995H23.8663L24.1199 26.464L23.9137 26.0519C23.7367 25.6981 23.3319 25.4516 22.8923 25.4299L21.9262 25.3823L22.8911 25.3405C23.3672 25.3198 23.8129 25.1816 24.1744 24.9426L24.4727 24.7453L26.4971 14.8839C26.0912 14.0315 25.239 13.4684 24.282 13.4412L21.1499 13.3522L24.3839 13.297C25.3257 13.281 26.2376 12.9784 27.0001 12.4336L27.2521 11.2061H23.8662L24.2058 9.65381Z" fill="url(#paint11_linear_53_10296)"/>
<path fill-rule="evenodd" clip-rule="evenodd" d="M41.718 9.65405H38.8074C39.1862 9.65405 39.8519 9.79254 40.1547 10.1951L39.2823 14.5571C38.7771 14.9213 38.1712 15.1236 37.5454 15.1343L35.4119 15.1707L37.4784 15.2293C38.1197 15.2475 38.6897 15.6305 38.9522 16.2077L37.7404 22.2667H40.1658L40.942 18.3859L41.039 17.8038L42.7853 9.65426H41.7178L41.718 9.65405ZM33.7626 9.65419H36.1881L34.5582 17.5018C34.2045 17.7282 33.5951 17.7717 33.2775 17.7717C33.8938 17.8547 34.2455 17.9966 34.4265 18.1359L33.5686 22.2666H31.2401L33.0769 13.0825L33.0105 12.9171C32.8772 12.5852 32.5647 12.3597 32.2077 12.3378L31.5309 12.2962L32.2588 12.2569C32.6053 12.2382 32.9367 12.1091 33.2045 11.8886L33.3377 11.7789L33.7626 9.65419ZM30.9122 23.7357C30.6202 23.4609 30.2323 23.2939 29.8141 23.282L27.7476 23.2233L29.881 23.1869C30.2958 23.1799 30.7018 23.0886 31.0755 22.9219C31.1248 22.7089 31.18 22.4904 31.2403 22.2668H33.5687L33.5657 22.2834L33.5657 22.2834C33.4704 22.8021 33.3203 23.6194 33.2641 24.2376L33.2777 24.9833C33.3747 25.2744 34.2813 26.1387 35.7031 25.7595C36.6583 25.5048 37.0493 25.0202 37.3286 24.0999L37.2793 23.9772C37.146 23.6453 36.8335 23.4198 36.4765 23.3979L35.7997 23.3564L36.5276 23.317C36.8741 23.2983 37.2055 23.1693 37.4733 22.9487L37.6298 22.8198C37.6544 22.6983 37.6796 22.5722 37.7057 22.4414L37.7405 22.2668H40.1175C40.0989 22.3674 40.0802 22.4739 40.0606 22.5854L40.0605 22.5855C39.9045 23.4713 39.6931 24.6713 39.1031 25.711C38.4065 26.9384 36.6047 27.9424 34.5389 27.9424C31.1995 27.9424 30.481 26.3377 30.9122 23.7357Z" fill="url(#paint12_linear_53_10296)"/>
<path fill-rule="evenodd" clip-rule="evenodd" d="M43.4634 9.65405H44.0456L44.0455 9.65446H46.6646L46.6646 9.6544H49.4782L49.4553 9.7019C49.9881 9.7043 53.2024 9.85608 52.5345 13.1953C52.0588 15.5742 51.6614 17.3477 51.4188 17.92C50.7575 18.9813 49.946 19.6355 49.1438 20.0212L50.2062 27.6996H47.0531L46.18 20.4233H44.6778L43.1716 27.6999H40.067L40.0671 27.6995H38.4675C39.7435 27.4368 40.1775 26.8257 40.3086 26.5625L43.8091 10.0793C43.7302 9.91478 43.5605 9.73894 43.4634 9.65405ZM46.3847 12.1769H48.2654L48.2683 12.1709L48.2657 12.1766C48.69 12.1913 49.4505 12.4653 49.419 13.4085C49.1672 13.5897 48.8682 13.6956 48.557 13.7124L47.8291 13.7517L48.5058 13.7932C48.8303 13.8131 49.1179 14.0012 49.2678 14.2844C49.0834 15.1441 48.8618 16.0147 48.7277 16.5417L48.7277 16.5418C48.6985 16.6566 48.6734 16.755 48.6538 16.8335C48.4242 17.2928 48.0293 17.6564 47.5269 17.8255L47.5378 17.8038H45.22L45.9861 14.1027C45.8666 13.9325 45.511 13.7305 44.724 13.6245C45.1002 13.6245 45.886 13.5634 46.171 13.2096L46.3847 12.1769Z" fill="url(#paint13_linear_53_10296)"/>
<path fill-rule="evenodd" clip-rule="evenodd" d="M63.2443 9.55664H54.4156L54.4156 9.55666H52.6698C53.1539 9.55666 54.1509 10.0091 54.2185 10.7393L53.977 12.1881L53.0759 16.7361H53.0577L52.9612 17.3151L52.4806 19.7404C52.062 19.988 51.562 20.1312 51.0311 20.1542L49.8561 20.2051L51.0325 20.2631C51.5398 20.2881 52.009 20.559 52.2401 20.954L51.7637 23.3587L51.5385 23.5075C51.0983 23.7986 50.5556 23.9669 49.976 23.992L48.801 24.043L49.9774 24.101C50.5127 24.1273 51.0056 24.4275 51.2211 24.8583L51.3969 25.2097L50.9229 27.6021H54.9006L54.9007 27.602H59.6548L60.3339 24.1093H55.6143L55.9839 22.3007C55.7224 22.0827 55.1914 21.8568 54.2338 21.7267C54.721 21.7267 55.6669 21.6576 56.1898 21.2931L56.4073 20.2287H60.3341L61.0132 16.7361H57.1209L57.8742 13.0493H62.5652L63.2443 9.55664Z" fill="url(#paint14_linear_53_10296)"/>
<defs>
<linearGradient id="paint0_linear_53_10296" x1="45.2106" y1="-16.4442" x2="38.2232" y2="31.5448" gradientUnits="userSpaceOnUse">
<stop offset="0.360751" stop-color="#FF80A1"/>
<stop offset="0.46842" stop-color="#FF6A92"/>
<stop offset="0.683768" stop-color="#D73C65"/>
<stop offset="1" stop-color="#1F0826"/>
</linearGradient>
<linearGradient id="paint1_linear_53_10296" x1="45.2106" y1="-16.4442" x2="38.2232" y2="31.5448" gradientUnits="userSpaceOnUse">
<stop offset="0.360751" stop-color="#FF80A1"/>
<stop offset="0.46842" stop-color="#FF6A92"/>
<stop offset="0.683768" stop-color="#D73C65"/>
<stop offset="1" stop-color="#1F0826"/>
</linearGradient>
<linearGradient id="paint2_linear_53_10296" x1="45.2106" y1="-16.4442" x2="38.2232" y2="31.5448" gradientUnits="userSpaceOnUse">
<stop offset="0.360751" stop-color="#FF80A1"/>
<stop offset="0.46842" stop-color="#FF6A92"/>
<stop offset="0.683768" stop-color="#D73C65"/>
<stop offset="1" stop-color="#1F0826"/>
</linearGradient>
<linearGradient id="paint3_linear_53_10296" x1="45.2106" y1="-16.4442" x2="38.2232" y2="31.5448" gradientUnits="userSpaceOnUse">
<stop offset="0.360751" stop-color="#FF80A1"/>
<stop offset="0.46842" stop-color="#FF6A92"/>
<stop offset="0.683768" stop-color="#D73C65"/>
<stop offset="1" stop-color="#1F0826"/>
</linearGradient>
<linearGradient id="paint4_linear_53_10296" x1="45.2106" y1="-16.4442" x2="38.2232" y2="31.5448" gradientUnits="userSpaceOnUse">
<stop offset="0.360751" stop-color="#FF80A1"/>
<stop offset="0.46842" stop-color="#FF6A92"/>
<stop offset="0.683768" stop-color="#D73C65"/>
<stop offset="1" stop-color="#1F0826"/>
</linearGradient>
<linearGradient id="paint5_linear_53_10296" x1="45.2106" y1="-16.4442" x2="38.2232" y2="31.5448" gradientUnits="userSpaceOnUse">
<stop offset="0.360751" stop-color="#FF80A1"/>
<stop offset="0.46842" stop-color="#FF6A92"/>
<stop offset="0.683768" stop-color="#D73C65"/>
<stop offset="1" stop-color="#1F0826"/>
</linearGradient>
<linearGradient id="paint6_linear_53_10296" x1="45.2106" y1="-16.4442" x2="38.2232" y2="31.5448" gradientUnits="userSpaceOnUse">
<stop offset="0.360751" stop-color="#FF80A1"/>
<stop offset="0.46842" stop-color="#FF6A92"/>
<stop offset="0.683768" stop-color="#D73C65"/>
<stop offset="1" stop-color="#1F0826"/>
</linearGradient>
<linearGradient id="paint7_linear_53_10296" x1="45.2106" y1="-16.4442" x2="38.2232" y2="31.5448" gradientUnits="userSpaceOnUse">
<stop offset="0.360751" stop-color="#FF80A1"/>
<stop offset="0.46842" stop-color="#FF6A92"/>
<stop offset="0.683768" stop-color="#D73C65"/>
<stop offset="1" stop-color="#1F0826"/>
</linearGradient>
<linearGradient id="paint8_linear_53_10296" x1="9.52731" y1="13.0405" x2="9.52697" y2="13.2578" gradientUnits="userSpaceOnUse">
<stop offset="0.360751" stop-color="#FF80A1"/>
<stop offset="0.46842" stop-color="#FF6A92"/>
<stop offset="0.683768" stop-color="#D73C65"/>
<stop offset="1" stop-color="#1F0826"/>
</linearGradient>
<linearGradient id="paint9_linear_53_10296" x1="5.34442" y1="-9.95215" x2="-7.93645" y2="25.2324" gradientUnits="userSpaceOnUse">
<stop offset="0.360751" stop-color="#FF80A1"/>
<stop offset="0.46842" stop-color="#FF6A92"/>
<stop offset="0.683768" stop-color="#D73C65"/>
<stop offset="1" stop-color="#1F0826"/>
</linearGradient>
<linearGradient id="paint10_linear_53_10296" x1="14.4204" y1="-10.3231" x2="1.32843" y2="25.9043" gradientUnits="userSpaceOnUse">
<stop offset="0.360751" stop-color="#FF80A1"/>
<stop offset="0.46842" stop-color="#FF6A92"/>
<stop offset="0.683768" stop-color="#D73C65"/>
<stop offset="1" stop-color="#1F0826"/>
</linearGradient>
<linearGradient id="paint11_linear_53_10296" x1="25.769" y1="-10.0584" x2="10.8911" y2="23.8241" gradientUnits="userSpaceOnUse">
<stop offset="0.360751" stop-color="#FF80A1"/>
<stop offset="0.46842" stop-color="#FF6A92"/>
<stop offset="0.683768" stop-color="#D73C65"/>
<stop offset="1" stop-color="#1F0826"/>
</linearGradient>
<linearGradient id="paint12_linear_53_10296" x1="33.6646" y1="-10.3232" x2="20.9681" y2="26.225" gradientUnits="userSpaceOnUse">
<stop offset="0.360751" stop-color="#FF80A1"/>
<stop offset="0.46842" stop-color="#FF6A92"/>
<stop offset="0.683768" stop-color="#D73C65"/>
<stop offset="1" stop-color="#1F0826"/>
</linearGradient>
<linearGradient id="paint13_linear_53_10296" x1="44.0384" y1="-10.0583" x2="31.0458" y2="25.627" gradientUnits="userSpaceOnUse">
<stop offset="0.360751" stop-color="#FF80A1"/>
<stop offset="0.46842" stop-color="#FF6A92"/>
<stop offset="0.683768" stop-color="#D73C65"/>
<stop offset="1" stop-color="#1F0826"/>
</linearGradient>
<linearGradient id="paint14_linear_53_10296" x1="54.4842" y1="-10.1553" x2="41.6903" y2="25.6936" gradientUnits="userSpaceOnUse">
<stop offset="0.360751" stop-color="#FF80A1"/>
<stop offset="0.46842" stop-color="#FF6A92"/>
<stop offset="0.683768" stop-color="#D73C65"/>
<stop offset="1" stop-color="#1F0826"/>
</linearGradient>
</defs>
</svg>
