<svg width="92" height="32" viewBox="0 0 92 32" fill="none" xmlns="http://www.w3.org/2000/svg">
<path fill-rule="evenodd" clip-rule="evenodd" d="M57.5284 27.5594C57.3429 28.0037 57.0705 28.4039 56.7322 28.739C56.3947 29.0735 55.9908 29.3434 55.542 29.5275C55.1103 29.7044 54.6367 29.8021 54.1392 29.8021C53.6418 29.8021 53.168 29.7044 52.7366 29.5275C52.2875 29.3434 51.8838 29.0735 51.5461 28.7391C51.208 28.404 50.9356 28.0037 50.7499 27.5594C50.5713 27.1318 50.4728 26.6622 50.4728 26.1687V21.7832C50.4728 21.6806 50.4527 21.5828 50.4165 21.4935C50.3788 21.401 50.3232 21.3181 50.2538 21.2489C50.1842 21.1798 50.1009 21.1244 50.0076 21.0869C49.9181 21.0508 49.8196 21.0311 49.7156 21.0311C49.6115 21.0311 49.5129 21.0508 49.4234 21.0869C49.3304 21.1242 49.2471 21.1798 49.1772 21.2489C49.1079 21.318 49.0524 21.401 49.0146 21.4935C48.9783 21.5828 48.9582 21.6806 48.9582 21.7832V26.1687C48.9582 26.863 49.0979 27.5256 49.3509 28.1306C49.6136 28.7587 49.9984 29.3238 50.4756 29.7964C50.9537 30.2698 51.5242 30.651 52.158 30.9111C52.7688 31.1617 53.4381 31.3 54.1392 31.3C54.5182 31.3 54.8881 31.2596 55.2445 31.1829C55.6105 31.104 55.9633 30.9864 56.2976 30.835C56.6308 30.6841 56.9451 30.4998 57.2356 30.2866C57.4373 30.1385 57.6277 29.9766 57.8057 29.8019V30.551C57.8057 30.6536 57.8256 30.7511 57.8619 30.84C57.8999 30.9329 57.9554 31.0157 58.0243 31.0839C58.0932 31.1519 58.1768 31.2069 58.2708 31.2446C58.3252 31.2662 58.3828 31.282 58.4427 31.291C58.4818 31.297 58.522 31.3 58.563 31.3C58.6665 31.3 58.7651 31.2803 58.855 31.2446C58.949 31.2069 59.0326 31.1519 59.1016 31.0839C59.1707 31.0157 59.226 30.9329 59.2641 30.84C59.3002 30.7511 59.3201 30.6536 59.3201 30.551V21.7832C59.3201 21.6806 59.3002 21.5828 59.2639 21.4935C59.2262 21.401 59.1707 21.318 59.1011 21.2489C59.0315 21.1798 58.9482 21.1244 58.855 21.0869C58.7655 21.0508 58.6669 21.0311 58.563 21.0311C58.4589 21.0311 58.3603 21.0508 58.2708 21.0869C58.1778 21.1244 58.0944 21.1798 58.0247 21.2489C57.9554 21.318 57.8997 21.401 57.862 21.4935C57.8257 21.5828 57.8057 21.6806 57.8057 21.7832V26.1687C57.8057 26.6622 57.7072 27.1318 57.5284 27.5594ZM63.8116 28.7383C64.1492 29.0732 64.5531 29.343 65.002 29.5272C65.4336 29.7044 65.9074 29.8021 66.4051 29.8021C66.9026 29.8021 67.3765 29.7044 67.808 29.5274C68.257 29.343 68.6606 29.0732 68.9985 28.7383C69.3365 28.4031 69.6087 28.0025 69.7945 27.5577C69.9729 27.1297 70.0714 26.6595 70.0714 26.1656C70.0714 25.6714 69.9729 25.2012 69.7945 24.7733C69.6087 24.3286 69.3365 23.9279 68.9985 23.5927C68.6606 23.2579 68.257 22.988 67.808 22.8037C67.3765 22.6266 66.9026 22.529 66.4051 22.529C65.9074 22.529 65.4335 22.6266 65.002 22.8037C64.5529 22.988 64.1492 23.2579 63.8116 23.5927C63.4736 23.9279 63.2012 24.3286 63.0156 24.7735C62.837 25.2014 62.7384 25.6714 62.7384 26.1656C62.7384 26.6595 62.837 27.1297 63.0156 27.5576C63.2012 28.0025 63.4735 28.403 63.8116 28.7383ZM70.1622 30.9131C70.1494 30.8895 70.1378 30.8651 70.1276 30.8401C70.0915 30.7511 70.0714 30.6537 70.0714 30.551V29.802C69.8936 29.9765 69.7029 30.1385 69.5012 30.2866C69.2108 30.4998 68.8967 30.6842 68.5635 30.8351C68.229 30.9865 67.8763 31.1041 67.5104 31.183C67.1538 31.2596 66.784 31.3 66.4051 31.3C65.7042 31.3 65.035 31.1615 64.4241 30.9107C63.7904 30.6504 63.2197 30.2689 62.7418 29.7951C62.2644 29.322 61.8795 28.7566 61.6169 28.1281C61.3638 27.5228 61.2241 26.8599 61.2241 26.1656C61.2241 25.4712 61.3638 24.8083 61.6169 24.2028C61.8795 23.5745 62.2644 23.009 62.7418 22.5358C63.2197 22.0622 63.7904 21.6806 64.4241 21.4203C65.035 21.1695 65.7043 21.0311 66.4051 21.0311C66.7858 21.0311 67.1572 21.0719 67.5151 21.1495C67.8825 21.2292 68.2356 21.3479 68.5698 21.5009C68.9026 21.6535 69.2163 21.8398 69.5063 22.0558L69.5061 22.0561C69.7061 22.2052 69.8952 22.3682 70.0714 22.5439V16.8276C70.0714 16.7251 70.0915 16.6274 70.1276 16.5386C70.1656 16.4456 70.221 16.363 70.29 16.2948C70.3591 16.2265 70.4427 16.1716 70.5366 16.1342C70.6265 16.0982 70.725 16.0786 70.8287 16.0786C70.9325 16.0786 71.031 16.0982 71.1208 16.1342C71.1714 16.1543 71.219 16.1797 71.263 16.2096L71.2722 16.2007L71.3674 16.2948C71.4363 16.363 71.4918 16.4456 71.5298 16.5386C71.5661 16.6274 71.5859 16.7251 71.5859 16.8276V30.551C71.5859 30.6537 71.5661 30.7513 71.5298 30.8399C71.4993 30.9144 71.4576 30.9825 71.4068 31.0416V31.0449L71.3674 31.0838L71.3279 31.1229H71.3246C71.2649 31.173 71.1963 31.2143 71.1208 31.2445C71.031 31.2804 70.9325 31.3 70.8287 31.3C70.725 31.3 70.6265 31.2804 70.5366 31.2445C70.4427 31.2069 70.3591 31.152 70.29 31.084L70.1949 30.9897L70.204 30.9807L70.1952 30.9677C70.1893 30.9589 70.1836 30.9498 70.178 30.9406L70.17 30.9269L70.1622 30.9131ZM73.6494 30.8492C73.6887 30.9381 73.7459 31.0185 73.816 31.0856C73.8864 31.1528 73.9702 31.2072 74.0618 31.2441L74.0621 31.2436C74.1519 31.28 74.2486 31.3 74.3476 31.3C74.4512 31.3 74.5498 31.2804 74.6396 31.2445C74.7331 31.2072 74.8164 31.1524 74.8856 31.0838H74.8863V31.0832C74.9554 31.0148 75.011 30.9323 75.0487 30.8401C75.0848 30.7511 75.1048 30.6536 75.1048 30.551V21.7999C75.1048 21.6973 75.0848 21.5998 75.0487 21.5108C75.011 21.4185 74.9554 21.3362 74.8863 21.2676L74.8861 21.2671H74.8856C74.8164 21.1985 74.7331 21.1436 74.6396 21.1064C74.5498 21.0705 74.4512 21.0508 74.3476 21.0508C74.2486 21.0508 74.1519 21.0709 74.0621 21.1072L74.0618 21.1068C73.9702 21.1437 73.8864 21.1981 73.816 21.2654C73.7459 21.3325 73.6887 21.4128 73.6494 21.5017C73.6116 21.5879 73.5903 21.6821 73.5903 21.7799V30.5709C73.5903 30.6689 73.6116 30.7629 73.6494 30.8492ZM75.1387 17.5996C75.1024 17.514 75.0519 17.4352 74.9909 17.3663V17.3631L74.9514 17.3241C74.8728 17.2462 74.778 17.1826 74.6729 17.1388C74.5714 17.0966 74.4612 17.073 74.3476 17.073C74.2339 17.073 74.1238 17.0966 74.0222 17.1388C73.9596 17.1649 73.9007 17.1981 73.8464 17.2374L73.8387 17.2299L73.7435 17.3241C73.6649 17.4017 73.6008 17.4956 73.5565 17.5996C73.5135 17.7 73.4898 17.809 73.4898 17.9214C73.4898 18.0339 73.5135 18.1429 73.5565 18.2433C73.6008 18.3474 73.6649 18.4412 73.7435 18.5188L73.783 18.5579H73.7862C73.8559 18.6182 73.9356 18.668 74.0222 18.704C74.1238 18.7463 74.2337 18.7698 74.3476 18.7698C74.4612 18.7698 74.5714 18.7463 74.6729 18.704C74.7594 18.668 74.8391 18.6182 74.9088 18.5577H74.9121L74.9514 18.5188C75.0301 18.441 75.0943 18.3473 75.1387 18.2432C75.1814 18.1427 75.2054 18.0339 75.2054 17.9214C75.2054 17.8091 75.1814 17.7 75.1387 17.5996ZM80.4849 29.5274C80.036 29.343 79.6322 29.0732 79.2945 28.7383C78.9566 28.4031 78.6841 28.0025 78.4986 27.5576C78.3201 27.1297 78.2213 26.6595 78.2213 26.1656C78.2213 25.6714 78.3201 25.2014 78.4986 24.7735C78.6841 24.3286 78.9566 23.9279 79.2945 23.5927C79.6322 23.2579 80.036 22.988 80.4849 22.8037C80.9166 22.6266 81.3905 22.529 81.8881 22.529C82.3857 22.529 82.8596 22.6266 83.2909 22.8037C83.7401 22.988 84.1437 23.2579 84.4814 23.5927C84.8194 23.9279 85.0917 24.3286 85.2774 24.7733C85.4559 25.2012 85.5545 25.6714 85.5545 26.1656C85.5545 26.6595 85.4559 27.1297 85.2774 27.5577C85.0917 28.0025 84.8194 28.4031 84.4814 28.7383C84.1437 29.0732 83.7401 29.343 83.2909 29.5274C82.8596 29.7044 82.3857 29.8021 81.8881 29.8021C81.3905 29.8021 80.9166 29.7044 80.4849 29.5274ZM83.8688 30.9107C84.5026 30.6504 85.0732 30.2689 85.5513 29.7951C86.0287 29.322 86.4135 28.7566 86.6761 28.1281C86.9293 27.5228 87.0688 26.8599 87.0688 26.1656C87.0688 25.4712 86.9293 24.8083 86.6761 24.2028C86.4135 23.5745 86.0287 23.009 85.5513 22.5358C85.0732 22.0622 84.5026 21.6806 83.8688 21.4203C83.2581 21.1695 82.5887 21.0311 81.8881 21.0311C81.1872 21.0311 80.518 21.1695 79.907 21.4203C79.2735 21.6806 78.7026 22.0622 78.2248 22.5358C77.7474 23.009 77.3626 23.5745 77.0999 24.2028C76.8467 24.8083 76.707 25.4712 76.707 26.1656C76.707 26.8599 76.8467 27.5228 77.0999 28.1281C77.3626 28.7566 77.7474 29.322 78.2248 29.7951C78.7026 30.2687 79.2734 30.6504 79.907 30.9107C80.5178 31.1617 81.1872 31.3 81.8881 31.3C82.5889 31.3 83.2581 31.1615 83.8688 30.9107ZM39.6822 28.7383C40.0198 29.0732 40.4237 29.343 40.8726 29.5272C41.3041 29.7044 41.778 29.8021 42.2756 29.8021C42.7732 29.8021 43.2471 29.7044 43.6786 29.5274C44.1276 29.343 44.5314 29.0732 44.869 28.7383C45.207 28.4031 45.4794 28.0025 45.6651 27.5577C45.8436 27.1297 45.9422 26.6595 45.9422 26.1656C45.9422 25.6714 45.8436 25.2014 45.6649 24.7733C45.4795 24.3286 45.207 23.9279 44.869 23.5927C44.5314 23.2579 44.1276 22.988 43.6786 22.8037C43.2471 22.6266 42.7732 22.529 42.2756 22.529C41.778 22.529 41.3041 22.6266 40.8726 22.8037C40.4236 22.988 40.0198 23.2579 39.6822 23.5927C39.3442 23.9279 39.0718 24.3286 38.8861 24.7735C38.7076 25.2014 38.609 25.6714 38.609 26.1656C38.609 26.6595 38.7076 27.1297 38.8861 27.5576C39.0718 28.0025 39.3441 28.403 39.6822 28.7383ZM45.9388 22.5358C46.4162 23.009 46.801 23.5745 47.0637 24.2028C47.3168 24.8083 47.4565 25.4712 47.4565 26.1656V30.551C47.4565 30.6537 47.4367 30.7511 47.4004 30.8401C47.3627 30.9323 47.3073 31.0148 47.238 31.0833V31.084H47.2373C47.1682 31.1524 47.0848 31.2072 46.9914 31.2445C46.9016 31.2804 46.8029 31.3 46.6993 31.3C46.5956 31.3 46.497 31.2804 46.4071 31.2445C46.3132 31.2069 46.2296 31.152 46.1607 31.084C46.0918 31.0157 46.0362 30.933 45.9982 30.8401C45.962 30.7511 45.9422 30.6536 45.9422 30.551V29.802C45.7642 29.9765 45.5736 30.1385 45.3718 30.2866C45.0813 30.4998 44.7672 30.6842 44.434 30.8351C44.0995 30.9865 43.7468 31.1041 43.3809 31.183C43.0243 31.2596 42.6545 31.3 42.2756 31.3C41.5748 31.3 40.9055 31.1617 40.2947 30.9107C39.6611 30.6504 39.0903 30.2689 38.6124 29.7951C38.135 29.3221 37.7502 28.7566 37.4874 28.1282C37.2344 27.5229 37.0947 26.8599 37.0947 26.1656C37.0947 25.4712 37.2344 24.8083 37.4874 24.2028C37.7502 23.5745 38.135 23.009 38.6124 22.5358C39.0903 22.0622 39.6611 21.6806 40.2947 21.4203C40.9055 21.1695 41.5748 21.0311 42.2756 21.0311C42.9764 21.0311 43.6457 21.1695 44.2565 21.4203C44.8901 21.6806 45.4608 22.0622 45.9388 22.5358ZM86.8677 4.78406V1.57169C86.8677 1.46954 86.8478 1.37213 86.8114 1.28384C86.7738 1.19226 86.718 1.11023 86.6482 1.04153C86.5789 0.973236 86.4955 0.918457 86.4023 0.881409C86.3126 0.845673 86.214 0.82608 86.1106 0.82608C86.0108 0.82608 85.9139 0.846069 85.8248 0.881927V0.882446C85.7325 0.919769 85.6488 0.973907 85.579 1.04062C85.509 1.1077 85.4516 1.1879 85.4126 1.27686C85.3746 1.36325 85.3534 1.45737 85.3534 1.55515V11.9142C85.3534 12.3394 85.4387 12.7452 85.5933 13.1158C85.7538 13.5001 85.9887 13.8457 86.2802 14.1345C86.5723 14.4236 86.9215 14.6566 87.3098 14.8153C87.684 14.9686 88.094 15.053 88.5235 15.053C88.733 15.053 88.9391 15.0323 89.1392 14.9927C89.3439 14.9522 89.5429 14.8916 89.7334 14.8134C89.9262 14.7342 90.1106 14.6363 90.2832 14.5223C90.4576 14.4072 90.6189 14.2766 90.7638 14.1333L90.7694 14.1277L90.7715 14.1256L90.7798 14.1175L90.7812 14.1163L90.7814 14.1166L90.7906 14.1071L90.8775 14.0233L90.8673 14.0132C90.8716 14.007 90.8757 14.0007 90.8797 13.9943L90.8886 13.98C90.8928 13.973 90.8969 13.9659 90.9008 13.9588C90.9089 13.9442 90.9165 13.9294 90.9235 13.9143C90.9276 13.9055 90.9315 13.8966 90.9352 13.8876C90.971 13.8016 90.9891 13.7092 90.9892 13.6165C90.9895 13.5242 90.9721 13.4316 90.9372 13.3442C90.9036 13.2594 90.8534 13.1788 90.7872 13.1073L90.7867 13.1068L90.7758 13.0954L90.7737 13.0933L90.7647 13.0842L90.7638 13.0827C90.6903 13.0101 90.6056 12.9549 90.5148 12.9173C90.4211 12.8785 90.3216 12.8591 90.2226 12.8591C90.1235 12.8591 90.0241 12.8785 89.9304 12.9173C89.8566 12.9477 89.7868 12.99 89.7239 13.0437H89.7207L89.6814 13.0827C89.6444 13.1193 89.606 13.1539 89.5663 13.1866C89.5233 13.2219 89.4787 13.2549 89.4329 13.2852C89.3448 13.3436 89.2507 13.3936 89.1512 13.4341C89.0552 13.4733 88.953 13.504 88.8456 13.5246C88.8107 13.5314 88.7752 13.5371 88.7392 13.5417L88.72 13.544L88.6969 13.5465C88.6827 13.5479 88.6685 13.5492 88.6542 13.5503C88.6416 13.5512 88.6289 13.552 88.6161 13.5527C88.6019 13.5535 88.5876 13.5541 88.5733 13.5545C88.5568 13.555 88.5402 13.5552 88.5235 13.5552C88.2965 13.5552 88.0814 13.5114 87.8865 13.432C87.6842 13.3494 87.5021 13.2282 87.3499 13.0776C87.1978 12.9267 87.0754 12.7462 86.992 12.5453C86.9119 12.3522 86.8677 12.1393 86.8677 11.9142V6.28189H89.5288C89.6325 6.28189 89.731 6.26233 89.8208 6.22632C89.9143 6.18912 89.9977 6.13434 90.0668 6.0658H90.0675V6.06525C90.1368 5.9967 90.1922 5.91425 90.2299 5.82187C90.2661 5.73309 90.286 5.63553 90.286 5.53299C90.286 5.43427 90.2658 5.33844 90.2295 5.25031C90.1922 5.15964 90.1372 5.07693 90.0691 5.00732C90.0013 4.93784 89.9202 4.8812 89.8303 4.84256C89.7429 4.80496 89.6479 4.78406 89.549 4.78406H86.8677ZM77.7304 14.8351C77.6608 14.766 77.6053 14.6831 77.5677 14.5905C77.5313 14.5013 77.5114 14.4034 77.5114 14.3007V5.53299C77.5114 5.43042 77.5313 5.33289 77.5674 5.24408C77.5979 5.16956 77.6396 5.10168 77.6905 5.04239V5.03922L77.7298 5.00031L77.7693 4.96124H77.7725C77.8325 4.91098 77.901 4.86969 77.9764 4.83951C78.0663 4.80365 78.1648 4.78406 78.2685 4.78406C78.3722 4.78406 78.4708 4.80365 78.5606 4.83951C78.6546 4.87708 78.7381 4.93188 78.8072 5.00015L78.9023 5.09427L78.8932 5.10327C78.9234 5.14694 78.9491 5.19406 78.9696 5.24408C79.0059 5.33289 79.0258 5.43042 79.0258 5.53299V6.29684C79.202 6.12125 79.3911 5.95819 79.5912 5.80905L79.5909 5.80878C79.881 5.59293 80.1946 5.40646 80.5274 5.254C80.8615 5.10089 81.2147 4.98218 81.5821 4.9025C81.94 4.82495 82.3116 4.78406 82.6922 4.78406C82.7958 4.78406 82.8945 4.80365 82.9844 4.83951C83.0784 4.87708 83.1619 4.93188 83.2308 5.00015L83.326 5.09427L83.3169 5.10327C83.3472 5.14694 83.3729 5.19406 83.3932 5.24408C83.4296 5.33289 83.4494 5.43042 83.4494 5.53299C83.4494 5.63541 83.4296 5.73309 83.3932 5.82187C83.3553 5.91479 83.2998 5.9975 83.2308 6.06564C83.1619 6.13394 83.0784 6.18887 82.9844 6.22632C82.8945 6.26233 82.7958 6.28189 82.6922 6.28189C82.1948 6.28189 81.721 6.37958 81.2896 6.55652C80.8406 6.74072 80.437 7.01044 80.0992 7.345C79.761 7.68011 79.4886 8.08032 79.303 8.52472C79.1243 8.95218 79.0258 9.42188 79.0258 9.91522V14.3007C79.0258 14.4034 79.0057 14.5013 78.9695 14.5905C78.9317 14.6831 78.8761 14.7661 78.8068 14.8351C78.7371 14.9043 78.6537 14.9597 78.5606 14.9972C78.4712 15.0333 78.3726 15.053 78.2685 15.053C78.1646 15.053 78.0659 15.0333 77.9764 14.9972C77.8835 14.9597 77.8001 14.9043 77.7304 14.8351ZM69.0233 13.2802C68.5746 13.0959 68.1707 12.8261 67.8331 12.4913C67.495 12.1559 67.2227 11.7555 67.0371 11.3107C66.8585 10.8828 66.7599 10.4124 66.7599 9.91855C66.7599 9.4245 66.8585 8.95428 67.0371 8.52643C67.2227 8.08151 67.4951 7.68103 67.8331 7.34579C68.1707 7.01099 68.5744 6.741 69.0233 6.55679C69.455 6.3797 69.9289 6.28189 70.4266 6.28189C70.9242 6.28189 71.3981 6.3797 71.8295 6.55679C72.2786 6.741 72.6823 7.01099 73.02 7.34579C73.3579 7.68103 73.6302 8.08151 73.8158 8.52643C73.9944 8.95444 74.0929 9.4245 74.0929 9.91855C74.0929 10.4126 73.9944 10.8828 73.8159 11.3107C73.6302 11.7556 73.3579 12.1561 73.02 12.4913C72.6823 12.8261 72.2786 13.0961 71.8295 13.2803C71.3981 13.4574 70.9242 13.5552 70.4266 13.5552C69.9289 13.5552 69.455 13.4574 69.0233 13.2802ZM75.2147 7.9559C74.9519 7.32742 74.5671 6.7619 74.0897 6.28879C73.6116 5.81528 73.041 5.43359 72.4073 5.1734C71.7965 4.92249 71.1273 4.78406 70.4266 4.78406C69.7258 4.78406 69.0565 4.92249 68.4456 5.1734C67.8121 5.43359 67.2411 5.81528 66.7634 6.28879C66.286 6.7619 65.901 7.32742 65.6384 7.9559C65.3853 8.56125 65.2456 9.22427 65.2456 9.91855C65.2456 10.6128 65.3853 11.2758 65.6384 11.8812C65.901 12.5096 66.286 13.075 66.7634 13.5482C67.2411 14.0218 67.8121 14.4035 68.4456 14.6638C69.0565 14.9146 69.7258 15.053 70.4266 15.053C70.8054 15.053 71.1752 15.0125 71.5318 14.9358C71.8978 14.857 72.2505 14.7394 72.585 14.588C72.9182 14.4371 73.2323 14.2528 73.5226 14.0396C73.7244 13.8916 73.9151 13.7295 74.0929 13.5551V14.3041C74.0929 14.4066 74.113 14.5041 74.1491 14.593C74.1871 14.6859 74.2425 14.7686 74.3115 14.8369C74.3387 14.8637 74.368 14.8885 74.3994 14.9109C74.4214 14.9266 74.4443 14.9412 74.4682 14.9546C74.4969 14.9707 74.5269 14.985 74.5581 14.9975C74.6479 15.0333 74.7465 15.053 74.8502 15.053C74.9539 15.053 75.0525 15.0333 75.1423 14.9976C75.2357 14.9603 75.319 14.9053 75.3883 14.8369H75.3889V14.8363C75.458 14.7679 75.5135 14.6854 75.5514 14.593C75.5874 14.5041 75.6074 14.4067 75.6074 14.3041V9.91855C75.6074 9.22427 75.4678 8.56125 75.2147 7.9559ZM62.4484 14.8351C62.3789 14.766 62.3234 14.6831 62.2857 14.5905C62.2494 14.5013 62.2294 14.4034 62.2294 14.3007V9.21912C62.2294 8.81824 62.1501 8.4375 62.0062 8.09167C61.8567 7.73224 61.6373 7.40906 61.3645 7.1387C61.0921 6.86859 60.7663 6.65128 60.4038 6.50305C60.0547 6.3605 59.6707 6.28189 59.2666 6.28189C58.8622 6.28189 58.4784 6.3605 58.1295 6.50305C57.767 6.65128 57.4412 6.86859 57.1688 7.1387C56.8959 7.40906 56.6764 7.73224 56.5271 8.09167C56.3832 8.4375 56.3039 8.81824 56.3039 9.21912V14.3007C56.3039 14.4034 56.284 14.5013 56.2474 14.5905C56.2098 14.6831 56.1543 14.7661 56.0849 14.8351C56.0153 14.9043 55.9319 14.9597 55.8388 14.9972C55.7493 15.0333 55.6506 15.053 55.5466 15.053C55.4427 15.053 55.344 15.0333 55.2545 14.9972C55.1614 14.9597 55.078 14.9043 55.0086 14.8351C54.939 14.766 54.8835 14.6831 54.8459 14.5905C54.8094 14.5013 54.7895 14.4034 54.7895 14.3007V9.21912C54.7895 8.81824 54.7102 8.4375 54.5664 8.09167C54.417 7.73224 54.1974 7.40906 53.9247 7.1387C53.6523 6.86859 53.3264 6.65128 52.9639 6.50305C52.615 6.3605 52.231 6.28189 51.8267 6.28189C51.4226 6.28189 51.0386 6.3605 50.6896 6.50305C50.3271 6.65128 50.0014 6.86859 49.729 7.1387C49.4562 7.40906 49.2368 7.73224 49.0872 8.09167C48.9433 8.4375 48.8641 8.81824 48.8641 9.21912V14.3007C48.8641 14.4034 48.8441 14.5013 48.8078 14.5905C48.7701 14.6831 48.7145 14.7661 48.6451 14.8351C48.5754 14.9043 48.492 14.9597 48.3989 14.9972C48.3095 15.0333 48.2109 15.053 48.107 15.053C48.0027 15.053 47.9043 15.0333 47.8148 14.9972C47.7216 14.9597 47.6383 14.9043 47.5686 14.8351C47.4993 14.766 47.4436 14.6831 47.4059 14.5905C47.3696 14.5013 47.3497 14.4034 47.3497 14.3007V5.53299C47.3497 5.43042 47.3696 5.33289 47.4057 5.24393C47.4437 5.15103 47.4993 5.06845 47.5682 5.00015C47.6372 4.93188 47.7207 4.87708 47.8148 4.83951C47.9045 4.80365 48.0031 4.78406 48.107 4.78406C48.2105 4.78406 48.3091 4.80365 48.3989 4.83951C48.493 4.87708 48.5764 4.93188 48.6455 5.00015L48.7406 5.09427L48.7315 5.10327C48.7619 5.14694 48.7874 5.19406 48.8079 5.24408C48.8441 5.33289 48.8641 5.43042 48.8641 5.53299V5.89069C49.0026 5.7688 49.1488 5.65552 49.3018 5.55176C49.5409 5.38965 49.7972 5.25015 50.0672 5.13647C50.3395 5.02188 50.627 4.93292 50.9261 4.87326C51.2187 4.81464 51.52 4.78406 51.8267 4.78406C52.222 4.78406 52.6053 4.83447 52.9706 4.92923C53.3475 5.02689 53.7039 5.17194 54.0339 5.35709C54.3662 5.54358 54.672 5.77133 54.9449 6.03323C55.1681 6.24738 55.3694 6.48465 55.5453 6.741C55.7166 6.48651 55.9147 6.25079 56.1352 6.03772C56.4066 5.7757 56.7125 5.54767 57.0455 5.36081C57.3773 5.17447 57.7365 5.02875 58.1156 4.9303C58.4839 4.83487 58.8698 4.78406 59.2666 4.78406C59.8737 4.78406 60.4529 4.90329 60.9814 5.11954C61.5297 5.34387 62.0226 5.67285 62.4352 6.08127C62.847 6.48929 63.1788 6.97736 63.4052 7.52036C63.6234 8.04379 63.7438 8.61761 63.7438 9.21912V14.3007C63.7438 14.4034 63.7239 14.5013 63.6875 14.5905C63.6497 14.6831 63.5942 14.766 63.5249 14.8351C63.4551 14.9043 63.3717 14.9597 63.2787 14.9972C63.1892 15.0333 63.0906 15.053 62.9865 15.053C62.8826 15.053 62.7839 15.0333 62.6944 14.9972C62.6014 14.9597 62.5181 14.9043 62.4484 14.8351ZM43.6092 14.8295C43.9726 14.68 44.3 14.4612 44.5737 14.1904C44.8474 13.9196 45.0686 13.5958 45.2198 13.2364C45.3652 12.8904 45.4456 12.5118 45.4456 12.1162C45.4456 11.7206 45.3652 11.3422 45.2198 10.9961C45.0686 10.6366 44.8474 10.3128 44.5737 10.042C44.3 9.77112 43.9726 9.55249 43.6092 9.40292C43.2593 9.25894 42.8766 9.17941 42.4767 9.17941H40.0638C39.8673 9.17941 39.6798 9.1405 39.5092 9.07037C39.3317 8.99731 39.1713 8.88998 39.0365 8.75659C38.9018 8.62344 38.793 8.46463 38.7193 8.28915C38.6483 8.12027 38.609 7.93488 38.609 7.74057C38.609 7.54617 38.6483 7.3609 38.7193 7.19217C38.7932 7.01654 38.9018 6.85773 39.0365 6.72446C39.1713 6.59131 39.3317 6.48386 39.5092 6.4108C39.68 6.34067 39.8673 6.30176 40.0638 6.30176H43.4821C43.5859 6.30176 43.6845 6.28204 43.7741 6.24619C43.8682 6.20871 43.9517 6.15381 44.0207 6.08563C44.0896 6.01736 44.1451 5.93478 44.1832 5.84174C44.2194 5.75293 44.2392 5.65527 44.2392 5.55283C44.2392 5.45026 44.2194 5.35272 44.1832 5.26392C44.1454 5.17154 44.09 5.08911 44.0207 5.02054V5.02002H44.0201C43.9509 4.95148 43.8675 4.89655 43.7741 4.85934C43.6844 4.82349 43.5858 4.80389 43.4821 4.80389H40.0638C39.6639 4.80389 39.2811 4.88345 38.9314 5.02728C38.568 5.17685 38.2406 5.39548 37.9668 5.66638C37.6929 5.93716 37.4718 6.26099 37.3207 6.62042C37.1751 6.96637 37.0947 7.34488 37.0947 7.74057C37.0947 8.13617 37.1751 8.5148 37.3207 8.86072C37.4718 9.22018 37.6929 9.54401 37.9668 9.81479C38.2406 10.0856 38.5678 10.3044 38.9314 10.4539C39.2811 10.5979 39.6639 10.6774 40.0638 10.6774H42.4767C42.8765 10.6774 43.2403 10.8394 43.5039 11.1001C43.6386 11.2335 43.7473 11.3922 43.8211 11.5678C43.892 11.7365 43.9313 11.9218 43.9313 12.1162C43.9313 12.3105 43.892 12.4959 43.8211 12.6648C43.7473 12.8403 43.6386 12.9991 43.5039 13.1324C43.3691 13.2656 43.2087 13.3731 43.0312 13.446C42.8606 13.5163 42.6731 13.5551 42.4767 13.5551H37.8519C37.7482 13.5551 37.6496 13.5748 37.5598 13.6106C37.4658 13.6481 37.3821 13.703 37.3132 13.7713L37.2181 13.8654L37.2272 13.8744C37.197 13.9181 37.1713 13.9652 37.1508 14.0151C37.1145 14.104 37.0947 14.2014 37.0947 14.304C37.0947 14.4066 37.1145 14.5041 37.1508 14.593C37.1888 14.6859 37.2443 14.7686 37.3132 14.8368C37.3821 14.9051 37.4658 14.9599 37.5598 14.9975C37.6496 15.0333 37.7482 15.053 37.8519 15.053H42.4767C42.8766 15.053 43.2594 14.9735 43.6092 14.8295Z" fill="white"/>
<g clip-path="url(#clip0_266_10820)">
<path fill-rule="evenodd" clip-rule="evenodd" d="M14.1486 1.55493H18.6704L10.5966 15.7771L6.21868 15.7512L14.1486 1.55493ZM8.70873 1.55496H13.2305L5.26884 15.7612L0.778809 15.7513L8.70873 1.55496ZM23.8512 1.55493H19.3294L11.3995 15.7512L15.8095 15.7771L23.8512 1.55493Z" fill="#1398D5"/>
<path fill-rule="evenodd" clip-rule="evenodd" d="M5.32441 16.7648L0.853027 16.7598L8.1843 30.0122L10.478 25.7986L5.32441 16.7648ZM6.28379 16.7234L10.7596 16.7576L13.034 21.2609L11.068 24.7615L6.28379 16.7234ZM11.9082 16.7503L15.7069 16.768L13.755 19.8997L11.9082 16.7503Z" fill="#95D9F0"/>
<path fill-rule="evenodd" clip-rule="evenodd" d="M8.90479 30.6658H13.4266L21.3565 16.4695L16.9466 16.4438L8.90479 30.6658ZM18.6075 30.6658H14.0855L22.1595 16.4438L26.5373 16.4695L18.6075 30.6658ZM24.0473 30.6658H19.5254L27.4874 16.4595L31.9771 16.4695L24.0473 30.6658Z" fill="#5FC5E6"/>
<path fill-rule="evenodd" clip-rule="evenodd" d="M26.4725 15.4971L21.9967 15.463L19.7223 10.9594L21.6884 7.45897L26.4725 15.4971ZM20.8481 15.4701L17.0493 15.4525L19.0014 12.3206L20.8481 15.4701ZM27.4318 15.4556L31.9032 15.4608L24.5719 2.20839L22.2782 6.42194L27.4318 15.4556Z" fill="#31A9D8"/>
</g>
<defs>
<clipPath id="clip0_266_10820">
<rect width="31.9473" height="31.6" fill="white" transform="translate(0.404297 0.300049)"/>
</clipPath>
</defs>
</svg>
